  0
SECTION
  2
HEADER
  9
$ACADVER
  1
AC1009
  9
$EXTMIN
 10
0.0
 20
0.0
 30
0.0
  9
$EXTMAX
 10
1000.0
 20
1000.0
 30
0.0
  9
$FILLMODE
 70
 0
  9
$SPLFRAME
 70
 1
  0
ENDSEC
  0
SECTION
  2
TABLES
  0
TABLE
  2
LAYER
 70
1
  0
LAYER
  2
0
 70
     0
 62
     7
  6
CONTINUOUS
  0
ENDTAB
  0
ENDSEC
  0
SECTION
  2
ENTITIES
  0
LINE
  8
0
 62
     0
 10
0.0950846
 20
113.146
 30
0.0
 11
348.71
 21
113.146
 31
0.0
  0
LINE
  8
0
 62
     0
 10
348.71
 20
113.146
 30
0.0
 11
348.71
 21
0.304546
 31
0.0
  0
LINE
  8
0
 62
     0
 10
348.71
 20
0.304546
 30
0.0
 11
0.0950846
 21
0.304546
 31
0.0
  0
LINE
  8
0
 62
     0
 10
0.0950846
 20
0.304546
 30
0.0
 11
0.0950846
 21
113.146
 31
0.0
  0
LINE
  8
0
 62
     0
 10
190.187
 20
17.8456
 30
0.0
 11
192.618
 21
4.05832
 31
0.0
  0
LINE
  8
0
 62
     0
 10
192.618
 20
4.05832
 30
0.0
 11
206.407
 21
6.48917
 31
0.0
  0
LINE
  8
0
 62
     0
 10
206.407
 20
6.48917
 30
0.0
 11
203.976
 21
20.2765
 31
0.0
  0
LINE
  8
0
 62
     0
 10
203.976
 20
20.2765
 30
0.0
 11
190.187
 21
17.8456
 31
0.0
  0
LINE
  8
0
 62
     0
 10
120.282
 20
24.2507
 30
0.0
 11
118.583
 21
24.5497
 31
0.0
  0
LINE
  8
0
 62
     0
 10
118.583
 20
24.5497
 30
0.0
 11
117.494
 21
18.3747
 31
0.0
  0
LINE
  8
0
 62
     0
 10
117.494
 20
18.3747
 30
0.0
 11
116.681
 21
18.5181
 31
0.0
  0
LINE
  8
0
 62
     0
 10
116.681
 20
18.5181
 30
0.0
 11
116.195
 21
15.7606
 31
0.0
  0
LINE
  8
0
 62
     0
 10
116.195
 20
15.7606
 30
0.0
 11
117.008
 21
15.6173
 31
0.0
  0
LINE
  8
0
 62
     0
 10
117.008
 20
15.6173
 30
0.0
 11
116.447
 21
12.4368
 31
0.0
  0
LINE
  8
0
 62
     0
 10
116.447
 20
12.4368
 30
0.0
 11
123.095
 21
11.2641
 31
0.0
  0
LINE
  8
0
 62
     0
 10
123.095
 20
11.2641
 30
0.0
 11
123.656
 21
14.4446
 31
0.0
  0
LINE
  8
0
 62
     0
 10
123.656
 20
14.4446
 30
0.0
 11
125.156
 21
14.18
 31
0.0
  0
LINE
  8
0
 62
     0
 10
125.156
 20
14.18
 30
0.0
 11
124.342
 21
9.55118
 31
0.0
  0
LINE
  8
0
 62
     0
 10
124.342
 20
9.55118
 30
0.0
 11
138.129
 21
7.12033
 31
0.0
  0
LINE
  8
0
 62
     0
 10
138.129
 20
7.12033
 30
0.0
 11
138.945
 21
11.7492
 31
0.0
  0
LINE
  8
0
 62
     0
 10
138.945
 20
11.7492
 30
0.0
 11
140.447
 21
11.4846
 31
0.0
  0
LINE
  8
0
 62
     0
 10
140.447
 20
11.4846
 30
0.0
 11
139.886
 21
8.3027
 31
0.0
  0
LINE
  8
0
 62
     0
 10
139.886
 20
8.3027
 30
0.0
 11
146.532
 21
7.13133
 31
0.0
  0
LINE
  8
0
 62
     0
 10
146.532
 20
7.13133
 30
0.0
 11
147.093
 21
10.3119
 31
0.0
  0
LINE
  8
0
 62
     0
 10
147.093
 20
10.3119
 30
0.0
 11
147.906
 21
10.1685
 31
0.0
  0
LINE
  8
0
 62
     0
 10
147.906
 20
10.1685
 30
0.0
 11
148.393
 21
12.926
 31
0.0
  0
LINE
  8
0
 62
     0
 10
148.393
 20
12.926
 30
0.0
 11
147.58
 21
13.0693
 31
0.0
  0
LINE
  8
0
 62
     0
 10
147.58
 20
13.0693
 30
0.0
 11
148.668
 21
19.2443
 31
0.0
  0
LINE
  8
0
 62
     0
 10
148.668
 20
19.2443
 30
0.0
 11
146.969
 21
19.5447
 31
0.0
  0
LINE
  8
0
 62
     0
 10
146.969
 20
19.5447
 30
0.0
 11
147.179
 21
20.7257
 31
0.0
  0
LINE
  8
0
 62
     0
 10
147.179
 20
20.7257
 30
0.0
 11
143.928
 21
21.299
 31
0.0
  0
LINE
  8
0
 62
     0
 10
143.928
 20
21.299
 30
0.0
 11
143.721
 21
20.1166
 31
0.0
  0
LINE
  8
0
 62
     0
 10
143.721
 20
20.1166
 30
0.0
 11
142.022
 21
20.4156
 31
0.0
  0
LINE
  8
0
 62
     0
 10
142.022
 20
20.4156
 30
0.0
 11
141.246
 21
16.0142
 31
0.0
  0
LINE
  8
0
 62
     0
 10
141.246
 20
16.0142
 30
0.0
 11
139.744
 21
16.2788
 31
0.0
  0
LINE
  8
0
 62
     0
 10
139.744
 20
16.2788
 30
0.0
 11
140.56
 21
20.9076
 31
0.0
  0
LINE
  8
0
 62
     0
 10
140.56
 20
20.9076
 30
0.0
 11
126.772
 21
23.3398
 31
0.0
  0
LINE
  8
0
 62
     0
 10
126.772
 20
23.3398
 30
0.0
 11
125.957
 21
18.7096
 31
0.0
  0
LINE
  8
0
 62
     0
 10
125.957
 20
18.7096
 30
0.0
 11
124.455
 21
18.9756
 31
0.0
  0
LINE
  8
0
 62
     0
 10
124.455
 20
18.9756
 30
0.0
 11
125.23
 21
23.377
 31
0.0
  0
LINE
  8
0
 62
     0
 10
125.23
 20
23.377
 30
0.0
 11
123.531
 21
23.6775
 31
0.0
  0
LINE
  8
0
 62
     0
 10
123.531
 20
23.6775
 30
0.0
 11
123.74
 21
24.8584
 31
0.0
  0
LINE
  8
0
 62
     0
 10
123.74
 20
24.8584
 30
0.0
 11
120.49
 21
25.4317
 31
0.0
  0
LINE
  8
0
 62
     0
 10
120.49
 20
25.4317
 30
0.0
 11
120.282
 21
24.2507
 31
0.0
  0
LINE
  8
0
 62
     0
 10
225.363
 20
24.0482
 30
0.0
 11
226.18
 21
19.4207
 31
0.0
  0
LINE
  8
0
 62
     0
 10
226.18
 20
19.4207
 30
0.0
 11
224.678
 21
19.1547
 31
0.0
  0
LINE
  8
0
 62
     0
 10
224.678
 20
19.1547
 30
0.0
 11
224.117
 21
22.3352
 31
0.0
  0
LINE
  8
0
 62
     0
 10
224.117
 20
22.3352
 30
0.0
 11
217.47
 21
21.1625
 31
0.0
  0
LINE
  8
0
 62
     0
 10
217.47
 20
21.1625
 30
0.0
 11
218.03
 21
17.982
 31
0.0
  0
LINE
  8
0
 62
     0
 10
218.03
 20
17.982
 30
0.0
 11
217.219
 21
17.8387
 31
0.0
  0
LINE
  8
0
 62
     0
 10
217.219
 20
17.8387
 30
0.0
 11
217.704
 21
15.0826
 31
0.0
  0
LINE
  8
0
 62
     0
 10
217.704
 20
15.0826
 30
0.0
 11
218.517
 21
15.2246
 31
0.0
  0
LINE
  8
0
 62
     0
 10
218.517
 20
15.2246
 30
0.0
 11
219.606
 21
9.04956
 31
0.0
  0
LINE
  8
0
 62
     0
 10
219.606
 20
9.04956
 30
0.0
 11
221.305
 21
9.34999
 31
0.0
  0
LINE
  8
0
 62
     0
 10
221.305
 20
9.34999
 30
0.0
 11
221.513
 21
8.16762
 31
0.0
  0
LINE
  8
0
 62
     0
 10
221.513
 20
8.16762
 30
0.0
 11
224.762
 21
8.74088
 31
0.0
  0
LINE
  8
0
 62
     0
 10
224.762
 20
8.74088
 30
0.0
 11
224.554
 21
9.92325
 31
0.0
  0
LINE
  8
0
 62
     0
 10
224.554
 20
9.92325
 30
0.0
 11
226.253
 21
10.2223
 31
0.0
  0
LINE
  8
0
 62
     0
 10
226.253
 20
10.2223
 30
0.0
 11
225.476
 21
14.6237
 31
0.0
  0
LINE
  8
0
 62
     0
 10
225.476
 20
14.6237
 30
0.0
 11
226.978
 21
14.8897
 31
0.0
  0
LINE
  8
0
 62
     0
 10
226.978
 20
14.8897
 30
0.0
 11
227.794
 21
10.2609
 31
0.0
  0
LINE
  8
0
 62
     0
 10
227.794
 20
10.2609
 30
0.0
 11
241.583
 21
12.6917
 31
0.0
  0
LINE
  8
0
 62
     0
 10
241.583
 20
12.6917
 30
0.0
 11
240.767
 21
17.3206
 31
0.0
  0
LINE
  8
0
 62
     0
 10
240.767
 20
17.3206
 30
0.0
 11
242.267
 21
17.5852
 31
0.0
  0
LINE
  8
0
 62
     0
 10
242.267
 20
17.5852
 30
0.0
 11
243.044
 21
13.1837
 31
0.0
  0
LINE
  8
0
 62
     0
 10
243.044
 20
13.1837
 30
0.0
 11
244.742
 21
13.4827
 31
0.0
  0
LINE
  8
0
 62
     0
 10
244.742
 20
13.4827
 30
0.0
 11
244.952
 21
12.3017
 31
0.0
  0
LINE
  8
0
 62
     0
 10
244.952
 20
12.3017
 30
0.0
 11
248.201
 21
12.8736
 31
0.0
  0
LINE
  8
0
 62
     0
 10
248.201
 20
12.8736
 30
0.0
 11
247.993
 21
14.056
 31
0.0
  0
LINE
  8
0
 62
     0
 10
247.993
 20
14.056
 30
0.0
 11
249.691
 21
14.355
 31
0.0
  0
LINE
  8
0
 62
     0
 10
249.691
 20
14.355
 30
0.0
 11
248.602
 21
20.53
 31
0.0
  0
LINE
  8
0
 62
     0
 10
248.602
 20
20.53
 30
0.0
 11
249.415
 21
20.6733
 31
0.0
  0
LINE
  8
0
 62
     0
 10
249.415
 20
20.6733
 30
0.0
 11
248.929
 21
23.4308
 31
0.0
  0
LINE
  8
0
 62
     0
 10
248.929
 20
23.4308
 30
0.0
 11
248.117
 21
23.2875
 31
0.0
  0
LINE
  8
0
 62
     0
 10
248.117
 20
23.2875
 30
0.0
 11
247.555
 21
26.468
 31
0.0
  0
LINE
  8
0
 62
     0
 10
247.555
 20
26.468
 30
0.0
 11
240.909
 21
25.2966
 31
0.0
  0
LINE
  8
0
 62
     0
 10
240.909
 20
25.2966
 30
0.0
 11
241.469
 21
22.1148
 31
0.0
  0
LINE
  8
0
 62
     0
 10
241.469
 20
22.1148
 30
0.0
 11
239.968
 21
21.8502
 31
0.0
  0
LINE
  8
0
 62
     0
 10
239.968
 20
21.8502
 30
0.0
 11
239.152
 21
26.479
 31
0.0
  0
LINE
  8
0
 62
     0
 10
239.152
 20
26.479
 30
0.0
 11
225.363
 21
24.0482
 31
0.0
  0
LINE
  8
0
 62
     0
 10
86.8193
 20
16.1671
 30
0.0
 11
100.608
 21
13.7363
 31
0.0
  0
LINE
  8
0
 62
     0
 10
100.608
 20
13.7363
 30
0.0
 11
103.039
 21
27.5235
 31
0.0
  0
LINE
  8
0
 62
     0
 10
103.039
 20
27.5235
 30
0.0
 11
89.25
 21
29.9558
 31
0.0
  0
LINE
  8
0
 62
     0
 10
89.25
 20
29.9558
 30
0.0
 11
86.8193
 21
16.1671
 31
0.0
  0
LINE
  8
0
 62
     0
 10
261.222
 20
29.6595
 30
0.0
 11
275.223
 21
29.6595
 31
0.0
  0
LINE
  8
0
 62
     0
 10
275.223
 20
29.6595
 30
0.0
 11
275.223
 21
15.66
 31
0.0
  0
LINE
  8
0
 62
     0
 10
275.223
 20
15.66
 30
0.0
 11
261.222
 21
15.66
 31
0.0
  0
LINE
  8
0
 62
     0
 10
261.222
 20
15.66
 30
0.0
 11
261.222
 21
29.6595
 31
0.0
  0
LINE
  8
0
 62
     0
 10
64.5322
 20
31.5654
 30
0.0
 11
78.5315
 21
31.5654
 31
0.0
  0
LINE
  8
0
 62
     0
 10
78.5315
 20
31.5654
 30
0.0
 11
78.5315
 21
17.5659
 31
0.0
  0
LINE
  8
0
 62
     0
 10
78.5315
 20
17.5659
 30
0.0
 11
64.5322
 21
17.5659
 31
0.0
  0
LINE
  8
0
 62
     0
 10
64.5322
 20
17.5659
 30
0.0
 11
64.5322
 21
31.5654
 31
0.0
  0
LINE
  8
0
 62
     0
 10
182.189
 20
35.7794
 30
0.0
 11
184.62
 21
21.9921
 31
0.0
  0
LINE
  8
0
 62
     0
 10
184.62
 20
21.9921
 30
0.0
 11
198.407
 21
24.423
 31
0.0
  0
LINE
  8
0
 62
     0
 10
198.407
 20
24.423
 30
0.0
 11
195.976
 21
38.2104
 31
0.0
  0
LINE
  8
0
 62
     0
 10
195.976
 20
38.2104
 30
0.0
 11
182.189
 21
35.7794
 31
0.0
  0
LINE
  8
0
 62
     0
 10
144.064
 20
25.4165
 30
0.0
 11
157.851
 21
22.9857
 31
0.0
  0
LINE
  8
0
 62
     0
 10
157.851
 20
22.9857
 30
0.0
 11
160.282
 21
36.7743
 31
0.0
  0
LINE
  8
0
 62
     0
 10
160.282
 20
36.7743
 30
0.0
 11
146.495
 21
39.2053
 31
0.0
  0
LINE
  8
0
 62
     0
 10
146.495
 20
39.2053
 30
0.0
 11
144.064
 21
25.4165
 31
0.0
  0
LINE
  8
0
 62
     0
 10
200.951
 20
39.0867
 30
0.0
 11
203.382
 21
25.3008
 31
0.0
  0
LINE
  8
0
 62
     0
 10
203.382
 20
25.3008
 30
0.0
 11
217.169
 21
27.7316
 31
0.0
  0
LINE
  8
0
 62
     0
 10
217.169
 20
27.7316
 30
0.0
 11
214.737
 21
41.5177
 31
0.0
  0
LINE
  8
0
 62
     0
 10
214.737
 20
41.5177
 30
0.0
 11
200.951
 21
39.0867
 31
0.0
  0
LINE
  8
0
 62
     0
 10
125.303
 20
28.7252
 30
0.0
 11
139.091
 21
26.2944
 31
0.0
  0
LINE
  8
0
 62
     0
 10
139.091
 20
26.2944
 30
0.0
 11
141.523
 21
40.0816
 31
0.0
  0
LINE
  8
0
 62
     0
 10
141.523
 20
40.0816
 30
0.0
 11
127.736
 21
42.514
 31
0.0
  0
LINE
  8
0
 62
     0
 10
127.736
 20
42.514
 30
0.0
 11
125.303
 21
28.7252
 31
0.0
  0
LINE
  8
0
 62
     0
 10
219.71
 20
42.3954
 30
0.0
 11
222.141
 21
28.6081
 31
0.0
  0
LINE
  8
0
 62
     0
 10
222.141
 20
28.6081
 30
0.0
 11
235.93
 21
31.0389
 31
0.0
  0
LINE
  8
0
 62
     0
 10
235.93
 20
31.0389
 30
0.0
 11
233.499
 21
44.8261
 31
0.0
  0
LINE
  8
0
 62
     0
 10
233.499
 20
44.8261
 30
0.0
 11
219.71
 21
42.3954
 31
0.0
  0
LINE
  8
0
 62
     0
 10
106.543
 20
32.0325
 30
0.0
 11
120.33
 21
29.6017
 31
0.0
  0
LINE
  8
0
 62
     0
 10
120.33
 20
29.6017
 30
0.0
 11
122.761
 21
43.3903
 31
0.0
  0
LINE
  8
0
 62
     0
 10
122.761
 20
43.3903
 30
0.0
 11
108.974
 21
45.8212
 31
0.0
  0
LINE
  8
0
 62
     0
 10
108.974
 20
45.8212
 30
0.0
 11
106.543
 21
32.0325
 31
0.0
  0
LINE
  8
0
 62
     0
 10
238.471
 20
45.7027
 30
0.0
 11
240.903
 21
31.9168
 31
0.0
  0
LINE
  8
0
 62
     0
 10
240.903
 20
31.9168
 30
0.0
 11
254.689
 21
34.3476
 31
0.0
  0
LINE
  8
0
 62
     0
 10
254.689
 20
34.3476
 30
0.0
 11
252.258
 21
48.1334
 31
0.0
  0
LINE
  8
0
 62
     0
 10
252.258
 20
48.1334
 30
0.0
 11
238.471
 21
45.7027
 31
0.0
  0
LINE
  8
0
 62
     0
 10
87.7824
 20
35.3413
 30
0.0
 11
101.571
 21
32.9103
 31
0.0
  0
LINE
  8
0
 62
     0
 10
101.571
 20
32.9103
 30
0.0
 11
104.002
 21
46.6975
 31
0.0
  0
LINE
  8
0
 62
     0
 10
104.002
 20
46.6975
 30
0.0
 11
90.2134
 21
49.13
 31
0.0
  0
LINE
  8
0
 62
     0
 10
90.2134
 20
49.13
 30
0.0
 11
87.7824
 21
35.3413
 31
0.0
  0
LINE
  8
0
 62
     0
 10
332.184
 20
48.7094
 30
0.0
 11
346.184
 21
48.7094
 31
0.0
  0
LINE
  8
0
 62
     0
 10
346.184
 20
48.7094
 30
0.0
 11
346.184
 21
34.71
 31
0.0
  0
LINE
  8
0
 62
     0
 10
346.184
 20
34.71
 30
0.0
 11
332.184
 21
34.71
 31
0.0
  0
LINE
  8
0
 62
     0
 10
332.184
 20
34.71
 30
0.0
 11
332.184
 21
48.7094
 31
0.0
  0
LINE
  8
0
 62
     0
 10
305.991
 20
48.7094
 30
0.0
 11
319.99
 21
48.7094
 31
0.0
  0
LINE
  8
0
 62
     0
 10
319.99
 20
48.7094
 30
0.0
 11
319.99
 21
34.71
 31
0.0
  0
LINE
  8
0
 62
     0
 10
319.99
 20
34.71
 30
0.0
 11
305.991
 21
34.71
 31
0.0
  0
LINE
  8
0
 62
     0
 10
305.991
 20
34.71
 30
0.0
 11
305.991
 21
48.7094
 31
0.0
  0
LINE
  8
0
 62
     0
 10
279.797
 20
48.7094
 30
0.0
 11
293.797
 21
48.7094
 31
0.0
  0
LINE
  8
0
 62
     0
 10
293.797
 20
48.7094
 30
0.0
 11
293.797
 21
34.71
 31
0.0
  0
LINE
  8
0
 62
     0
 10
293.797
 20
34.71
 30
0.0
 11
279.797
 21
34.71
 31
0.0
  0
LINE
  8
0
 62
     0
 10
279.797
 20
34.71
 30
0.0
 11
279.797
 21
48.7094
 31
0.0
  0
LINE
  8
0
 62
     0
 10
260.747
 20
48.7094
 30
0.0
 11
274.747
 21
48.7094
 31
0.0
  0
LINE
  8
0
 62
     0
 10
274.747
 20
48.7094
 30
0.0
 11
274.747
 21
34.71
 31
0.0
  0
LINE
  8
0
 62
     0
 10
274.747
 20
34.71
 30
0.0
 11
260.747
 21
34.71
 31
0.0
  0
LINE
  8
0
 62
     0
 10
260.747
 20
34.71
 30
0.0
 11
260.747
 21
48.7094
 31
0.0
  0
LINE
  8
0
 62
     0
 10
37.3863
 20
50.6155
 30
0.0
 11
37.3863
 21
45.9147
 31
0.0
  0
LINE
  8
0
 62
     0
 10
37.3863
 20
45.9147
 30
0.0
 11
35.8606
 21
45.9147
 31
0.0
  0
LINE
  8
0
 62
     0
 10
35.8606
 20
45.9147
 30
0.0
 11
35.8606
 21
49.1451
 31
0.0
  0
LINE
  8
0
 62
     0
 10
35.8606
 20
49.1451
 30
0.0
 11
29.111
 21
49.1451
 31
0.0
  0
LINE
  8
0
 62
     0
 10
29.111
 20
49.1451
 30
0.0
 11
29.111
 21
45.9147
 31
0.0
  0
LINE
  8
0
 62
     0
 10
29.111
 20
45.9147
 30
0.0
 11
28.2856
 21
45.9147
 31
0.0
  0
LINE
  8
0
 62
     0
 10
28.2856
 20
45.9147
 30
0.0
 11
28.2856
 21
43.1147
 31
0.0
  0
LINE
  8
0
 62
     0
 10
28.2856
 20
43.1147
 30
0.0
 11
29.111
 21
43.1147
 31
0.0
  0
LINE
  8
0
 62
     0
 10
29.111
 20
43.1147
 30
0.0
 11
29.111
 21
36.8445
 31
0.0
  0
LINE
  8
0
 62
     0
 10
29.111
 20
36.8445
 30
0.0
 11
30.835
 21
36.8445
 31
0.0
  0
LINE
  8
0
 62
     0
 10
30.835
 20
36.8445
 30
0.0
 11
30.835
 21
35.6457
 31
0.0
  0
LINE
  8
0
 62
     0
 10
30.835
 20
35.6457
 30
0.0
 11
34.1354
 21
35.6457
 31
0.0
  0
LINE
  8
0
 62
     0
 10
34.1354
 20
35.6457
 30
0.0
 11
34.1354
 21
36.8445
 31
0.0
  0
LINE
  8
0
 62
     0
 10
34.1354
 20
36.8445
 30
0.0
 11
35.8606
 21
36.8445
 31
0.0
  0
LINE
  8
0
 62
     0
 10
35.8606
 20
36.8445
 30
0.0
 11
35.8606
 21
41.3149
 31
0.0
  0
LINE
  8
0
 62
     0
 10
35.8606
 20
41.3149
 30
0.0
 11
37.3863
 21
41.3149
 31
0.0
  0
LINE
  8
0
 62
     0
 10
37.3863
 20
41.3149
 30
0.0
 11
37.3863
 21
36.6159
 31
0.0
  0
LINE
  8
0
 62
     0
 10
37.3863
 20
36.6159
 30
0.0
 11
51.3856
 21
36.6159
 31
0.0
  0
LINE
  8
0
 62
     0
 10
51.3856
 20
36.6159
 30
0.0
 11
51.3856
 21
41.3149
 31
0.0
  0
LINE
  8
0
 62
     0
 10
51.3856
 20
41.3149
 30
0.0
 11
52.911
 21
41.3149
 31
0.0
  0
LINE
  8
0
 62
     0
 10
52.911
 20
41.3149
 30
0.0
 11
52.911
 21
36.8445
 31
0.0
  0
LINE
  8
0
 62
     0
 10
52.911
 20
36.8445
 30
0.0
 11
54.635
 21
36.8445
 31
0.0
  0
LINE
  8
0
 62
     0
 10
54.635
 20
36.8445
 30
0.0
 11
54.635
 21
35.6457
 31
0.0
  0
LINE
  8
0
 62
     0
 10
54.635
 20
35.6457
 30
0.0
 11
57.9356
 21
35.6457
 31
0.0
  0
LINE
  8
0
 62
     0
 10
57.9356
 20
35.6457
 30
0.0
 11
57.9356
 21
36.8445
 31
0.0
  0
LINE
  8
0
 62
     0
 10
57.9356
 20
36.8445
 30
0.0
 11
59.6607
 21
36.8445
 31
0.0
  0
LINE
  8
0
 62
     0
 10
59.6607
 20
36.8445
 30
0.0
 11
59.6607
 21
43.1147
 31
0.0
  0
LINE
  8
0
 62
     0
 10
59.6607
 20
43.1147
 30
0.0
 11
60.4848
 21
43.1147
 31
0.0
  0
LINE
  8
0
 62
     0
 10
60.4848
 20
43.1147
 30
0.0
 11
60.4848
 21
45.9147
 31
0.0
  0
LINE
  8
0
 62
     0
 10
60.4848
 20
45.9147
 30
0.0
 11
59.6607
 21
45.9147
 31
0.0
  0
LINE
  8
0
 62
     0
 10
59.6607
 20
45.9147
 30
0.0
 11
59.6607
 21
49.1451
 31
0.0
  0
LINE
  8
0
 62
     0
 10
59.6607
 20
49.1451
 30
0.0
 11
52.911
 21
49.1451
 31
0.0
  0
LINE
  8
0
 62
     0
 10
52.911
 20
49.1451
 30
0.0
 11
52.911
 21
45.9147
 31
0.0
  0
LINE
  8
0
 62
     0
 10
52.911
 20
45.9147
 30
0.0
 11
51.3856
 21
45.9147
 31
0.0
  0
LINE
  8
0
 62
     0
 10
51.3856
 20
45.9147
 30
0.0
 11
51.3856
 21
50.6155
 31
0.0
  0
LINE
  8
0
 62
     0
 10
51.3856
 20
50.6155
 30
0.0
 11
37.3863
 21
50.6155
 31
0.0
  0
LINE
  8
0
 62
     0
 10
68.3412
 20
50.6155
 30
0.0
 11
82.3419
 21
50.6155
 31
0.0
  0
LINE
  8
0
 62
     0
 10
82.3419
 20
50.6155
 30
0.0
 11
82.3419
 21
36.6159
 31
0.0
  0
LINE
  8
0
 62
     0
 10
82.3419
 20
36.6159
 30
0.0
 11
68.3412
 21
36.6159
 31
0.0
  0
LINE
  8
0
 62
     0
 10
68.3412
 20
36.6159
 30
0.0
 11
68.3412
 21
50.6155
 31
0.0
  0
LINE
  8
0
 62
     0
 10
2.61965
 20
50.6155
 30
0.0
 11
16.6192
 21
50.6155
 31
0.0
  0
LINE
  8
0
 62
     0
 10
16.6192
 20
50.6155
 30
0.0
 11
16.6192
 21
36.6159
 31
0.0
  0
LINE
  8
0
 62
     0
 10
16.6192
 20
36.6159
 30
0.0
 11
2.61965
 21
36.6159
 31
0.0
  0
LINE
  8
0
 62
     0
 10
2.61965
 20
36.6159
 30
0.0
 11
2.61965
 21
50.6155
 31
0.0
  0
LINE
  8
0
 62
     0
 10
189.199
 20
56.3591
 30
0.0
 11
191.63
 21
42.5718
 31
0.0
  0
LINE
  8
0
 62
     0
 10
191.63
 20
42.5718
 30
0.0
 11
205.419
 21
45.0025
 31
0.0
  0
LINE
  8
0
 62
     0
 10
205.419
 20
45.0025
 30
0.0
 11
202.988
 21
58.7897
 31
0.0
  0
LINE
  8
0
 62
     0
 10
202.988
 20
58.7897
 30
0.0
 11
189.199
 21
56.3591
 31
0.0
  0
LINE
  8
0
 62
     0
 10
137.993
 20
45.8322
 30
0.0
 11
151.78
 21
43.4012
 31
0.0
  0
LINE
  8
0
 62
     0
 10
151.78
 20
43.4012
 30
0.0
 11
154.211
 21
57.1885
 31
0.0
  0
LINE
  8
0
 62
     0
 10
154.211
 20
57.1885
 30
0.0
 11
140.424
 21
59.6194
 31
0.0
  0
LINE
  8
0
 62
     0
 10
140.424
 20
59.6194
 30
0.0
 11
137.993
 21
45.8322
 31
0.0
  0
LINE
  8
0
 62
     0
 10
207.961
 20
59.6678
 30
0.0
 11
210.392
 21
45.8805
 31
0.0
  0
LINE
  8
0
 62
     0
 10
210.392
 20
45.8805
 30
0.0
 11
224.178
 21
48.3112
 31
0.0
  0
LINE
  8
0
 62
     0
 10
224.178
 20
48.3112
 30
0.0
 11
221.747
 21
62.0984
 31
0.0
  0
LINE
  8
0
 62
     0
 10
221.747
 20
62.0984
 30
0.0
 11
207.961
 21
59.6678
 31
0.0
  0
LINE
  8
0
 62
     0
 10
119.232
 20
49.1409
 30
0.0
 11
133.018
 21
46.7085
 31
0.0
  0
LINE
  8
0
 62
     0
 10
133.018
 20
46.7085
 30
0.0
 11
135.45
 21
60.4957
 31
0.0
  0
LINE
  8
0
 62
     0
 10
135.45
 20
60.4957
 30
0.0
 11
121.663
 21
62.9267
 31
0.0
  0
LINE
  8
0
 62
     0
 10
121.663
 20
62.9267
 30
0.0
 11
119.232
 21
49.1409
 31
0.0
  0
LINE
  8
0
 62
     0
 10
226.722
 20
62.9751
 30
0.0
 11
229.152
 21
49.1878
 31
0.0
  0
LINE
  8
0
 62
     0
 10
229.152
 20
49.1878
 30
0.0
 11
242.94
 21
51.6184
 31
0.0
  0
LINE
  8
0
 62
     0
 10
242.94
 20
51.6184
 30
0.0
 11
240.509
 21
65.4057
 31
0.0
  0
LINE
  8
0
 62
     0
 10
240.509
 20
65.4057
 30
0.0
 11
226.722
 21
62.9751
 31
0.0
  0
LINE
  8
0
 62
     0
 10
100.471
 20
52.4482
 30
0.0
 11
114.259
 21
50.0172
 31
0.0
  0
LINE
  8
0
 62
     0
 10
114.259
 20
50.0172
 30
0.0
 11
116.689
 21
63.8044
 31
0.0
  0
LINE
  8
0
 62
     0
 10
116.689
 20
63.8044
 30
0.0
 11
102.902
 21
66.2354
 31
0.0
  0
LINE
  8
0
 62
     0
 10
102.902
 20
66.2354
 30
0.0
 11
100.471
 21
52.4482
 31
0.0
  0
LINE
  8
0
 62
     0
 10
245.481
 20
66.2838
 30
0.0
 11
247.912
 21
52.4965
 31
0.0
  0
LINE
  8
0
 62
     0
 10
247.912
 20
52.4965
 30
0.0
 11
261.7
 21
54.9271
 31
0.0
  0
LINE
  8
0
 62
     0
 10
261.7
 20
54.9271
 30
0.0
 11
259.268
 21
68.7144
 31
0.0
  0
LINE
  8
0
 62
     0
 10
259.268
 20
68.7144
 30
0.0
 11
245.481
 21
66.2838
 31
0.0
  0
LINE
  8
0
 62
     0
 10
317.42
 20
67.7594
 30
0.0
 11
317.42
 21
63.0604
 31
0.0
  0
LINE
  8
0
 62
     0
 10
317.42
 20
63.0604
 30
0.0
 11
315.896
 21
63.0604
 31
0.0
  0
LINE
  8
0
 62
     0
 10
315.896
 20
63.0604
 30
0.0
 11
315.896
 21
66.2905
 31
0.0
  0
LINE
  8
0
 62
     0
 10
315.896
 20
66.2905
 30
0.0
 11
309.145
 21
66.2905
 31
0.0
  0
LINE
  8
0
 62
     0
 10
309.145
 20
66.2905
 30
0.0
 11
309.145
 21
63.0604
 31
0.0
  0
LINE
  8
0
 62
     0
 10
309.145
 20
63.0604
 30
0.0
 11
308.321
 21
63.0604
 31
0.0
  0
LINE
  8
0
 62
     0
 10
308.321
 20
63.0604
 30
0.0
 11
308.321
 21
60.2601
 31
0.0
  0
LINE
  8
0
 62
     0
 10
308.321
 20
60.2601
 30
0.0
 11
309.145
 21
60.2601
 31
0.0
  0
LINE
  8
0
 62
     0
 10
309.145
 20
60.2601
 30
0.0
 11
309.145
 21
53.9902
 31
0.0
  0
LINE
  8
0
 62
     0
 10
309.145
 20
53.9902
 30
0.0
 11
310.87
 21
53.9902
 31
0.0
  0
LINE
  8
0
 62
     0
 10
310.87
 20
53.9902
 30
0.0
 11
310.87
 21
52.79
 31
0.0
  0
LINE
  8
0
 62
     0
 10
310.87
 20
52.79
 30
0.0
 11
314.171
 21
52.79
 31
0.0
  0
LINE
  8
0
 62
     0
 10
314.171
 20
52.79
 30
0.0
 11
314.171
 21
53.9902
 31
0.0
  0
LINE
  8
0
 62
     0
 10
314.171
 20
53.9902
 30
0.0
 11
315.896
 21
53.9902
 31
0.0
  0
LINE
  8
0
 62
     0
 10
315.896
 20
53.9902
 30
0.0
 11
315.896
 21
58.4606
 31
0.0
  0
LINE
  8
0
 62
     0
 10
315.896
 20
58.4606
 30
0.0
 11
317.42
 21
58.4606
 31
0.0
  0
LINE
  8
0
 62
     0
 10
317.42
 20
58.4606
 30
0.0
 11
317.42
 21
53.7602
 31
0.0
  0
LINE
  8
0
 62
     0
 10
317.42
 20
53.7602
 30
0.0
 11
331.421
 21
53.7602
 31
0.0
  0
LINE
  8
0
 62
     0
 10
331.421
 20
53.7602
 30
0.0
 11
331.421
 21
58.4606
 31
0.0
  0
LINE
  8
0
 62
     0
 10
331.421
 20
58.4606
 30
0.0
 11
332.945
 21
58.4606
 31
0.0
  0
LINE
  8
0
 62
     0
 10
332.945
 20
58.4606
 30
0.0
 11
332.945
 21
53.9902
 31
0.0
  0
LINE
  8
0
 62
     0
 10
332.945
 20
53.9902
 30
0.0
 11
334.67
 21
53.9902
 31
0.0
  0
LINE
  8
0
 62
     0
 10
334.67
 20
53.9902
 30
0.0
 11
334.67
 21
52.79
 31
0.0
  0
LINE
  8
0
 62
     0
 10
334.67
 20
52.79
 30
0.0
 11
337.971
 21
52.79
 31
0.0
  0
LINE
  8
0
 62
     0
 10
337.971
 20
52.79
 30
0.0
 11
337.971
 21
53.9902
 31
0.0
  0
LINE
  8
0
 62
     0
 10
337.971
 20
53.9902
 30
0.0
 11
339.696
 21
53.9902
 31
0.0
  0
LINE
  8
0
 62
     0
 10
339.696
 20
53.9902
 30
0.0
 11
339.696
 21
60.2601
 31
0.0
  0
LINE
  8
0
 62
     0
 10
339.696
 20
60.2601
 30
0.0
 11
340.52
 21
60.2601
 31
0.0
  0
LINE
  8
0
 62
     0
 10
340.52
 20
60.2601
 30
0.0
 11
340.52
 21
63.0604
 31
0.0
  0
LINE
  8
0
 62
     0
 10
340.52
 20
63.0604
 30
0.0
 11
339.696
 21
63.0604
 31
0.0
  0
LINE
  8
0
 62
     0
 10
339.696
 20
63.0604
 30
0.0
 11
339.696
 21
66.2905
 31
0.0
  0
LINE
  8
0
 62
     0
 10
339.696
 20
66.2905
 30
0.0
 11
332.945
 21
66.2905
 31
0.0
  0
LINE
  8
0
 62
     0
 10
332.945
 20
66.2905
 30
0.0
 11
332.945
 21
63.0604
 31
0.0
  0
LINE
  8
0
 62
     0
 10
332.945
 20
63.0604
 30
0.0
 11
331.421
 21
63.0604
 31
0.0
  0
LINE
  8
0
 62
     0
 10
331.421
 20
63.0604
 30
0.0
 11
331.421
 21
67.7594
 31
0.0
  0
LINE
  8
0
 62
     0
 10
331.421
 20
67.7594
 30
0.0
 11
317.42
 21
67.7594
 31
0.0
  0
LINE
  8
0
 62
     0
 10
81.7107
 20
55.7569
 30
0.0
 11
95.498
 21
53.3245
 31
0.0
  0
LINE
  8
0
 62
     0
 10
95.498
 20
53.3245
 30
0.0
 11
97.929
 21
67.1117
 31
0.0
  0
LINE
  8
0
 62
     0
 10
97.929
 20
67.1117
 30
0.0
 11
84.1417
 21
69.5427
 31
0.0
  0
LINE
  8
0
 62
     0
 10
84.1417
 20
69.5427
 30
0.0
 11
81.7107
 21
55.7569
 31
0.0
  0
LINE
  8
0
 62
     0
 10
286.464
 20
67.7594
 30
0.0
 11
300.465
 21
67.7594
 31
0.0
  0
LINE
  8
0
 62
     0
 10
300.465
 20
67.7594
 30
0.0
 11
300.465
 21
53.7602
 31
0.0
  0
LINE
  8
0
 62
     0
 10
300.465
 20
53.7602
 30
0.0
 11
286.464
 21
53.7602
 31
0.0
  0
LINE
  8
0
 62
     0
 10
286.464
 20
53.7602
 30
0.0
 11
286.464
 21
67.7594
 31
0.0
  0
LINE
  8
0
 62
     0
 10
267.414
 20
67.7594
 30
0.0
 11
281.415
 21
67.7594
 31
0.0
  0
LINE
  8
0
 62
     0
 10
281.415
 20
67.7594
 30
0.0
 11
281.415
 21
53.7602
 31
0.0
  0
LINE
  8
0
 62
     0
 10
281.415
 20
53.7602
 30
0.0
 11
267.414
 21
53.7602
 31
0.0
  0
LINE
  8
0
 62
     0
 10
267.414
 20
53.7602
 30
0.0
 11
267.414
 21
67.7594
 31
0.0
  0
LINE
  8
0
 62
     0
 10
60.7219
 20
69.6655
 30
0.0
 11
74.7215
 21
69.6655
 31
0.0
  0
LINE
  8
0
 62
     0
 10
74.7215
 20
69.6655
 30
0.0
 11
74.7215
 21
55.6659
 31
0.0
  0
LINE
  8
0
 62
     0
 10
74.7215
 20
55.6659
 30
0.0
 11
60.7219
 21
55.6659
 31
0.0
  0
LINE
  8
0
 62
     0
 10
60.7219
 20
55.6659
 30
0.0
 11
60.7219
 21
69.6655
 31
0.0
  0
LINE
  8
0
 62
     0
 10
34.5281
 20
69.6655
 30
0.0
 11
48.5278
 21
69.6655
 31
0.0
  0
LINE
  8
0
 62
     0
 10
48.5278
 20
69.6655
 30
0.0
 11
48.5278
 21
55.6659
 31
0.0
  0
LINE
  8
0
 62
     0
 10
48.5278
 20
55.6659
 30
0.0
 11
34.5281
 21
55.6659
 31
0.0
  0
LINE
  8
0
 62
     0
 10
34.5281
 20
55.6659
 30
0.0
 11
34.5281
 21
69.6655
 31
0.0
  0
LINE
  8
0
 62
     0
 10
4.52409
 20
69.6655
 30
0.0
 11
18.525
 21
69.6655
 31
0.0
  0
LINE
  8
0
 62
     0
 10
18.525
 20
69.6655
 30
0.0
 11
18.525
 21
55.6659
 31
0.0
  0
LINE
  8
0
 62
     0
 10
18.525
 20
55.6659
 30
0.0
 11
4.52409
 21
55.6659
 31
0.0
  0
LINE
  8
0
 62
     0
 10
4.52409
 20
55.6659
 30
0.0
 11
4.52409
 21
69.6655
 31
0.0
  0
LINE
  8
0
 62
     0
 10
180.264
 20
74.1274
 30
0.0
 11
182.695
 21
60.3402
 31
0.0
  0
LINE
  8
0
 62
     0
 10
182.695
 20
60.3402
 30
0.0
 11
196.482
 21
62.7712
 31
0.0
  0
LINE
  8
0
 62
     0
 10
196.482
 20
62.7712
 30
0.0
 11
194.051
 21
76.5584
 31
0.0
  0
LINE
  8
0
 62
     0
 10
194.051
 20
76.5584
 30
0.0
 11
180.264
 21
74.1274
 31
0.0
  0
LINE
  8
0
 62
     0
 10
133.797
 20
65.9158
 30
0.0
 11
147.584
 21
63.4848
 31
0.0
  0
LINE
  8
0
 62
     0
 10
147.584
 20
63.4848
 30
0.0
 11
150.015
 21
77.2721
 31
0.0
  0
LINE
  8
0
 62
     0
 10
150.015
 20
77.2721
 30
0.0
 11
136.227
 21
79.7031
 31
0.0
  0
LINE
  8
0
 62
     0
 10
136.227
 20
79.7031
 30
0.0
 11
133.797
 21
65.9158
 31
0.0
  0
LINE
  8
0
 62
     0
 10
199.025
 20
77.4347
 30
0.0
 11
201.456
 21
63.6489
 31
0.0
  0
LINE
  8
0
 62
     0
 10
201.456
 20
63.6489
 30
0.0
 11
215.243
 21
66.0799
 31
0.0
  0
LINE
  8
0
 62
     0
 10
215.243
 20
66.0799
 30
0.0
 11
212.812
 21
79.8657
 31
0.0
  0
LINE
  8
0
 62
     0
 10
212.812
 20
79.8657
 30
0.0
 11
199.025
 21
77.4347
 31
0.0
  0
LINE
  8
0
 62
     0
 10
115.036
 20
69.2245
 30
0.0
 11
128.823
 21
66.7935
 31
0.0
  0
LINE
  8
0
 62
     0
 10
128.823
 20
66.7935
 30
0.0
 11
131.254
 21
80.5808
 31
0.0
  0
LINE
  8
0
 62
     0
 10
131.254
 20
80.5808
 30
0.0
 11
117.467
 21
83.0118
 31
0.0
  0
LINE
  8
0
 62
     0
 10
117.467
 20
83.0118
 30
0.0
 11
115.036
 21
69.2245
 31
0.0
  0
LINE
  8
0
 62
     0
 10
217.785
 20
80.7434
 30
0.0
 11
220.216
 21
66.9562
 31
0.0
  0
LINE
  8
0
 62
     0
 10
220.216
 20
66.9562
 30
0.0
 11
234.003
 21
69.3872
 31
0.0
  0
LINE
  8
0
 62
     0
 10
234.003
 20
69.3872
 30
0.0
 11
231.573
 21
83.1744
 31
0.0
  0
LINE
  8
0
 62
     0
 10
231.573
 20
83.1744
 30
0.0
 11
217.785
 21
80.7434
 31
0.0
  0
LINE
  8
0
 62
     0
 10
96.2738
 20
72.5318
 30
0.0
 11
110.062
 21
70.1008
 31
0.0
  0
LINE
  8
0
 62
     0
 10
110.062
 20
70.1008
 30
0.0
 11
112.493
 21
83.8881
 31
0.0
  0
LINE
  8
0
 62
     0
 10
112.493
 20
83.8881
 30
0.0
 11
98.7062
 21
86.3191
 31
0.0
  0
LINE
  8
0
 62
     0
 10
98.7062
 20
86.3191
 30
0.0
 11
96.2738
 21
72.5318
 31
0.0
  0
LINE
  8
0
 62
     0
 10
236.546
 20
84.0507
 30
0.0
 11
238.977
 21
70.2649
 31
0.0
  0
LINE
  8
0
 62
     0
 10
238.977
 20
70.2649
 30
0.0
 11
252.762
 21
72.6955
 31
0.0
  0
LINE
  8
0
 62
     0
 10
252.762
 20
72.6955
 30
0.0
 11
250.333
 21
86.4817
 31
0.0
  0
LINE
  8
0
 62
     0
 10
250.333
 20
86.4817
 30
0.0
 11
236.546
 21
84.0507
 31
0.0
  0
LINE
  8
0
 62
     0
 10
320.755
 20
86.8094
 30
0.0
 11
334.754
 21
86.8094
 31
0.0
  0
LINE
  8
0
 62
     0
 10
334.754
 20
86.8094
 30
0.0
 11
334.754
 21
72.8102
 31
0.0
  0
LINE
  8
0
 62
     0
 10
334.754
 20
72.8102
 30
0.0
 11
320.755
 21
72.8102
 31
0.0
  0
LINE
  8
0
 62
     0
 10
320.755
 20
72.8102
 30
0.0
 11
320.755
 21
86.8094
 31
0.0
  0
LINE
  8
0
 62
     0
 10
296.941
 20
86.8094
 30
0.0
 11
310.942
 21
86.8094
 31
0.0
  0
LINE
  8
0
 62
     0
 10
310.942
 20
86.8094
 30
0.0
 11
310.942
 21
72.8102
 31
0.0
  0
LINE
  8
0
 62
     0
 10
310.942
 20
72.8102
 30
0.0
 11
296.941
 21
72.8102
 31
0.0
  0
LINE
  8
0
 62
     0
 10
296.941
 20
72.8102
 30
0.0
 11
296.941
 21
86.8094
 31
0.0
  0
LINE
  8
0
 62
     0
 10
277.891
 20
86.8094
 30
0.0
 11
291.892
 21
86.8094
 31
0.0
  0
LINE
  8
0
 62
     0
 10
291.892
 20
86.8094
 30
0.0
 11
291.892
 21
72.8102
 31
0.0
  0
LINE
  8
0
 62
     0
 10
291.892
 20
72.8102
 30
0.0
 11
277.891
 21
72.8102
 31
0.0
  0
LINE
  8
0
 62
     0
 10
277.891
 20
72.8102
 30
0.0
 11
277.891
 21
86.8094
 31
0.0
  0
LINE
  8
0
 62
     0
 10
77.5148
 20
75.8402
 30
0.0
 11
91.3021
 21
73.4095
 31
0.0
  0
LINE
  8
0
 62
     0
 10
91.3021
 20
73.4095
 30
0.0
 11
93.7327
 21
87.1968
 31
0.0
  0
LINE
  8
0
 62
     0
 10
93.7327
 20
87.1968
 30
0.0
 11
79.9454
 21
89.6278
 31
0.0
  0
LINE
  8
0
 62
     0
 10
79.9454
 20
89.6278
 30
0.0
 11
77.5148
 21
75.8402
 31
0.0
  0
LINE
  8
0
 62
     0
 10
258.841
 20
87.763
 30
0.0
 11
272.842
 21
87.763
 31
0.0
  0
LINE
  8
0
 62
     0
 10
272.842
 20
87.763
 30
0.0
 11
272.842
 21
73.7623
 31
0.0
  0
LINE
  8
0
 62
     0
 10
272.842
 20
73.7623
 30
0.0
 11
258.841
 21
73.7623
 31
0.0
  0
LINE
  8
0
 62
     0
 10
258.841
 20
73.7623
 30
0.0
 11
258.841
 21
87.763
 31
0.0
  0
LINE
  8
0
 62
     0
 10
57.8637
 20
88.7155
 30
0.0
 11
71.8647
 21
88.7155
 31
0.0
  0
LINE
  8
0
 62
     0
 10
71.8647
 20
88.7155
 30
0.0
 11
71.8647
 21
74.7159
 31
0.0
  0
LINE
  8
0
 62
     0
 10
71.8647
 20
74.7159
 30
0.0
 11
57.8637
 21
74.7159
 31
0.0
  0
LINE
  8
0
 62
     0
 10
57.8637
 20
74.7159
 30
0.0
 11
57.8637
 21
88.7155
 31
0.0
  0
LINE
  8
0
 62
     0
 10
34.0513
 20
88.7155
 30
0.0
 11
48.0508
 21
88.7155
 31
0.0
  0
LINE
  8
0
 62
     0
 10
48.0508
 20
88.7155
 30
0.0
 11
48.0508
 21
74.7159
 31
0.0
  0
LINE
  8
0
 62
     0
 10
48.0508
 20
74.7159
 30
0.0
 11
34.0513
 21
74.7159
 31
0.0
  0
LINE
  8
0
 62
     0
 10
34.0513
 20
74.7159
 30
0.0
 11
34.0513
 21
88.7155
 31
0.0
  0
LINE
  8
0
 62
     0
 10
6.42994
 20
88.7155
 30
0.0
 11
20.4294
 21
88.7155
 31
0.0
  0
LINE
  8
0
 62
     0
 10
20.4294
 20
88.7155
 30
0.0
 11
20.4294
 21
74.7159
 31
0.0
  0
LINE
  8
0
 62
     0
 10
20.4294
 20
74.7159
 30
0.0
 11
6.42994
 21
74.7159
 31
0.0
  0
LINE
  8
0
 62
     0
 10
6.42994
 20
74.7159
 30
0.0
 11
6.42994
 21
88.7155
 31
0.0
  0
LINE
  8
0
 62
     0
 10
186.337
 20
94.5416
 30
0.0
 11
188.768
 21
80.7544
 31
0.0
  0
LINE
  8
0
 62
     0
 10
188.768
 20
80.7544
 30
0.0
 11
202.555
 21
83.1868
 31
0.0
  0
LINE
  8
0
 62
     0
 10
202.555
 20
83.1868
 30
0.0
 11
200.123
 21
96.9726
 31
0.0
  0
LINE
  8
0
 62
     0
 10
200.123
 20
96.9726
 30
0.0
 11
186.337
 21
94.5416
 31
0.0
  0
LINE
  8
0
 62
     0
 10
145.547
 20
83.1882
 30
0.0
 11
159.333
 21
80.7572
 31
0.0
  0
LINE
  8
0
 62
     0
 10
159.333
 20
80.7572
 30
0.0
 11
161.765
 21
94.5444
 31
0.0
  0
LINE
  8
0
 62
     0
 10
161.765
 20
94.5444
 30
0.0
 11
147.978
 21
96.9754
 31
0.0
  0
LINE
  8
0
 62
     0
 10
147.978
 20
96.9754
 30
0.0
 11
145.547
 21
83.1882
 31
0.0
  0
LINE
  8
0
 62
     0
 10
205.096
 20
97.8503
 30
0.0
 11
207.527
 21
84.0617
 31
0.0
  0
LINE
  8
0
 62
     0
 10
207.527
 20
84.0617
 30
0.0
 11
221.316
 21
86.4941
 31
0.0
  0
LINE
  8
0
 62
     0
 10
221.316
 20
86.4941
 30
0.0
 11
218.883
 21
100.281
 31
0.0
  0
LINE
  8
0
 62
     0
 10
218.883
 20
100.281
 30
0.0
 11
205.096
 21
97.8503
 31
0.0
  0
LINE
  8
0
 62
     0
 10
126.785
 20
86.4969
 30
0.0
 11
140.572
 21
84.0659
 31
0.0
  0
LINE
  8
0
 62
     0
 10
140.572
 20
84.0659
 30
0.0
 11
143.004
 21
97.8517
 31
0.0
  0
LINE
  8
0
 62
     0
 10
143.004
 20
97.8517
 30
0.0
 11
129.216
 21
100.283
 31
0.0
  0
LINE
  8
0
 62
     0
 10
129.216
 20
100.283
 30
0.0
 11
126.785
 21
86.4969
 31
0.0
  0
LINE
  8
0
 62
     0
 10
223.858
 20
101.158
 30
0.0
 11
226.289
 21
87.3704
 31
0.0
  0
LINE
  8
0
 62
     0
 10
226.289
 20
87.3704
 30
0.0
 11
240.075
 21
89.8028
 31
0.0
  0
LINE
  8
0
 62
     0
 10
240.075
 20
89.8028
 30
0.0
 11
237.644
 21
103.589
 31
0.0
  0
LINE
  8
0
 62
     0
 10
237.644
 20
103.589
 30
0.0
 11
223.858
 21
101.158
 31
0.0
  0
LINE
  8
0
 62
     0
 10
108.026
 20
89.8042
 30
0.0
 11
121.813
 21
87.3732
 31
0.0
  0
LINE
  8
0
 62
     0
 10
121.813
 20
87.3732
 30
0.0
 11
124.244
 21
101.16
 31
0.0
  0
LINE
  8
0
 62
     0
 10
124.244
 20
101.16
 30
0.0
 11
110.456
 21
103.591
 31
0.0
  0
LINE
  8
0
 62
     0
 10
110.456
 20
103.591
 30
0.0
 11
108.026
 21
89.8042
 31
0.0
  0
LINE
  8
0
 62
     0
 10
242.617
 20
104.466
 30
0.0
 11
245.048
 21
90.6776
 31
0.0
  0
LINE
  8
0
 62
     0
 10
245.048
 20
90.6776
 30
0.0
 11
258.837
 21
93.11
 31
0.0
  0
LINE
  8
0
 62
     0
 10
258.837
 20
93.11
 30
0.0
 11
256.405
 21
106.897
 31
0.0
  0
LINE
  8
0
 62
     0
 10
256.405
 20
106.897
 30
0.0
 11
242.617
 21
104.466
 31
0.0
  0
LINE
  8
0
 62
     0
 10
89.2637
 20
93.1125
 30
0.0
 11
103.051
 21
90.6819
 31
0.0
  0
LINE
  8
0
 62
     0
 10
103.051
 20
90.6819
 30
0.0
 11
105.482
 21
104.468
 31
0.0
  0
LINE
  8
0
 62
     0
 10
105.482
 20
104.468
 30
0.0
 11
91.6961
 21
106.899
 31
0.0
  0
LINE
  8
0
 62
     0
 10
91.6961
 20
106.899
 30
0.0
 11
89.2637
 21
93.1125
 31
0.0
  0
LINE
  8
0
 62
     0
 10
321.707
 20
105.859
 30
0.0
 11
335.707
 21
105.859
 31
0.0
  0
LINE
  8
0
 62
     0
 10
335.707
 20
105.859
 30
0.0
 11
335.707
 21
91.8602
 31
0.0
  0
LINE
  8
0
 62
     0
 10
335.707
 20
91.8602
 30
0.0
 11
321.707
 21
91.8602
 31
0.0
  0
LINE
  8
0
 62
     0
 10
321.707
 20
91.8602
 30
0.0
 11
321.707
 21
105.859
 31
0.0
  0
LINE
  8
0
 62
     0
 10
302.657
 20
105.859
 30
0.0
 11
316.657
 21
105.859
 31
0.0
  0
LINE
  8
0
 62
     0
 10
316.657
 20
105.859
 30
0.0
 11
316.657
 21
91.8602
 31
0.0
  0
LINE
  8
0
 62
     0
 10
316.657
 20
91.8602
 30
0.0
 11
302.657
 21
91.8602
 31
0.0
  0
LINE
  8
0
 62
     0
 10
302.657
 20
91.8602
 30
0.0
 11
302.657
 21
105.859
 31
0.0
  0
LINE
  8
0
 62
     0
 10
283.607
 20
105.859
 30
0.0
 11
297.607
 21
105.859
 31
0.0
  0
LINE
  8
0
 62
     0
 10
297.607
 20
105.859
 30
0.0
 11
297.607
 21
91.8602
 31
0.0
  0
LINE
  8
0
 62
     0
 10
297.607
 20
91.8602
 30
0.0
 11
283.607
 21
91.8602
 31
0.0
  0
LINE
  8
0
 62
     0
 10
283.607
 20
91.8602
 30
0.0
 11
283.607
 21
105.859
 31
0.0
  0
LINE
  8
0
 62
     0
 10
264.557
 20
106.812
 30
0.0
 11
278.557
 21
106.812
 31
0.0
  0
LINE
  8
0
 62
     0
 10
278.557
 20
106.812
 30
0.0
 11
278.557
 21
92.8123
 31
0.0
  0
LINE
  8
0
 62
     0
 10
278.557
 20
92.8123
 30
0.0
 11
264.557
 21
92.8123
 31
0.0
  0
LINE
  8
0
 62
     0
 10
264.557
 20
92.8123
 30
0.0
 11
264.557
 21
106.812
 31
0.0
  0
LINE
  8
0
 62
     0
 10
50.2447
 20
107.765
 30
0.0
 11
64.244
 21
107.765
 31
0.0
  0
LINE
  8
0
 62
     0
 10
64.244
 20
107.765
 30
0.0
 11
64.244
 21
93.7659
 31
0.0
  0
LINE
  8
0
 62
     0
 10
64.244
 20
93.7659
 30
0.0
 11
50.2447
 21
93.7659
 31
0.0
  0
LINE
  8
0
 62
     0
 10
50.2447
 20
93.7659
 30
0.0
 11
50.2447
 21
107.765
 31
0.0
  0
LINE
  8
0
 62
     0
 10
31.1947
 20
107.765
 30
0.0
 11
45.194
 21
107.765
 31
0.0
  0
LINE
  8
0
 62
     0
 10
45.194
 20
107.765
 30
0.0
 11
45.194
 21
93.7659
 31
0.0
  0
LINE
  8
0
 62
     0
 10
45.194
 20
93.7659
 30
0.0
 11
31.1947
 21
93.7659
 31
0.0
  0
LINE
  8
0
 62
     0
 10
31.1947
 20
93.7659
 30
0.0
 11
31.1947
 21
107.765
 31
0.0
  0
LINE
  8
0
 62
     0
 10
8.33438
 20
107.765
 30
0.0
 11
22.3339
 21
107.765
 31
0.0
  0
LINE
  8
0
 62
     0
 10
22.3339
 20
107.765
 30
0.0
 11
22.3339
 21
93.7659
 31
0.0
  0
LINE
  8
0
 62
     0
 10
22.3339
 20
93.7659
 30
0.0
 11
8.33438
 21
93.7659
 31
0.0
  0
LINE
  8
0
 62
     0
 10
8.33438
 20
93.7659
 30
0.0
 11
8.33438
 21
107.765
 31
0.0
  0
LINE
  8
0
 62
     0
 10
69.2947
 20
108.718
 30
0.0
 11
83.294
 21
108.718
 31
0.0
  0
LINE
  8
0
 62
     0
 10
83.294
 20
108.718
 30
0.0
 11
83.294
 21
94.7166
 31
0.0
  0
LINE
  8
0
 62
     0
 10
83.294
 20
94.7166
 30
0.0
 11
69.2947
 21
94.7166
 31
0.0
  0
LINE
  8
0
 62
     0
 10
69.2947
 20
94.7166
 30
0.0
 11
69.2947
 21
108.718
 31
0.0
  0
ENDSEC
  0
EOF
