<?xml version="1.0" encoding="utf-8"?>
<!-- Generator: Adobe Illustrator 24.2.1, SVG Export Plug-In . SVG Version: 6.00 Build 0)  -->
<svg version="1.1" id="Layer_1" xmlns:svg="http://www.w3.org/2000/svg"
	 xmlns="http://www.w3.org/2000/svg" xmlns:xlink="http://www.w3.org/1999/xlink" x="0px" y="0px" viewBox="0 0 1190.5 841.9"
	 style="enable-background:new 0 0 1190.5 841.9;" xml:space="preserve">
<style type="text/css">
	
		.st0{fill:#C2C200;fill-opacity:0;stroke:#C2C200;stroke-width:0.1417;stroke-linecap:round;stroke-linejoin:round;stroke-miterlimit:10;}
	
		.st1{fill:#C2C200;fill-opacity:0;stroke:#C2C200;stroke-width:0.5669;stroke-linecap:round;stroke-linejoin:round;stroke-miterlimit:10;}
	
		.st2{fill:#C2C200;fill-opacity:0;stroke:#C2C200;stroke-width:0.4252;stroke-linecap:round;stroke-linejoin:round;stroke-miterlimit:10;}
	.st3{fill:#FFFFFF;}
</style>
<desc>Picture generated by PCBNEW</desc>
<g transform="translate(0 0) scale(1 1)">
</g>
<g>
	<path class="st0" d="M733.9,178.6c-0.6,0-1,0.5-1,1c0,0,0,0,0,0"/>
	<path class="st0" d="M389.2,183.4c0-2.7-2.2-4.8-4.9-4.8c0,0,0,0,0,0"/>
	<path class="st0" d="M126.8,178.6c-7.5,0-13.6,6.1-13.6,13.6l0,0"/>
	<path class="st0" d="M389.2,183.4L389.2,183.4"/>
	<path class="st0" d="M389.2,183.5l137.1,29.1"/>
	<path class="st0" d="M126.8,178.6l257.4,0"/>
	<path class="st0" d="M1087.4,178.6l-353.5,0"/>
	<path class="st0" d="M577.8,212.6l155-32.9"/>
	<path class="st0" d="M526.3,212.6h51.5"/>
</g>
<path class="st1" d="M919.6,287.9v-39.7"/>
<path class="st1" d="M987.3,248.2c0-0.8-0.6-1.4-1.4-1.4c0,0,0,0,0,0"/>
<path class="st1" d="M987.3,287.9v-39.7"/>
<path class="st1" d="M919.6,248.2c0-0.8-0.6-1.4-1.4-1.4c0,0,0,0,0,0"/>
<path class="st1" d="M918.2,246.8h-17"/>
<path class="st1" d="M985.9,246.8h-17"/>
<path class="st1" d="M968.9,246.8c-0.8,0-1.4,0.6-1.4,1.4c0,0,0,0,0,0"/>
<path class="st1" d="M967.5,287.9v-39.7"/>
<path class="st1" d="M899.8,287.9v-39.7"/>
<path class="st1" d="M963.4,290.7v-36.8"/>
<path class="st1" d="M962,292.1c0.8,0,1.4-0.6,1.4-1.4c0,0,0,0,0,0"/>
<path class="st1" d="M901.2,246.8c-0.8,0-1.4,0.6-1.4,1.4c0,0,0,0,0,0"/>
<path class="st1" d="M963.4,253.9c0-0.8-0.6-1.4-1.4-1.4c0,0,0,0,0,0"/>
<path class="st1" d="M936.7,395.8v-39.7"/>
<path class="st1" d="M942.2,360.4c-0.8,0-1.4,0.6-1.4,1.4c0,0,0,0,0,0"/>
<path class="st1" d="M1004.4,356.1c0-0.8-0.6-1.4-1.4-1.4c0,0,0,0,0,0"/>
<path class="st1" d="M1004.4,395.8v-39.7"/>
<path class="st1" d="M936.8,356.1c0-0.8-0.6-1.4-1.4-1.4c0,0,0,0,0,0"/>
<path class="st1" d="M935.3,354.7h-17"/>
<path class="st1" d="M1003,354.7h-17"/>
<path class="st1" d="M986,354.7c-0.8,0-1.4,0.6-1.4,1.4c0,0,0,0,0,0"/>
<path class="st1" d="M984.6,395.8v-39.7"/>
<path class="st1" d="M916.9,395.8v-39.7"/>
<path class="st1" d="M980.5,398.7v-36.8"/>
<path class="st1" d="M979.1,400.1c0.8,0,1.4-0.6,1.4-1.4c0,0,0,0,0,0"/>
<path class="st1" d="M918.3,354.7c-0.8,0-1.4,0.6-1.4,1.4c0,0,0,0,0,0"/>
<path class="st1" d="M940.8,398.7v-36.8"/>
<path class="st1" d="M979.1,400.1h-36.8"/>
<path class="st1" d="M984.6,364.6v39.7"/>
<path class="st1" d="M979.1,400.1c0.8,0,1.4-0.6,1.4-1.4c0,0,0,0,0,0"/>
<path class="st1" d="M942.2,400.1h36.8"/>
<path class="st1" d="M916.9,404.3c0,0.8,0.6,1.4,1.4,1.4c0,0,0,0,0,0"/>
<path class="st1" d="M916.9,364.6v39.7"/>
<path class="st1" d="M984.6,404.3c0,0.8,0.6,1.4,1.4,1.4c0,0,0,0,0,0"/>
<path class="st1" d="M986,405.7h17"/>
<path class="st1" d="M918.3,405.7h17"/>
<path class="st1" d="M935.3,405.8c0.8,0,1.4-0.6,1.4-1.4c0,0,0,0,0,0"/>
<path class="st1" d="M936.7,364.6v39.7"/>
<path class="st1" d="M1004.4,364.6v39.7"/>
<path class="st1" d="M940.8,361.8v36.8"/>
<path class="st1" d="M942.2,360.4c-0.8,0-1.4,0.6-1.4,1.4c0,0,0,0,0,0"/>
<path class="st1" d="M1003,405.8c0.8,0,1.4-0.6,1.4-1.4c0,0,0,0,0,0"/>
<path class="st1" d="M980.5,361.8v36.8"/>
<path class="st1" d="M942.2,360.4h36.8"/>
<path class="st1" d="M660.5,487.5l10,47.1"/>
<path class="st1" d="M664.2,531.6c0.8-0.2,1.3-0.9,1.1-1.7c0,0,0,0,0,0"/>
<path class="st1" d="M628.2,539.3l36.1-7.7"/>
<path class="st1" d="M604.3,548.7c0.2,0.8,0.9,1.3,1.7,1.1"/>
<path class="st1" d="M596,509.9l8.3,38.8"/>
<path class="st1" d="M670.5,534.7c0.2,0.8,0.9,1.3,1.7,1.1h0"/>
<path class="st1" d="M672.2,535.8l16.6-3.5"/>
<path class="st1" d="M657.7,493.9c-0.2-0.8-0.9-1.3-1.7-1.1h0"/>
<path class="st1" d="M606,549.8l16.6-3.5"/>
<path class="st1" d="M622.6,546.3c0.8-0.2,1.3-0.9,1.1-1.7"/>
<path class="st1" d="M615.5,505.8l8.3,38.8"/>
<path class="st1" d="M679.9,483.4l10,47.1"/>
<path class="st1" d="M618.9,502.2l7.7,36"/>
<path class="st1" d="M619.9,500.5c-0.8,0.2-1.3,0.9-1.1,1.7v0"/>
<path class="st1" d="M688.8,532.2c0.8-0.2,1.3-0.9,1.1-1.7l0,0"/>
<path class="st1" d="M626.5,538.2c0.2,0.8,0.9,1.3,1.7,1.1h0"/>
<path class="st1" d="M657.7,493.9l7.7,36"/>
<path class="st1" d="M619.9,500.5l36.1-7.7"/>
<path class="st1" d="M399.2,530.5l36,7.7"/>
<path class="st1" d="M440.8,545.1l16.6,3.5"/>
<path class="st1" d="M444.6,501c0.2-0.8-0.3-1.5-1.1-1.7"/>
<path class="st1" d="M374.7,531.1l16.6,3.5"/>
<path class="st1" d="M391.3,534.6c0.8,0.2,1.5-0.3,1.7-1.1"/>
<path class="st1" d="M401.2,494.7l-8.3,38.8"/>
<path class="st1" d="M467.4,508.8l-8.2,38.8"/>
<path class="st1" d="M457.5,548.7c0.8,0.2,1.5-0.3,1.7-1.1v0"/>
<path class="st1" d="M407.5,491.7l36,7.7"/>
<path class="st1" d="M164.6,449.8v-39.7"/>
<path class="st1" d="M170.1,414.4c-0.8,0-1.4,0.6-1.4,1.4l0,0"/>
<path class="st1" d="M206.9,414.4h-36.8"/>
<path class="st1" d="M232.3,410.1c0-0.8-0.6-1.4-1.4-1.4"/>
<path class="st1" d="M232.3,449.8v-39.7"/>
<path class="st1" d="M164.6,410.1c0-0.8-0.6-1.4-1.4-1.4"/>
<path class="st1" d="M163.2,408.7h-17"/>
<path class="st1" d="M168.7,452.6c0,0.8,0.6,1.4,1.4,1.4c0,0,0,0,0,0"/>
<path class="st1" d="M230.8,408.7h-17"/>
<path class="st1" d="M213.8,408.7c-0.8,0-1.4,0.6-1.4,1.4"/>
<path class="st1" d="M212.4,449.8v-39.7"/>
<path class="st1" d="M144.7,449.8v-39.7"/>
<path class="st1" d="M208.3,452.6v-36.8"/>
<path class="st1" d="M206.9,454.1c0.8,0,1.4-0.6,1.4-1.4l0,0"/>
<path class="st1" d="M146.1,408.7c-0.8,0-1.4,0.6-1.4,1.4"/>
<path class="st1" d="M208.3,415.8c0-0.8-0.6-1.4-1.4-1.4"/>
<path class="st1" d="M168.6,452.6v-36.8"/>
<path class="st1" d="M206.9,454h-36.8"/>
<path class="st1" d="M441.5,503.3l-8.3,38.8"/>
<path class="st1" d="M392.7,529.1l36,7.7"/>
<path class="st1" d="M367.1,528c-0.2,0.8,0.3,1.5,1.1,1.7"/>
<path class="st1" d="M375.3,489.2l-8.3,38.8"/>
<path class="st1" d="M433.3,542.1c-0.2,0.8,0.3,1.5,1.1,1.7c0,0,0,0,0,0"/>
<path class="st1" d="M434.4,543.8l16.6,3.5"/>
<path class="st1" d="M368.2,529.7l16.6,3.5"/>
<path class="st1" d="M401,490.3l36,7.7"/>
<path class="st1" d="M621.9,536.3l-8.3-38.8"/>
<path class="st1" d="M620,500.5c-0.8,0.2-1.3,0.9-1.1,1.7"/>
<path class="st1" d="M656,492.8l-36,7.7"/>
<path class="st1" d="M679.9,483.4c-0.2-0.8-0.9-1.3-1.7-1.1h0"/>
<path class="st1" d="M613.7,497.5c-0.2-0.8-0.9-1.3-1.7-1.1c0,0,0,0,0,0"/>
<path class="st1" d="M612,496.4l-16.6,3.5"/>
<path class="st1" d="M626.5,538.2c0.2,0.8,0.9,1.3,1.7,1.1h0"/>
<path class="st1" d="M678.2,482.3l-16.6,3.5"/>
<path class="st1" d="M661.6,485.8c-0.8,0.2-1.3,0.9-1.1,1.7c0,0,0,0,0,0"/>
<path class="st1" d="M602.5,540.4l-8.3-38.8"/>
<path class="st1" d="M665.3,530l-7.7-36.1"/>
<path class="st1" d="M664.2,531.6c0.8-0.2,1.3-0.9,1.1-1.7c0,0,0,0,0,0"/>
<path class="st1" d="M595.4,499.9c-0.8,0.2-1.3,0.9-1.1,1.7"/>
<path class="st1" d="M657.7,493.9c-0.2-0.8-0.9-1.3-1.7-1.1c0,0,0,0,0,0"/>
<path class="st1" d="M626.5,538.2l-7.7-36.1"/>
<path class="st1" d="M664.2,531.6l-36,7.7"/>
<path class="st1" d="M437,498l-36-7.7"/>
<path class="st1" d="M395.4,483.3l-16.6-3.5"/>
<path class="st1" d="M461.6,497.4l-16.6-3.5"/>
<path class="st1" d="M445,493.9c-0.8-0.2-1.5,0.3-1.7,1.1c0,0,0,0,0,0"/>
<path class="st1" d="M435.1,533.8l8.3-38.8"/>
<path class="st1" d="M368.8,519.7l8.3-38.8"/>
<path class="st1" d="M378.8,479.8c-0.8-0.2-1.5,0.3-1.7,1.1c0,0,0,0,0,0"/>
<path class="st1" d="M428.8,536.8l-36-7.7"/>
<path class="st1" d="M394.7,525.2l8.3-38.8"/>
<path class="st1" d="M443.5,499.3l-36-7.7"/>
<path class="st1" d="M469.2,500.4c0.2-0.8-0.3-1.5-1.1-1.7"/>
<path class="st1" d="M460.9,539.3l8.3-38.8"/>
<path class="st1" d="M403,486.4c0.2-0.8-0.3-1.5-1.1-1.7c0,0,0,0,0,0"/>
<path class="st1" d="M401.9,484.7l-16.6-3.5"/>
<path class="st1" d="M468.1,498.8l-16.6-3.5"/>
<path class="st1" d="M444.6,501c0.2-0.8-0.3-1.5-1.1-1.7"/>
<path class="st1" d="M435.3,538.1l-36-7.7"/>
<path class="st1" d="M967.5,256.7v39.7"/>
<path class="st1" d="M962,292.1c0.8,0,1.4-0.6,1.4-1.4c0,0,0,0,0,0"/>
<path class="st1" d="M899.8,296.4c0,0.8,0.6,1.4,1.4,1.4c0,0,0,0,0,0"/>
<path class="st1" d="M899.8,256.7v39.7"/>
<path class="st1" d="M967.5,296.4c0,0.8,0.6,1.4,1.4,1.4c0,0,0,0,0,0"/>
<path class="st1" d="M968.9,297.8h17"/>
<path class="st1" d="M963.4,253.9c0-0.8-0.6-1.4-1.4-1.4c0,0,0,0,0,0"/>
<path class="st1" d="M901.2,297.8h17"/>
<path class="st1" d="M918.2,297.8c0.8,0,1.4-0.6,1.4-1.4c0,0,0,0,0,0"/>
<path class="st1" d="M919.6,256.7v39.7"/>
<path class="st1" d="M987.3,256.7v39.7"/>
<path class="st1" d="M985.9,297.8c0.8,0,1.4-0.6,1.4-1.4c0,0,0,0,0,0"/>
<path class="st1" d="M963.4,253.9v36.8"/>
<path class="st1" d="M212.4,418.6v39.7"/>
<path class="st1" d="M206.9,454c0.8,0,1.4-0.6,1.4-1.4c0,0,0,0,0,0"/>
<path class="st1" d="M170.1,454h36.8"/>
<path class="st1" d="M144.7,458.3c0,0.8,0.6,1.4,1.4,1.4c0,0,0,0,0,0"/>
<path class="st1" d="M144.7,418.6v39.7"/>
<path class="st1" d="M212.4,458.3c0,0.8,0.6,1.4,1.4,1.4c0,0,0,0,0,0"/>
<path class="st1" d="M213.8,459.7h17"/>
<path class="st1" d="M208.3,415.8c0-0.8-0.6-1.4-1.4-1.4"/>
<path class="st1" d="M146.1,459.7h17"/>
<path class="st1" d="M163.1,459.7c0.8,0,1.4-0.6,1.4-1.4v0"/>
<path class="st1" d="M164.6,418.6v39.7"/>
<path class="st1" d="M232.2,418.6v39.7"/>
<path class="st1" d="M168.6,415.8v36.8"/>
<path class="st1" d="M170.1,414.4c-0.8,0-1.4,0.6-1.4,1.4"/>
<path class="st1" d="M230.8,459.7c0.8,0,1.4-0.6,1.4-1.4v0"/>
<path class="st1" d="M168.6,452.6c0,0.8,0.6,1.4,1.4,1.4"/>
<path class="st1" d="M208.3,415.8v36.8"/>
<path class="st1" d="M170.1,414.4h36.8"/>
<g>
	<path class="st0" d="M1087.4,529.2c7.5,0,13.6-6.1,13.6-13.6v0"/>
	<path class="st0" d="M1101,192.2c0-7.5-6.1-13.6-13.6-13.6"/>
	<path class="st0" d="M113.2,504.1c0,7.5,6.1,13.6,13.6,13.6l0,0"/>
	<path class="st0" d="M574.3,567.9l181.9-38.7"/>
	<path class="st0" d="M528.4,567.9h45.9"/>
	<path class="st0" d="M292.5,517.7l235.9,50.1"/>
	<path class="st0" d="M126.8,517.7h165.6"/>
	<path class="st0" d="M113.2,192.2l0,311.9"/>
	<path class="st0" d="M1101,515.6l0-323.4"/>
	<path class="st0" d="M1087.4,529.2l-331.2,0"/>
</g>
<path class="st2" d="M963.3,252.4h-39.7"/>
<path class="st2" d="M963.3,292.1v-39.7"/>
<path class="st2" d="M923.7,292.1h39.7"/>
<path class="st2" d="M923.7,252.4v39.7"/>
<path class="st2" d="M208.4,414.4h-39.7"/>
<path class="st2" d="M208.4,454.1v-39.7"/>
<path class="st2" d="M168.7,454.1h39.7"/>
<path class="st2" d="M168.7,414.4v39.7"/>
<path class="st2" d="M865,468.4v39.7"/>
<path class="st2" d="M865,508.1h39.7"/>
<path class="st2" d="M904.6,508.1v-39.7"/>
<path class="st2" d="M904.6,468.4H865"/>
<path class="st2" d="M306.7,472.5l-8.3,38.8"/>
<path class="st2" d="M298.4,511.4l38.8,8.3"/>
<path class="st2" d="M337.2,519.6l8.3-38.8"/>
<path class="st2" d="M345.5,480.8l-38.8-8.3"/>
<path class="st2" d="M485.5,508.2l-8.3,38.8"/>
<path class="st2" d="M477.3,547l38.8,8.3"/>
<path class="st2" d="M516.1,555.3l8.3-38.8"/>
<path class="st2" d="M524.3,516.5l-38.8-8.3"/>
<path class="st2" d="M153.5,360.4v39.7"/>
<path class="st2" d="M153.5,400.1h39.7"/>
<path class="st2" d="M193.2,400.1v-39.7"/>
<path class="st2" d="M193.2,360.4h-39.7"/>
<path class="st2" d="M950.7,252.4v39.7"/>
<path class="st2" d="M950.7,292.1h39.7"/>
<path class="st2" d="M990.3,292.1v-39.7"/>
<path class="st2" d="M990.3,252.4h-39.7"/>
<path class="st2" d="M896.7,252.4v39.7"/>
<path class="st2" d="M896.7,292.1h39.7"/>
<path class="st2" d="M936.3,292.1v-39.7"/>
<path class="st2" d="M936.3,252.4h-39.7"/>
<path class="st2" d="M773.5,303.3V343"/>
<path class="st2" d="M773.5,343h39.7"/>
<path class="st2" d="M813.2,343v-39.7"/>
<path class="st2" d="M813.2,303.3h-39.7"/>
<path class="st2" d="M725.5,257.3l8.3,38.8"/>
<path class="st2" d="M733.8,296.1l38.8-8.3"/>
<path class="st2" d="M772.6,287.8l-8.3-38.8"/>
<path class="st2" d="M764.4,249l-38.8,8.3"/>
<path class="st2" d="M940.8,360.4v39.7"/>
<path class="st2" d="M940.8,400.1h39.7"/>
<path class="st2" d="M980.5,400.1v-39.7"/>
<path class="st2" d="M980.5,360.4h-39.7"/>
<path class="st2" d="M949,306.4v39.7"/>
<path class="st2" d="M949,346.1h39.7"/>
<path class="st2" d="M988.7,346.1v-39.7"/>
<path class="st2" d="M988.7,306.4H949"/>
<path class="st2" d="M256.4,414.4v39.7"/>
<path class="st2" d="M256.4,454.1h39.7"/>
<path class="st2" d="M296.1,454.1v-39.7"/>
<path class="st2" d="M296.1,414.4h-39.7"/>
<path class="st2" d="M551.9,349.4l8.3,38.8"/>
<path class="st2" d="M560.1,388.2l38.8-8.3"/>
<path class="st2" d="M599,379.9l-8.3-38.8"/>
<path class="st2" d="M590.7,341.1l-38.8,8.3"/>
<path class="st2" d="M319.1,417.6l-8.3,38.8"/>
<path class="st2" d="M310.8,456.5l38.8,8.3"/>
<path class="st2" d="M349.6,464.7l8.3-38.8"/>
<path class="st2" d="M357.9,425.9l-38.8-8.3"/>
<path class="st2" d="M197.4,468.4v39.7"/>
<path class="st2" d="M197.4,508.1h39.7"/>
<path class="st2" d="M237.1,508.1v-39.7"/>
<path class="st2" d="M237.1,468.4h-39.7"/>
<path class="st2" d="M301.9,303.6l-8.3,38.8"/>
<path class="st2" d="M293.7,342.4l38.8,8.3"/>
<path class="st2" d="M332.5,350.6l8.3-38.8"/>
<path class="st2" d="M340.7,311.8l-38.8-8.3"/>
<path class="st2" d="M424.7,440.1l-8.3,38.8"/>
<path class="st2" d="M416.4,478.9l38.8,8.3"/>
<path class="st2" d="M455.3,487.2l8.3-38.8"/>
<path class="st2" d="M463.5,448.4l-38.8-8.3"/>
<path class="st2" d="M997.4,425.4v39.7"/>
<path class="st2" d="M997.4,465.1h39.7"/>
<path class="st2" d="M1037.1,465.1v-39.7"/>
<path class="st2" d="M1037.1,425.4h-39.7"/>
<path class="st2" d="M604.7,338.1L613,377"/>
<path class="st2" d="M613,377l38.8-8.3"/>
<path class="st2" d="M651.8,368.7l-8.3-38.8"/>
<path class="st2" d="M643.5,329.9l-38.8,8.3"/>
<path class="st2" d="M171.8,306.4v39.7"/>
<path class="st2" d="M171.8,346.1h39.7"/>
<path class="st2" d="M211.4,346.1v-39.7"/>
<path class="st2" d="M211.4,306.4h-39.7"/>
<path class="st2" d="M460.4,337.3l-8.3,38.8"/>
<path class="st2" d="M452.1,376.1l38.8,8.3"/>
<path class="st2" d="M490.9,384.3l8.3-38.8"/>
<path class="st2" d="M499.2,345.5l-38.8-8.3"/>
<path class="st2" d="M837.9,414.4v39.7"/>
<path class="st2" d="M837.9,454.1h39.7"/>
<path class="st2" d="M877.6,454.1v-39.7"/>
<path class="st2" d="M877.6,414.4h-39.7"/>
<path class="st2" d="M799.1,360.4v39.7"/>
<path class="st2" d="M799.1,400.1h39.7"/>
<path class="st2" d="M838.8,400.1v-39.7"/>
<path class="st2" d="M838.8,360.4h-39.7"/>
<path class="st2" d="M303.9,359.2l-8.3,38.8"/>
<path class="st2" d="M295.6,398l38.8,8.3"/>
<path class="st2" d="M334.5,406.3l8.3-38.8"/>
<path class="st2" d="M342.7,367.5l-38.8-8.3"/>
<path class="st2" d="M618.6,500.8l8.3,38.8"/>
<path class="st2" d="M626.8,539.6l38.8-8.3"/>
<path class="st2" d="M665.6,531.4l-8.3-38.8"/>
<path class="st2" d="M657.4,492.6l-38.8,8.3"/>
<path class="st2" d="M912.2,414.4v39.7"/>
<path class="st2" d="M912.2,454.1h39.7"/>
<path class="st2" d="M951.8,454.1v-39.7"/>
<path class="st2" d="M951.8,414.4h-39.7"/>
<path class="st2" d="M1051.4,479.4v39.7"/>
<path class="st2" d="M1051.4,519.1h39.7"/>
<path class="st2" d="M1091.1,519.1v-39.7"/>
<path class="st2" d="M1091.1,479.4h-39.7"/>
<path class="st2" d="M731.6,480.6l8.3,38.8"/>
<path class="st2" d="M739.8,519.4l38.8-8.3"/>
<path class="st2" d="M778.7,511.1l-8.3-38.8"/>
<path class="st2" d="M770.4,472.3l-38.8,8.3"/>
<path class="st2" d="M407.5,326l-8.3,38.8"/>
<path class="st2" d="M399.3,364.8l38.8,8.3"/>
<path class="st2" d="M438.1,373.1l8.3-38.8"/>
<path class="st2" d="M446.4,334.3l-38.8-8.3"/>
<path class="st2" d="M239.2,306.4v39.7"/>
<path class="st2" d="M239.2,346.1h39.7"/>
<path class="st2" d="M278.9,346.1v-39.7"/>
<path class="st2" d="M278.9,306.4h-39.7"/>
<path class="st2" d="M783.9,414.4v39.7"/>
<path class="st2" d="M783.9,454.1h39.7"/>
<path class="st2" d="M823.6,454.1v-39.7"/>
<path class="st2" d="M823.6,414.4h-39.7"/>
<path class="st2" d="M842.7,252.4v39.7"/>
<path class="st2" d="M842.7,292.1h39.7"/>
<path class="st2" d="M882.3,292.1v-39.7"/>
<path class="st2" d="M882.3,252.4h-39.7"/>
<path class="st2" d="M710.3,315.7l8.3,38.8"/>
<path class="st2" d="M718.6,354.5l38.8-8.3"/>
<path class="st2" d="M757.4,346.2l-8.3-38.8"/>
<path class="st2" d="M749.2,307.4l-38.8,8.3"/>
<path class="st2" d="M613.9,446.6l8.3,38.8"/>
<path class="st2" d="M622.2,485.4l38.8-8.3"/>
<path class="st2" d="M661,477.2l-8.3-38.8"/>
<path class="st2" d="M652.8,438.3l-38.8,8.3"/>
<path class="st2" d="M1051.4,360.4v39.7"/>
<path class="st2" d="M1051.4,400.1h39.7"/>
<path class="st2" d="M1091.1,400.1v-39.7"/>
<path class="st2" d="M1091.1,360.4h-39.7"/>
<path class="st2" d="M666.7,435.3l8.3,38.8"/>
<path class="st2" d="M675,474.1l38.8-8.3"/>
<path class="st2" d="M713.8,465.9l-8.3-38.8"/>
<path class="st2" d="M705.6,427l-38.8,8.3"/>
<path class="st2" d="M1039.3,306.1v39.7"/>
<path class="st2" d="M1039.3,345.8h39.7"/>
<path class="st2" d="M1078.9,345.8v-39.7"/>
<path class="st2" d="M1078.9,306.1h-39.7"/>
<path class="st2" d="M1029.3,252v39.7"/>
<path class="st2" d="M1029.3,291.7h39.7"/>
<path class="st2" d="M1068.9,291.7V252"/>
<path class="st2" d="M1068.9,252h-39.7"/>
<path class="st2" d="M990,185.9v39.7"/>
<path class="st2" d="M990,225.6h39.7"/>
<path class="st2" d="M1029.7,225.6v-39.7"/>
<path class="st2" d="M1029.7,185.9H990"/>
<path class="st2" d="M406.1,491.4l-8.3,38.8"/>
<path class="st2" d="M397.9,530.2l38.8,8.3"/>
<path class="st2" d="M436.7,538.4l8.3-38.8"/>
<path class="st2" d="M445,499.6l-38.8-8.3"/>
<path class="st2" d="M943.4,479.4v39.7"/>
<path class="st2" d="M943.4,519.1h39.7"/>
<path class="st2" d="M983.1,519.1v-39.7"/>
<path class="st2" d="M983.1,479.4h-39.7"/>
<path class="st2" d="M129.9,468.4v39.7"/>
<path class="st2" d="M129.9,508.1h39.7"/>
<path class="st2" d="M169.6,508.1v-39.7"/>
<path class="st2" d="M169.6,468.4h-39.7"/>
<path class="st2" d="M732.1,366.3l8.3,38.8"/>
<path class="st2" d="M740.4,405.1l38.8-8.3"/>
<path class="st2" d="M779.2,396.8L771,358"/>
<path class="st2" d="M771,358l-38.8,8.3"/>
<path class="st2" d="M679.3,377.5l8.3,38.8"/>
<path class="st2" d="M687.6,416.3l38.8-8.3"/>
<path class="st2" d="M726.4,408.1l-8.3-38.8"/>
<path class="st2" d="M718.1,369.2l-38.8,8.3"/>
<path class="st2" d="M626.5,388.7l8.3,38.8"/>
<path class="st2" d="M634.8,427.5l38.8-8.3"/>
<path class="st2" d="M673.6,419.3l-8.3-38.8"/>
<path class="st2" d="M665.3,380.5l-38.8,8.3"/>
<path class="st2" d="M657.5,326.9l8.3,38.8"/>
<path class="st2" d="M665.8,365.7l38.8-8.3"/>
<path class="st2" d="M704.6,357.5l-8.3-38.8"/>
<path class="st2" d="M696.3,318.7l-38.8,8.3"/>
<path class="st2" d="M573.7,399.9l8.3,38.8"/>
<path class="st2" d="M581.9,438.8l38.8-8.3"/>
<path class="st2" d="M620.8,430.5l-8.3-38.8"/>
<path class="st2" d="M612.5,391.7l-38.8,8.3"/>
<path class="st2" d="M462.3,392.9l-8.3,38.8"/>
<path class="st2" d="M454.1,431.7l38.8,8.3"/>
<path class="st2" d="M492.9,440l8.3-38.8"/>
<path class="st2" d="M501.2,401.2l-38.8-8.3"/>
<path class="st2" d="M492.1,509.6l-8.3,38.8"/>
<path class="st2" d="M483.8,548.4l38.8,8.3"/>
<path class="st2" d="M522.6,556.7l8.3-38.8"/>
<path class="st2" d="M530.9,517.9l-38.8-8.3"/>
<path class="st2" d="M409.5,381.7l-8.3,38.8"/>
<path class="st2" d="M401.3,420.5l38.8,8.3"/>
<path class="st2" d="M440.1,428.7l8.3-38.8"/>
<path class="st2" d="M448.4,389.9l-38.8-8.3"/>
<path class="st2" d="M902.1,185.9v39.7"/>
<path class="st2" d="M902.1,225.6h39.7"/>
<path class="st2" d="M941.8,225.6v-39.7"/>
<path class="st2" d="M941.8,185.9h-39.7"/>
<path class="st2" d="M848.1,185.9v39.7"/>
<path class="st2" d="M848.1,225.6h39.7"/>
<path class="st2" d="M887.8,225.6v-39.7"/>
<path class="st2" d="M887.8,185.9h-39.7"/>
<path class="st2" d="M794.1,185.9v39.7"/>
<path class="st2" d="M794.1,225.6h39.7"/>
<path class="st2" d="M833.8,225.6v-39.7"/>
<path class="st2" d="M833.8,185.9h-39.7"/>
<path class="st2" d="M740.1,185.9v39.7"/>
<path class="st2" d="M740.1,225.6h39.7"/>
<path class="st2" d="M779.8,225.6v-39.7"/>
<path class="st2" d="M779.8,185.9h-39.7"/>
<path class="st2" d="M631.9,208.6l8.3,38.8"/>
<path class="st2" d="M640.2,247.4l38.8-8.3"/>
<path class="st2" d="M679,239.2l-8.3-38.8"/>
<path class="st2" d="M670.8,200.3l-38.8,8.3"/>
<path class="st2" d="M617.9,211.6l-38.8,8.3"/>
<path class="st2" d="M626.2,250.4l-8.3-38.8"/>
<path class="st2" d="M587.4,258.6l38.8-8.3"/>
<path class="st2" d="M579.1,219.8l8.3,38.8"/>
<path class="st2" d="M525,219.8l-38.8-8.3"/>
<path class="st2" d="M516.7,258.6l8.3-38.8"/>
<path class="st2" d="M477.9,250.4l38.8,8.3"/>
<path class="st2" d="M486.1,211.6l-8.3,38.8"/>
<path class="st2" d="M472.1,208.6l-38.8-8.3"/>
<path class="st2" d="M463.9,247.4l8.3-38.8"/>
<path class="st2" d="M425.1,239.1l38.8,8.3"/>
<path class="st2" d="M433.3,200.3l-8.3,38.8"/>
<path class="st2" d="M381.9,185.9h-39.7"/>
<path class="st2" d="M381.9,225.6v-39.7"/>
<path class="st2" d="M342.2,225.6h39.7"/>
<path class="st2" d="M342.2,185.9v39.7"/>
<path class="st2" d="M327.9,185.9h-39.7"/>
<path class="st2" d="M327.9,225.6v-39.7"/>
<path class="st2" d="M288.2,225.6h39.7"/>
<path class="st2" d="M288.2,185.9v39.7"/>
<path class="st2" d="M274,185.9h-39.7"/>
<path class="st2" d="M274,225.6v-39.7"/>
<path class="st2" d="M234.3,225.6H274"/>
<path class="st2" d="M234.3,185.9v39.7"/>
<path class="st2" d="M220,185.9h-39.7"/>
<path class="st2" d="M220,225.6v-39.7"/>
<path class="st2" d="M180.3,225.6H220"/>
<path class="st2" d="M180.3,185.9v39.7"/>
<path class="st2" d="M209.7,252.4h-39.7"/>
<path class="st2" d="M209.7,292.1v-39.7"/>
<path class="st2" d="M170.1,292.1h39.7"/>
<path class="st2" d="M170.1,252.4v39.7"/>
<path class="st2" d="M393.5,323.1l-38.8-8.3"/>
<path class="st2" d="M385.3,361.9l8.3-38.8"/>
<path class="st2" d="M346.5,353.6l38.8,8.3"/>
<path class="st2" d="M354.7,314.8l-8.3,38.8"/>
<path class="st2" d="M1037.1,479.4h-39.7"/>
<path class="st2" d="M1037.1,519.1v-39.7"/>
<path class="st2" d="M997.4,519.1h39.7"/>
<path class="st2" d="M997.4,479.4v39.7"/>
<path class="st2" d="M828.3,246.3h-39.7"/>
<path class="st2" d="M828.3,286v-39.7"/>
<path class="st2" d="M788.6,286h39.7"/>
<path class="st2" d="M788.6,246.3V286"/>
<path class="st2" d="M395.5,378.7l-38.8-8.3"/>
<path class="st2" d="M387.3,417.5l8.3-38.8"/>
<path class="st2" d="M348.5,409.3l38.8,8.3"/>
<path class="st2" d="M356.7,370.4l-8.3,38.8"/>
<path class="st2" d="M206.7,360.4H167"/>
<path class="st2" d="M206.7,400.1v-39.7"/>
<path class="st2" d="M167,400.1h39.7"/>
<path class="st2" d="M167,360.4v39.7"/>
<path class="st2" d="M758.4,415.8l-38.8,8.3"/>
<path class="st2" d="M766.6,454.6l-8.3-38.8"/>
<path class="st2" d="M727.8,462.9l38.8-8.3"/>
<path class="st2" d="M719.6,424.1l8.2,38.8"/>
<path class="st2" d="M410.7,437.1l-38.8-8.3"/>
<path class="st2" d="M402.4,475.9l8.3-38.8"/>
<path class="st2" d="M363.6,467.7l38.8,8.3"/>
<path class="st2" d="M371.9,428.9l-8.3,38.8"/>
<path class="st2" d="M599.9,449.6l-38.8,8.3"/>
<path class="st2" d="M608.2,488.4l-8.3-38.8"/>
<path class="st2" d="M569.4,496.6l38.8-8.3"/>
<path class="st2" d="M561.1,457.8l8.3,38.8"/>
<path class="st2" d="M516.3,459.6l-38.8-8.3"/>
<path class="st2" d="M508.1,498.4l8.3-38.8"/>
<path class="st2" d="M469.3,490.1l38.8,8.3"/>
<path class="st2" d="M477.5,451.3l-8.3,38.8"/>
<path class="st2" d="M892.8,360.4h-39.7"/>
<path class="st2" d="M892.8,400.1v-39.7"/>
<path class="st2" d="M853.1,400.1h39.7"/>
<path class="st2" d="M853.1,360.4v39.7"/>
<path class="st2" d="M280.9,360.4h-39.7"/>
<path class="st2" d="M280.9,400.1v-39.7"/>
<path class="st2" d="M241.2,400.1h39.7"/>
<path class="st2" d="M241.2,360.4v39.7"/>
<path class="st2" d="M921.2,306.4h-39.7"/>
<path class="st2" d="M921.2,346.1v-39.7"/>
<path class="st2" d="M881.5,346.1h39.7"/>
<path class="st2" d="M881.5,306.4v39.7"/>
<path class="st2" d="M867.2,306.4h-39.7"/>
<path class="st2" d="M867.2,346.1v-39.7"/>
<path class="st2" d="M827.5,346.1h39.7"/>
<path class="st2" d="M827.5,306.4v39.7"/>
<path class="st2" d="M711.5,260.2l-38.8,8.3"/>
<path class="st2" d="M719.8,299.1l-8.3-38.8"/>
<path class="st2" d="M681,307.3l38.8-8.3"/>
<path class="st2" d="M672.7,268.5l8.3,38.8"/>
<path class="st2" d="M658.7,271.5l-38.8,8.3"/>
<path class="st2" d="M667,310.3l-8.3-38.8"/>
<path class="st2" d="M628.1,318.5l38.8-8.3"/>
<path class="st2" d="M619.9,279.7l8.3,38.8"/>
<path class="st2" d="M605.9,282.7l-38.8,8.3"/>
<path class="st2" d="M614.1,321.5l-8.3-38.8"/>
<path class="st2" d="M575.3,329.8l38.8-8.3"/>
<path class="st2" d="M567.1,290.9l8.3,38.8"/>
<path class="st2" d="M536.8,298.3l-38.8-8.3"/>
<path class="st2" d="M528.6,337.1l8.3-38.8"/>
<path class="st2" d="M489.8,328.9l38.8,8.3"/>
<path class="st2" d="M498,290.1l-8.3,38.8"/>
<path class="st2" d="M484,287.1l-38.8-8.3"/>
<path class="st2" d="M475.8,325.9l8.2-38.8"/>
<path class="st2" d="M436.9,317.6l38.8,8.3"/>
<path class="st2" d="M445.2,278.8l-8.3,38.8"/>
<path class="st2" d="M431.2,275.9l-38.8-8.3"/>
<path class="st2" d="M422.9,314.7l8.3-38.8"/>
<path class="st2" d="M384.1,306.4l38.8,8.3"/>
<path class="st2" d="M392.4,267.6l-8.3,38.8"/>
<path class="st2" d="M378.4,264.6l-38.8-8.3"/>
<path class="st2" d="M370.1,303.5l8.3-38.8"/>
<path class="st2" d="M331.3,295.2l38.8,8.3"/>
<path class="st2" d="M339.6,256.4l-8.3,38.8"/>
<path class="st2" d="M317.7,248.1h-39.7"/>
<path class="st2" d="M317.7,287.8v-39.7"/>
<path class="st2" d="M278.1,287.8h39.7"/>
<path class="st2" d="M278.1,248.1v39.7"/>
<path class="st2" d="M263.7,252.4h-39.7"/>
<path class="st2" d="M263.7,292.1v-39.7"/>
<path class="st2" d="M224.1,292.1h39.7"/>
<path class="st2" d="M224.1,252.4v39.7"/>
<rect x="896.9" y="252.6" class="st3" width="92.9" height="39.3"/>
<rect x="967.8" y="248.2" class="st3" width="19.3" height="45.7"/>
<rect x="900.1" y="248.2" class="st3" width="19.3" height="45.7"/>
</svg>
