G04 #@! TF.GenerationSoftware,KiCad,Pcbnew,(5.1.6)-1*
G04 #@! TF.CreationDate,2020-07-26T17:53:41-05:00*
G04 #@! TF.ProjectId,Bonsai Base Plate,426f6e73-6169-4204-9261-736520506c61,rev?*
G04 #@! TF.SameCoordinates,Original*
G04 #@! TF.FileFunction,Legend,Top*
G04 #@! TF.FilePolarity,Positive*
%FSLAX46Y46*%
G04 Gerber Fmt 4.6, Leading zero omitted, Abs format (unit mm)*
G04 Created by KiCad (PCBNEW (5.1.6)-1) date 2020-07-26 17:53:41*
%MOMM*%
%LPD*%
G01*
G04 APERTURE LIST*
%ADD10C,0.150000*%
%ADD11C,2.300000*%
G04 APERTURE END LIST*
G04 #@! TO.C,H12*
D10*
X378371010Y-77404259D02*
X378371010Y-76404259D01*
X378371010Y-76880450D02*
X378942439Y-76880450D01*
X378942439Y-77404259D02*
X378942439Y-76404259D01*
X379942439Y-77404259D02*
X379371010Y-77404259D01*
X379656725Y-77404259D02*
X379656725Y-76404259D01*
X379561486Y-76547117D01*
X379466248Y-76642355D01*
X379371010Y-76689974D01*
X380323391Y-76499498D02*
X380371010Y-76451879D01*
X380466248Y-76404259D01*
X380704344Y-76404259D01*
X380799582Y-76451879D01*
X380847201Y-76499498D01*
X380894820Y-76594736D01*
X380894820Y-76689974D01*
X380847201Y-76832831D01*
X380275772Y-77404259D01*
X380894820Y-77404259D01*
G04 #@! TO.C,H11*
X378371011Y-60404259D02*
X378371011Y-59404259D01*
X378371011Y-59880450D02*
X378942440Y-59880450D01*
X378942440Y-60404259D02*
X378942440Y-59404259D01*
X379942440Y-60404259D02*
X379371011Y-60404259D01*
X379656726Y-60404259D02*
X379656726Y-59404259D01*
X379561487Y-59547117D01*
X379466249Y-59642355D01*
X379371011Y-59689974D01*
X380894821Y-60404259D02*
X380323392Y-60404259D01*
X380609107Y-60404259D02*
X380609107Y-59404259D01*
X380513868Y-59547117D01*
X380418630Y-59642355D01*
X380323392Y-59689974D01*
G04 #@! TO.C,H10*
X184575870Y-58904260D02*
X184575870Y-57904260D01*
X184575870Y-58380451D02*
X185147299Y-58380451D01*
X185147299Y-58904260D02*
X185147299Y-57904260D01*
X186147299Y-58904260D02*
X185575870Y-58904260D01*
X185861585Y-58904260D02*
X185861585Y-57904260D01*
X185766346Y-58047118D01*
X185671108Y-58142356D01*
X185575870Y-58189975D01*
X186766346Y-57904260D02*
X186861585Y-57904260D01*
X186956823Y-57951880D01*
X187004442Y-57999499D01*
X187052061Y-58094737D01*
X187099680Y-58285213D01*
X187099680Y-58523308D01*
X187052061Y-58713784D01*
X187004442Y-58809022D01*
X186956823Y-58856641D01*
X186861585Y-58904260D01*
X186766346Y-58904260D01*
X186671108Y-58856641D01*
X186623489Y-58809022D01*
X186575870Y-58713784D01*
X186528251Y-58523308D01*
X186528251Y-58285213D01*
X186575870Y-58094737D01*
X186623489Y-57999499D01*
X186671108Y-57951880D01*
X186766346Y-57904260D01*
G04 #@! TO.C,H9*
X40847200Y-77404259D02*
X40847200Y-76404259D01*
X40847200Y-76880450D02*
X41418628Y-76880450D01*
X41418628Y-77404259D02*
X41418628Y-76404259D01*
X41942438Y-77404259D02*
X42132914Y-77404259D01*
X42228152Y-77356640D01*
X42275771Y-77309021D01*
X42371009Y-77166164D01*
X42418628Y-76975688D01*
X42418628Y-76594736D01*
X42371009Y-76499498D01*
X42323390Y-76451879D01*
X42228152Y-76404259D01*
X42037676Y-76404259D01*
X41942438Y-76451879D01*
X41894819Y-76499498D01*
X41847200Y-76594736D01*
X41847200Y-76832831D01*
X41894819Y-76928069D01*
X41942438Y-76975688D01*
X42037676Y-77023307D01*
X42228152Y-77023307D01*
X42323390Y-76975688D01*
X42371009Y-76928069D01*
X42418628Y-76832831D01*
G04 #@! TO.C,H8*
X40847202Y-60404259D02*
X40847202Y-59404259D01*
X40847202Y-59880450D02*
X41418630Y-59880450D01*
X41418630Y-60404259D02*
X41418630Y-59404259D01*
X42037678Y-59832831D02*
X41942440Y-59785212D01*
X41894821Y-59737593D01*
X41847202Y-59642355D01*
X41847202Y-59594736D01*
X41894821Y-59499498D01*
X41942440Y-59451879D01*
X42037678Y-59404259D01*
X42228154Y-59404259D01*
X42323392Y-59451879D01*
X42371011Y-59499498D01*
X42418630Y-59594736D01*
X42418630Y-59642355D01*
X42371011Y-59737593D01*
X42323392Y-59785212D01*
X42228154Y-59832831D01*
X42037678Y-59832831D01*
X41942440Y-59880450D01*
X41894821Y-59928069D01*
X41847202Y-60023307D01*
X41847202Y-60213783D01*
X41894821Y-60309021D01*
X41942440Y-60356640D01*
X42037678Y-60404259D01*
X42228154Y-60404259D01*
X42323392Y-60356640D01*
X42371011Y-60309021D01*
X42418630Y-60213783D01*
X42418630Y-60023307D01*
X42371011Y-59928069D01*
X42323392Y-59880450D01*
X42228154Y-59832831D01*
G04 #@! TO.C,H7*
X286588562Y-193404260D02*
X286588562Y-192404260D01*
X286588562Y-192880451D02*
X287159990Y-192880451D01*
X287159990Y-193404260D02*
X287159990Y-192404260D01*
X287540943Y-192404260D02*
X288207609Y-192404260D01*
X287779038Y-193404260D01*
G04 #@! TO.C,H6*
X378847200Y-176895179D02*
X378847200Y-175895179D01*
X378847200Y-176371370D02*
X379418628Y-176371370D01*
X379418628Y-176895179D02*
X379418628Y-175895179D01*
X380323390Y-175895179D02*
X380132914Y-175895179D01*
X380037676Y-175942799D01*
X379990057Y-175990418D01*
X379894819Y-176133275D01*
X379847200Y-176323751D01*
X379847200Y-176704703D01*
X379894819Y-176799941D01*
X379942438Y-176847560D01*
X380037676Y-176895179D01*
X380228152Y-176895179D01*
X380323390Y-176847560D01*
X380371009Y-176799941D01*
X380418628Y-176704703D01*
X380418628Y-176466608D01*
X380371009Y-176371370D01*
X380323390Y-176323751D01*
X380228152Y-176276132D01*
X380037676Y-176276132D01*
X379942438Y-176323751D01*
X379894819Y-176371370D01*
X379847200Y-176466608D01*
G04 #@! TO.C,H5*
X378847203Y-92404259D02*
X378847203Y-91404259D01*
X378847203Y-91880450D02*
X379418631Y-91880450D01*
X379418631Y-92404259D02*
X379418631Y-91404259D01*
X380371012Y-91404259D02*
X379894822Y-91404259D01*
X379847203Y-91880450D01*
X379894822Y-91832831D01*
X379990060Y-91785212D01*
X380228155Y-91785212D01*
X380323393Y-91832831D01*
X380371012Y-91880450D01*
X380418631Y-91975688D01*
X380418631Y-92213783D01*
X380371012Y-92309021D01*
X380323393Y-92356640D01*
X380228155Y-92404259D01*
X379990060Y-92404259D01*
X379894822Y-92356640D01*
X379847203Y-92309021D01*
G04 #@! TO.C,H4*
X190541000Y-211404259D02*
X190541000Y-210404259D01*
X190541000Y-210880450D02*
X191112428Y-210880450D01*
X191112428Y-211404259D02*
X191112428Y-210404259D01*
X192017190Y-210737593D02*
X192017190Y-211404259D01*
X191779095Y-210356640D02*
X191541000Y-211070926D01*
X192160047Y-211070926D01*
G04 #@! TO.C,H3*
X194958061Y-108698719D02*
X194958061Y-107698719D01*
X194958061Y-108174910D02*
X195529489Y-108174910D01*
X195529489Y-108698719D02*
X195529489Y-107698719D01*
X195910442Y-107698719D02*
X196529489Y-107698719D01*
X196196156Y-108079672D01*
X196339013Y-108079672D01*
X196434251Y-108127291D01*
X196481870Y-108174910D01*
X196529489Y-108270148D01*
X196529489Y-108508243D01*
X196481870Y-108603481D01*
X196434251Y-108651100D01*
X196339013Y-108698719D01*
X196053299Y-108698719D01*
X195958061Y-108651100D01*
X195910442Y-108603481D01*
G04 #@! TO.C,H2*
X89614100Y-193404260D02*
X89614100Y-192404260D01*
X89614100Y-192880451D02*
X90185528Y-192880451D01*
X90185528Y-193404260D02*
X90185528Y-192404260D01*
X90614100Y-192499499D02*
X90661719Y-192451880D01*
X90756957Y-192404260D01*
X90995052Y-192404260D01*
X91090290Y-192451880D01*
X91137909Y-192499499D01*
X91185528Y-192594737D01*
X91185528Y-192689975D01*
X91137909Y-192832832D01*
X90566481Y-193404260D01*
X91185528Y-193404260D01*
G04 #@! TO.C,H1*
X40847201Y-92404261D02*
X40847201Y-91404261D01*
X40847201Y-91880452D02*
X41418629Y-91880452D01*
X41418629Y-92404261D02*
X41418629Y-91404261D01*
X42418629Y-92404261D02*
X41847201Y-92404261D01*
X42132915Y-92404261D02*
X42132915Y-91404261D01*
X42037677Y-91547119D01*
X41942439Y-91642357D01*
X41847201Y-91689976D01*
G04 #@! TD*
%LPC*%
D11*
G04 #@! TO.C,H12*
X379609106Y-80151879D03*
G04 #@! TD*
G04 #@! TO.C,H11*
X379609107Y-63151879D03*
G04 #@! TD*
G04 #@! TO.C,H10*
X185813966Y-61651880D03*
G04 #@! TD*
G04 #@! TO.C,H9*
X41609105Y-80151879D03*
G04 #@! TD*
G04 #@! TO.C,H8*
X41609107Y-63151879D03*
G04 #@! TD*
G04 #@! TO.C,H7*
X287350467Y-196151880D03*
G04 #@! TD*
G04 #@! TO.C,H6*
X379609105Y-179642799D03*
G04 #@! TD*
G04 #@! TO.C,H5*
X379609108Y-95151879D03*
G04 #@! TD*
G04 #@! TO.C,H4*
X191302905Y-214151879D03*
G04 #@! TD*
G04 #@! TO.C,H3*
X195719966Y-111446339D03*
G04 #@! TD*
G04 #@! TO.C,H2*
X90376005Y-196151880D03*
G04 #@! TD*
G04 #@! TO.C,H1*
X41609106Y-95151881D03*
G04 #@! TD*
M02*
