G04 #@! TF.GenerationSoftware,KiCad,Pcbnew,(5.1.6)-1*
G04 #@! TF.CreationDate,2020-07-26T17:49:23-05:00*
G04 #@! TF.ProjectId,Bonsai,426f6e73-6169-42e6-9b69-6361645f7063,rev?*
G04 #@! TF.SameCoordinates,Original*
G04 #@! TF.FileFunction,Soldermask,Top*
G04 #@! TF.FilePolarity,Negative*
%FSLAX46Y46*%
G04 Gerber Fmt 4.6, Leading zero omitted, Abs format (unit mm)*
G04 Created by KiCad (PCBNEW (5.1.6)-1) date 2020-07-26 17:49:23*
%MOMM*%
%LPD*%
G01*
G04 APERTURE LIST*
%ADD10C,0.750000*%
%ADD11O,1.000000X2.500000*%
%ADD12O,1.000000X1.800000*%
%ADD13C,2.300000*%
%ADD14R,1.700000X1.700000*%
%ADD15O,1.700000X1.700000*%
%ADD16C,4.087800*%
%ADD17C,1.850000*%
%ADD18C,1.500000*%
%ADD19C,3.148000*%
%ADD20C,0.100000*%
%ADD21C,1.600000*%
%ADD22C,2.100000*%
%ADD23O,1.500000X1.500000*%
%ADD24R,1.800000X1.800000*%
%ADD25C,1.800000*%
%ADD26C,1.700000*%
%ADD27R,1.300000X1.300000*%
%ADD28C,1.300000*%
G04 APERTURE END LIST*
D10*
G04 #@! TO.C,USB1*
X131201796Y-81917569D03*
X132901796Y-81917569D03*
X132051796Y-81917569D03*
X130351796Y-81917569D03*
X129501796Y-81917569D03*
X128651796Y-81917569D03*
X127801796Y-81917569D03*
X126951796Y-81917569D03*
X132901796Y-80592569D03*
X132046796Y-80592569D03*
X131196796Y-80592569D03*
X130346796Y-80592569D03*
X129496796Y-80592569D03*
X128646796Y-80592569D03*
X127796796Y-80592569D03*
X126946796Y-80592569D03*
D11*
X134251796Y-80937569D03*
X125601796Y-80937569D03*
D12*
X134251796Y-77557569D03*
X125601796Y-77557569D03*
G04 #@! TD*
D13*
G04 #@! TO.C,H12*
X369290356Y-95233129D03*
G04 #@! TD*
G04 #@! TO.C,H11*
X369290357Y-78233129D03*
G04 #@! TD*
G04 #@! TO.C,H10*
X175495216Y-76733130D03*
G04 #@! TD*
G04 #@! TO.C,H9*
X31290355Y-95233129D03*
G04 #@! TD*
G04 #@! TO.C,H8*
X31290357Y-78233129D03*
G04 #@! TD*
G04 #@! TO.C,H7*
X277031717Y-211233130D03*
G04 #@! TD*
G04 #@! TO.C,H6*
X369290355Y-194724049D03*
G04 #@! TD*
G04 #@! TO.C,H5*
X369290358Y-110233129D03*
G04 #@! TD*
G04 #@! TO.C,H4*
X180984155Y-229233129D03*
G04 #@! TD*
G04 #@! TO.C,H3*
X185401216Y-126527589D03*
G04 #@! TD*
G04 #@! TO.C,H2*
X80057255Y-211233130D03*
G04 #@! TD*
G04 #@! TO.C,H1*
X31290356Y-110233131D03*
G04 #@! TD*
D14*
G04 #@! TO.C,U1*
X151926186Y-99390349D03*
D15*
X200186186Y-84150349D03*
X154466186Y-99390349D03*
X197646186Y-84150349D03*
X157006186Y-99390349D03*
X195106186Y-84150349D03*
X159546186Y-99390349D03*
X192566186Y-84150349D03*
X162086186Y-99390349D03*
X190026186Y-84150349D03*
X164626186Y-99390349D03*
X187486186Y-84150349D03*
X167166186Y-99390349D03*
X184946186Y-84150349D03*
X169706186Y-99390349D03*
X182406186Y-84150349D03*
X172246186Y-99390349D03*
X179866186Y-84150349D03*
X174786186Y-99390349D03*
X177326186Y-84150349D03*
X177326186Y-99390349D03*
X174786186Y-84150349D03*
X179866186Y-99390349D03*
X172246186Y-84150349D03*
X182406186Y-99390349D03*
X169706186Y-84150349D03*
X184946186Y-99390349D03*
X167166186Y-84150349D03*
X187486186Y-99390349D03*
X164626186Y-84150349D03*
X190026186Y-99390349D03*
X162086186Y-84150349D03*
X192566186Y-99390349D03*
X159546186Y-84150349D03*
X195106186Y-99390349D03*
X157006186Y-84150349D03*
X197646186Y-99390349D03*
X154466186Y-84150349D03*
X200186186Y-99390349D03*
X151926186Y-84150349D03*
G04 #@! TD*
D16*
G04 #@! TO.C,SW_RCTRL1*
X298113347Y-210903969D03*
D17*
X293033347Y-210903969D03*
X303193347Y-210903969D03*
G04 #@! TD*
D18*
G04 #@! TO.C,R4*
X127890166Y-90502888D03*
G36*
G01*
X123032342Y-85645064D02*
X123032342Y-85645064D01*
G75*
G02*
X121971682Y-85645064I-530330J530330D01*
G01*
X121971682Y-85645064D01*
G75*
G02*
X121971682Y-84584404I530330J530330D01*
G01*
X121971682Y-84584404D01*
G75*
G02*
X123032342Y-84584404I530330J-530330D01*
G01*
X123032342Y-84584404D01*
G75*
G02*
X123032342Y-85645064I-530330J-530330D01*
G01*
G37*
G04 #@! TD*
D16*
G04 #@! TO.C,SW_LSPC2*
X132351644Y-219819972D03*
D17*
X127382654Y-218763781D03*
X137320634Y-220876163D03*
D19*
X119253311Y-224176884D03*
X142545451Y-229127782D03*
D16*
X122421885Y-209269915D03*
X145714025Y-214220812D03*
G04 #@! TD*
G04 #@! TO.C,SW_LALT1*
X99551385Y-213667490D03*
D17*
X94582395Y-212611299D03*
X104520375Y-214723681D03*
G04 #@! TD*
D16*
G04 #@! TO.C,SW_FN2*
X162648108Y-226259687D03*
D17*
X157679118Y-225203496D03*
X167617098Y-227315878D03*
G04 #@! TD*
D16*
G04 #@! TO.C,SW_CPLKSTPD1*
X47118167Y-172805288D03*
D17*
X42038167Y-172805288D03*
X52198167Y-172805288D03*
G04 #@! TD*
D16*
G04 #@! TO.C,SW_BKSP12*
X328348166Y-134705291D03*
D17*
X323268166Y-134705291D03*
X333428166Y-134705291D03*
G04 #@! TD*
D16*
G04 #@! TO.C,SW_BKSP11*
X309298165Y-134705289D03*
D17*
X304218165Y-134705289D03*
X314378165Y-134705289D03*
G04 #@! TD*
G04 #@! TO.C,D84*
G36*
G01*
X309313859Y-79304378D02*
X309313859Y-79304378D01*
G75*
G02*
X309313859Y-80506460I-601041J-601041D01*
G01*
X309313859Y-80506460D01*
G75*
G02*
X308111777Y-80506460I-601041J601041D01*
G01*
X308111777Y-80506460D01*
G75*
G02*
X308111777Y-79304378I601041J601041D01*
G01*
X308111777Y-79304378D01*
G75*
G02*
X309313859Y-79304378I601041J-601041D01*
G01*
G37*
D20*
G36*
X312304920Y-75111235D02*
G01*
X313507002Y-76313317D01*
X312304920Y-77515399D01*
X311102838Y-76313317D01*
X312304920Y-75111235D01*
G37*
G04 #@! TD*
D16*
G04 #@! TO.C,SW_P1*
X265837565Y-152674469D03*
D17*
X260757565Y-152674469D03*
X270917565Y-152674469D03*
G04 #@! TD*
D16*
G04 #@! TO.C,SW_10*
X250231708Y-134811990D03*
D17*
X245262718Y-135868181D03*
X255200698Y-133755799D03*
G04 #@! TD*
D16*
G04 #@! TO.C,SW_ENT1*
X324878166Y-172805289D03*
D17*
X319798166Y-172805289D03*
X329958166Y-172805289D03*
D19*
X312971916Y-165820289D03*
X336784416Y-165820289D03*
D16*
X312971916Y-181060289D03*
X336784416Y-181060289D03*
G04 #@! TD*
D21*
G04 #@! TO.C,Y1*
X187653826Y-103624531D03*
X182773826Y-103624531D03*
G04 #@! TD*
D16*
G04 #@! TO.C,SW_|1*
X327758167Y-153755289D03*
D17*
X322678167Y-153755289D03*
X332838167Y-153755289D03*
G04 #@! TD*
D16*
G04 #@! TO.C,SW_Z1*
X83428166Y-191855289D03*
D17*
X78348166Y-191855289D03*
X88508166Y-191855289D03*
G04 #@! TD*
D16*
G04 #@! TO.C,SW_Y1*
X188970570Y-167304141D03*
D17*
X184001580Y-168360332D03*
X193939560Y-166247950D03*
G04 #@! TD*
D16*
G04 #@! TO.C,SW_X1*
X103923085Y-194301749D03*
D17*
X98954095Y-193245558D03*
X108892075Y-195357940D03*
G04 #@! TD*
D16*
G04 #@! TO.C,SW_WIN1*
X62622327Y-210906510D03*
D17*
X57542327Y-210906510D03*
X67702327Y-210906510D03*
G04 #@! TD*
D16*
G04 #@! TO.C,SW_W1*
X97873086Y-154061750D03*
D17*
X92904096Y-153005559D03*
X102842076Y-155117941D03*
G04 #@! TD*
D16*
G04 #@! TO.C,SW_V1*
X141190510Y-202223185D03*
D17*
X136221520Y-201166994D03*
X146159500Y-203279376D03*
G04 #@! TD*
D16*
G04 #@! TO.C,SW_UP1*
X344834106Y-195740169D03*
D17*
X339754106Y-195740169D03*
X349914106Y-195740169D03*
G04 #@! TD*
D16*
G04 #@! TO.C,SW_U1*
X207604281Y-163343425D03*
D17*
X202635291Y-164399616D03*
X212573271Y-162287234D03*
G04 #@! TD*
D16*
G04 #@! TO.C,SW_TAB1*
X53568167Y-153755290D03*
D17*
X48488167Y-153755290D03*
X58648167Y-153755290D03*
G04 #@! TD*
D16*
G04 #@! TO.C,SW_T1*
X153774221Y-165943903D03*
D17*
X148805231Y-164887712D03*
X158743211Y-167000094D03*
G04 #@! TD*
D16*
G04 #@! TO.C,SW_SLSH1*
X288568166Y-191855289D03*
D17*
X283488166Y-191855289D03*
X293648166Y-191855289D03*
G04 #@! TD*
D16*
G04 #@! TO.C,SW_SCLN1*
X274878165Y-172805291D03*
D17*
X269798165Y-172805291D03*
X279958165Y-172805291D03*
G04 #@! TD*
D16*
G04 #@! TO.C,SW_S1*
X98573087Y-173691749D03*
D17*
X93604097Y-172635558D03*
X103542077Y-174747940D03*
G04 #@! TD*
D16*
G04 #@! TO.C,SW_RSPC1*
X212495026Y-220728690D03*
D17*
X207526036Y-221784881D03*
X217464016Y-219672499D03*
D19*
X202301219Y-230036500D03*
X225593359Y-225085602D03*
D16*
X199132645Y-215129530D03*
X222424785Y-210178633D03*
G04 #@! TD*
G04 #@! TO.C,SW_RSHFT1*
X314763167Y-191855288D03*
D17*
X309683167Y-191855288D03*
X319843167Y-191855288D03*
G04 #@! TD*
G04 #@! TO.C,SW_RGHT1*
X368964105Y-214790170D03*
X358804105Y-214790170D03*
D16*
X363884105Y-214790170D03*
G04 #@! TD*
G04 #@! TO.C,SW_RALT1*
X252365407Y-213593831D03*
D17*
X247396417Y-214650022D03*
X257334397Y-212537640D03*
G04 #@! TD*
D16*
G04 #@! TO.C,SW_R1*
X135140507Y-161983184D03*
D17*
X130171517Y-160926993D03*
X140109497Y-163039375D03*
G04 #@! TD*
D16*
G04 #@! TO.C,SW_Q1*
X77378165Y-153755288D03*
D17*
X72298165Y-153755288D03*
X82458165Y-153755288D03*
G04 #@! TD*
D16*
G04 #@! TO.C,SW_PRD1*
X269518165Y-191855289D03*
D17*
X264438165Y-191855289D03*
X274598165Y-191855289D03*
G04 #@! TD*
D16*
G04 #@! TO.C,SW_PLUS1*
X290248167Y-134705290D03*
D17*
X285168167Y-134705290D03*
X295328167Y-134705290D03*
G04 #@! TD*
D16*
G04 #@! TO.C,SW_O1*
X244871706Y-155421989D03*
D17*
X239902716Y-156478180D03*
X249840696Y-154365798D03*
G04 #@! TD*
D16*
G04 #@! TO.C,SW_N1*
X210864281Y-201603425D03*
D17*
X205895291Y-202659616D03*
X215833271Y-200547234D03*
G04 #@! TD*
D16*
G04 #@! TO.C,SW_M4*
X363884105Y-172805290D03*
D17*
X358804105Y-172805290D03*
X368964105Y-172805290D03*
G04 #@! TD*
D16*
G04 #@! TO.C,SW_M5*
X229492913Y-197614766D03*
D17*
X224523923Y-198670957D03*
X234461903Y-196558575D03*
G04 #@! TD*
D16*
G04 #@! TO.C,SW_M3*
X359604206Y-153644750D03*
D17*
X354524206Y-153644750D03*
X364684206Y-153644750D03*
G04 #@! TD*
D16*
G04 #@! TO.C,SW_M2*
X356073605Y-134564269D03*
D17*
X350993605Y-134564269D03*
X361153605Y-134564269D03*
G04 #@! TD*
D16*
G04 #@! TO.C,SW_M1*
X342238227Y-111254689D03*
D17*
X337158227Y-111254689D03*
X347318227Y-111254689D03*
G04 #@! TD*
D16*
G04 #@! TO.C,SW_LSPC1*
X134643088Y-220311749D03*
D17*
X129674098Y-219255558D03*
X139612078Y-221367940D03*
D19*
X121544755Y-224668661D03*
X144836895Y-229619559D03*
D16*
X124713329Y-209761692D03*
X148005469Y-214712589D03*
G04 #@! TD*
G04 #@! TO.C,SW_LSHFT1*
X52478165Y-191855288D03*
D17*
X47398165Y-191855288D03*
X57558165Y-191855288D03*
D19*
X40571915Y-184870288D03*
X64384415Y-184870288D03*
D16*
X40571915Y-200110288D03*
X64384415Y-200110288D03*
G04 #@! TD*
G04 #@! TO.C,SW_LEFT1*
X325784105Y-214790168D03*
D17*
X320704105Y-214790168D03*
X330864105Y-214790168D03*
G04 #@! TD*
D16*
G04 #@! TO.C,SW_LCTRL1*
X38809826Y-210906508D03*
D17*
X33729826Y-210906508D03*
X43889826Y-210906508D03*
G04 #@! TD*
D16*
G04 #@! TO.C,SW_L1*
X252562065Y-173265030D03*
D17*
X247593075Y-174321221D03*
X257531055Y-172208839D03*
G04 #@! TD*
D16*
G04 #@! TO.C,SW_K1*
X233928354Y-177225747D03*
D17*
X228959364Y-178281938D03*
X238897344Y-176169556D03*
G04 #@! TD*
D16*
G04 #@! TO.C,SW_J1*
X215294645Y-181186465D03*
D17*
X210325655Y-182242656D03*
X220263635Y-180130274D03*
G04 #@! TD*
D16*
G04 #@! TO.C,SW_I1*
X226237995Y-159382705D03*
D17*
X221269005Y-160438896D03*
X231206985Y-158326514D03*
G04 #@! TD*
D16*
G04 #@! TO.C,SW_H1*
X196660931Y-185147182D03*
D17*
X191691941Y-186203373D03*
X201629921Y-184090991D03*
G04 #@! TD*
D16*
G04 #@! TO.C,SW_G1*
X154474220Y-185573901D03*
D17*
X149505230Y-184517710D03*
X159443210Y-186630092D03*
G04 #@! TD*
D16*
G04 #@! TO.C,SW_FN1*
X164963086Y-226751748D03*
D17*
X159994096Y-225695557D03*
X169932076Y-227807939D03*
G04 #@! TD*
D16*
G04 #@! TO.C,SW_F13*
X135840509Y-181613184D03*
D17*
X130871519Y-180556993D03*
X140809499Y-182669375D03*
G04 #@! TD*
D16*
G04 #@! TO.C,SW_F12*
X311224826Y-111254689D03*
D17*
X306144826Y-111254689D03*
X316304826Y-111254689D03*
G04 #@! TD*
D16*
G04 #@! TO.C,SW_F11*
X292174825Y-111254689D03*
D17*
X287094825Y-111254689D03*
X297254825Y-111254689D03*
G04 #@! TD*
D16*
G04 #@! TO.C,SW_F10*
X273124827Y-111254689D03*
D17*
X268044827Y-111254689D03*
X278204827Y-111254689D03*
G04 #@! TD*
D16*
G04 #@! TO.C,SW_F9*
X254074827Y-111254689D03*
D17*
X248994827Y-111254689D03*
X259154827Y-111254689D03*
G04 #@! TD*
D16*
G04 #@! TO.C,SW_F8*
X217214348Y-117642790D03*
D17*
X212245358Y-118698981D03*
X222183338Y-116586599D03*
G04 #@! TD*
D16*
G04 #@! TO.C,SW_F7*
X198580906Y-121602648D03*
D17*
X193611916Y-122658839D03*
X203549896Y-120546457D03*
G04 #@! TD*
D16*
G04 #@! TO.C,SW_F6*
X162863427Y-121597571D03*
D17*
X157894437Y-120541380D03*
X167832417Y-122653762D03*
G04 #@! TD*
D16*
G04 #@! TO.C,SW_F5*
X144229987Y-117635171D03*
D17*
X139260997Y-116578980D03*
X149198977Y-118691362D03*
G04 #@! TD*
D16*
G04 #@! TO.C,SW_F4*
X113701725Y-111254689D03*
D17*
X108621725Y-111254689D03*
X118781725Y-111254689D03*
G04 #@! TD*
D16*
G04 #@! TO.C,SW_F3*
X94651726Y-111254689D03*
D17*
X89571726Y-111254689D03*
X99731726Y-111254689D03*
G04 #@! TD*
D16*
G04 #@! TO.C,SW_F2*
X75622045Y-111254691D03*
D17*
X70542045Y-111254691D03*
X80702045Y-111254691D03*
G04 #@! TD*
D16*
G04 #@! TO.C,SW_F1*
X56572047Y-111254690D03*
D17*
X51492047Y-111254690D03*
X61652047Y-111254690D03*
G04 #@! TD*
D16*
G04 #@! TO.C,SW_ESC1*
X52968165Y-134705287D03*
D17*
X47888165Y-134705287D03*
X58048165Y-134705287D03*
G04 #@! TD*
D16*
G04 #@! TO.C,SW_E1*
X116506796Y-158022467D03*
D17*
X111537806Y-156966276D03*
X121475786Y-159078658D03*
G04 #@! TD*
D16*
G04 #@! TO.C,SW_DOWN1*
X344834106Y-214790169D03*
D17*
X339754106Y-214790169D03*
X349914106Y-214790169D03*
G04 #@! TD*
D16*
G04 #@! TO.C,SW_DASH1*
X271191886Y-132547509D03*
D17*
X266111886Y-132547509D03*
X276271886Y-132547509D03*
G04 #@! TD*
D16*
G04 #@! TO.C,SW_D1*
X117206797Y-177652468D03*
D17*
X112237807Y-176596277D03*
X122175787Y-178708659D03*
G04 #@! TD*
D16*
G04 #@! TO.C,SW_CPLK1*
X51880486Y-172805290D03*
D17*
X46800486Y-172805290D03*
X56960486Y-172805290D03*
G04 #@! TD*
D16*
G04 #@! TO.C,SW_COMMA1*
X248126625Y-193654049D03*
D17*
X243157635Y-194710240D03*
X253095615Y-192597858D03*
G04 #@! TD*
D16*
G04 #@! TO.C,SW_C1*
X122556796Y-198262465D03*
D17*
X117587806Y-197206274D03*
X127525786Y-199318656D03*
G04 #@! TD*
D16*
G04 #@! TO.C,SW_BKSP1*
X318823166Y-134705290D03*
D17*
X313743166Y-134705290D03*
X323903166Y-134705290D03*
D19*
X306916916Y-127720290D03*
X330729416Y-127720290D03*
D16*
X306916916Y-142960290D03*
X330729416Y-142960290D03*
G04 #@! TD*
G04 #@! TO.C,SW_B_RIGHT1*
X192230570Y-205564142D03*
D17*
X187261580Y-206620333D03*
X197199560Y-204507951D03*
G04 #@! TD*
D16*
G04 #@! TO.C,SW_B_LEFT1*
X159824220Y-206183902D03*
D17*
X154855230Y-205127711D03*
X164793210Y-207240093D03*
G04 #@! TD*
D16*
G04 #@! TO.C,SW_APST1*
X293928167Y-172805291D03*
D17*
X288848167Y-172805291D03*
X299008167Y-172805291D03*
G04 #@! TD*
D16*
G04 #@! TO.C,SW_A1*
X78078167Y-172805288D03*
D17*
X72998167Y-172805288D03*
X83158167Y-172805288D03*
G04 #@! TD*
D16*
G04 #@! TO.C,SW_]1*
X303938165Y-153755289D03*
D17*
X298858165Y-153755289D03*
X309018165Y-153755289D03*
G04 #@! TD*
D16*
G04 #@! TO.C,SW_[1*
X284888167Y-153755286D03*
D17*
X279808167Y-153755286D03*
X289968167Y-153755286D03*
G04 #@! TD*
D16*
G04 #@! TO.C,SW_9*
X231597996Y-138772707D03*
D17*
X226629006Y-139828898D03*
X236566986Y-137716516D03*
G04 #@! TD*
D16*
G04 #@! TO.C,SW_8*
X212964281Y-142733424D03*
D17*
X207995291Y-143789615D03*
X217933271Y-141677233D03*
G04 #@! TD*
D16*
G04 #@! TO.C,SW_7*
X194330570Y-146694141D03*
D17*
X189361580Y-147750332D03*
X199299560Y-145637950D03*
G04 #@! TD*
D16*
G04 #@! TO.C,SW_6*
X167051887Y-149291188D03*
D17*
X162082897Y-148234997D03*
X172020877Y-150347379D03*
G04 #@! TD*
D16*
G04 #@! TO.C,SW_5*
X148420509Y-145333184D03*
D17*
X143451519Y-144276993D03*
X153389499Y-146389375D03*
G04 #@! TD*
D16*
G04 #@! TO.C,SW_4*
X129786796Y-141372466D03*
D17*
X124817806Y-140316275D03*
X134755786Y-142428657D03*
G04 #@! TD*
D16*
G04 #@! TO.C,SW_3*
X111153087Y-137411749D03*
D17*
X106184097Y-136355558D03*
X116122077Y-138467940D03*
G04 #@! TD*
D16*
G04 #@! TO.C,SW_2*
X91067786Y-133187590D03*
D17*
X85987786Y-133187590D03*
X96147786Y-133187590D03*
G04 #@! TD*
D16*
G04 #@! TO.C,SW_1*
X72018165Y-134705288D03*
D17*
X66938165Y-134705288D03*
X77098165Y-134705288D03*
G04 #@! TD*
D22*
G04 #@! TO.C,RESET1*
X159920975Y-75458471D03*
X159920975Y-79958471D03*
X153420975Y-75458471D03*
X153420975Y-79958471D03*
G04 #@! TD*
D18*
G04 #@! TO.C,R6*
X149022966Y-82578089D03*
D23*
X149022966Y-74958089D03*
G04 #@! TD*
D18*
G04 #@! TO.C,R5*
X122733966Y-90502888D03*
G36*
G01*
X117876142Y-85645064D02*
X117876142Y-85645064D01*
G75*
G02*
X116815482Y-85645064I-530330J530330D01*
G01*
X116815482Y-85645064D01*
G75*
G02*
X116815482Y-84584404I530330J530330D01*
G01*
X116815482Y-84584404D01*
G75*
G02*
X117876142Y-84584404I530330J-530330D01*
G01*
X117876142Y-84584404D01*
G75*
G02*
X117876142Y-85645064I-530330J-530330D01*
G01*
G37*
G04 #@! TD*
G04 #@! TO.C,R3*
X142418966Y-98453089D03*
G36*
G01*
X137561142Y-93595265D02*
X137561142Y-93595265D01*
G75*
G02*
X136500482Y-93595265I-530330J530330D01*
G01*
X136500482Y-93595265D01*
G75*
G02*
X136500482Y-92534605I530330J530330D01*
G01*
X136500482Y-92534605D01*
G75*
G02*
X137561142Y-92534605I530330J-530330D01*
G01*
X137561142Y-92534605D01*
G75*
G02*
X137561142Y-93595265I-530330J-530330D01*
G01*
G37*
G04 #@! TD*
G04 #@! TO.C,R2*
X147244966Y-98453091D03*
G36*
G01*
X142387142Y-93595267D02*
X142387142Y-93595267D01*
G75*
G02*
X141326482Y-93595267I-530330J530330D01*
G01*
X141326482Y-93595267D01*
G75*
G02*
X141326482Y-92534607I530330J530330D01*
G01*
X141326482Y-92534607D01*
G75*
G02*
X142387142Y-92534607I530330J-530330D01*
G01*
X142387142Y-92534607D01*
G75*
G02*
X142387142Y-93595267I-530330J-530330D01*
G01*
G37*
G04 #@! TD*
G04 #@! TO.C,R1*
X135840366Y-98453090D03*
G36*
G01*
X130982542Y-93595266D02*
X130982542Y-93595266D01*
G75*
G02*
X129921882Y-93595266I-530330J530330D01*
G01*
X129921882Y-93595266D01*
G75*
G02*
X129921882Y-92534606I530330J530330D01*
G01*
X129921882Y-92534606D01*
G75*
G02*
X130982542Y-92534606I530330J-530330D01*
G01*
X130982542Y-92534606D01*
G75*
G02*
X130982542Y-93595266I-530330J-530330D01*
G01*
G37*
G04 #@! TD*
D24*
G04 #@! TO.C,J1*
X144969127Y-75534669D03*
D25*
X144969127Y-78074669D03*
X142429127Y-75534669D03*
X142429127Y-78074669D03*
X139889127Y-75534669D03*
X139889127Y-78074669D03*
G04 #@! TD*
D18*
G04 #@! TO.C,F1*
X121766226Y-75923451D03*
X121766226Y-81023451D03*
G04 #@! TD*
G04 #@! TO.C,D83*
G36*
G01*
X133862052Y-89896176D02*
X133862052Y-89896176D01*
G75*
G02*
X135064134Y-89896176I601041J-601041D01*
G01*
X135064134Y-89896176D01*
G75*
G02*
X135064134Y-91098258I-601041J-601041D01*
G01*
X135064134Y-91098258D01*
G75*
G02*
X133862052Y-91098258I-601041J601041D01*
G01*
X133862052Y-91098258D01*
G75*
G02*
X133862052Y-89896176I601041J601041D01*
G01*
G37*
D20*
G36*
X129668909Y-86905115D02*
G01*
X130870991Y-85703033D01*
X132073073Y-86905115D01*
X130870991Y-88107197D01*
X129668909Y-86905115D01*
G37*
G04 #@! TD*
G04 #@! TO.C,D82*
G36*
G01*
X138688052Y-89896177D02*
X138688052Y-89896177D01*
G75*
G02*
X139890134Y-89896177I601041J-601041D01*
G01*
X139890134Y-89896177D01*
G75*
G02*
X139890134Y-91098259I-601041J-601041D01*
G01*
X139890134Y-91098259D01*
G75*
G02*
X138688052Y-91098259I-601041J601041D01*
G01*
X138688052Y-91098259D01*
G75*
G02*
X138688052Y-89896177I601041J601041D01*
G01*
G37*
G36*
X134494909Y-86905116D02*
G01*
X135696991Y-85703034D01*
X136899073Y-86905116D01*
X135696991Y-88107198D01*
X134494909Y-86905116D01*
G37*
G04 #@! TD*
G04 #@! TO.C,D81*
G36*
G01*
X219304939Y-90478477D02*
X219304939Y-90478477D01*
G75*
G02*
X219304939Y-91680559I-601041J-601041D01*
G01*
X219304939Y-91680559D01*
G75*
G02*
X218102857Y-91680559I-601041J601041D01*
G01*
X218102857Y-91680559D01*
G75*
G02*
X218102857Y-90478477I601041J601041D01*
G01*
X218102857Y-90478477D01*
G75*
G02*
X219304939Y-90478477I601041J-601041D01*
G01*
G37*
G36*
X222296000Y-86285334D02*
G01*
X223498082Y-87487416D01*
X222296000Y-88689498D01*
X221093918Y-87487416D01*
X222296000Y-86285334D01*
G37*
G04 #@! TD*
G04 #@! TO.C,D80*
G36*
G01*
X239304940Y-88956376D02*
X239304940Y-88956376D01*
G75*
G02*
X239304940Y-90158458I-601041J-601041D01*
G01*
X239304940Y-90158458D01*
G75*
G02*
X238102858Y-90158458I-601041J601041D01*
G01*
X238102858Y-90158458D01*
G75*
G02*
X238102858Y-88956376I601041J601041D01*
G01*
X238102858Y-88956376D01*
G75*
G02*
X239304940Y-88956376I601041J-601041D01*
G01*
G37*
G36*
X242296001Y-84763233D02*
G01*
X243498083Y-85965315D01*
X242296001Y-87167397D01*
X241093919Y-85965315D01*
X242296001Y-84763233D01*
G37*
G04 #@! TD*
G04 #@! TO.C,D79*
G36*
G01*
X232091338Y-96169977D02*
X232091338Y-96169977D01*
G75*
G02*
X232091338Y-97372059I-601041J-601041D01*
G01*
X232091338Y-97372059D01*
G75*
G02*
X230889256Y-97372059I-601041J601041D01*
G01*
X230889256Y-97372059D01*
G75*
G02*
X230889256Y-96169977I601041J601041D01*
G01*
X230889256Y-96169977D01*
G75*
G02*
X232091338Y-96169977I601041J-601041D01*
G01*
G37*
G36*
X235082399Y-91976834D02*
G01*
X236284481Y-93178916D01*
X235082399Y-94380998D01*
X233880317Y-93178916D01*
X235082399Y-91976834D01*
G37*
G04 #@! TD*
G04 #@! TO.C,D78*
G36*
G01*
X285313860Y-79304375D02*
X285313860Y-79304375D01*
G75*
G02*
X285313860Y-80506457I-601041J-601041D01*
G01*
X285313860Y-80506457D01*
G75*
G02*
X284111778Y-80506457I-601041J601041D01*
G01*
X284111778Y-80506457D01*
G75*
G02*
X284111778Y-79304375I601041J601041D01*
G01*
X284111778Y-79304375D01*
G75*
G02*
X285313860Y-79304375I601041J-601041D01*
G01*
G37*
G36*
X288304921Y-75111232D02*
G01*
X289507003Y-76313314D01*
X288304921Y-77515396D01*
X287102839Y-76313314D01*
X288304921Y-75111232D01*
G37*
G04 #@! TD*
G04 #@! TO.C,D77*
G36*
G01*
X315313859Y-79304378D02*
X315313859Y-79304378D01*
G75*
G02*
X315313859Y-80506460I-601041J-601041D01*
G01*
X315313859Y-80506460D01*
G75*
G02*
X314111777Y-80506460I-601041J601041D01*
G01*
X314111777Y-80506460D01*
G75*
G02*
X314111777Y-79304378I601041J601041D01*
G01*
X314111777Y-79304378D01*
G75*
G02*
X315313859Y-79304378I601041J-601041D01*
G01*
G37*
G36*
X318304920Y-75111235D02*
G01*
X319507002Y-76313317D01*
X318304920Y-77515399D01*
X317102838Y-76313317D01*
X318304920Y-75111235D01*
G37*
G04 #@! TD*
G04 #@! TO.C,D76*
G36*
G01*
X226518539Y-83264876D02*
X226518539Y-83264876D01*
G75*
G02*
X226518539Y-84466958I-601041J-601041D01*
G01*
X226518539Y-84466958D01*
G75*
G02*
X225316457Y-84466958I-601041J601041D01*
G01*
X225316457Y-84466958D01*
G75*
G02*
X225316457Y-83264876I601041J601041D01*
G01*
X225316457Y-83264876D01*
G75*
G02*
X226518539Y-83264876I601041J-601041D01*
G01*
G37*
G36*
X229509600Y-79071733D02*
G01*
X230711682Y-80273815D01*
X229509600Y-81475897D01*
X228307518Y-80273815D01*
X229509600Y-79071733D01*
G37*
G04 #@! TD*
G04 #@! TO.C,D75*
G36*
G01*
X246518539Y-81742776D02*
X246518539Y-81742776D01*
G75*
G02*
X246518539Y-82944858I-601041J-601041D01*
G01*
X246518539Y-82944858D01*
G75*
G02*
X245316457Y-82944858I-601041J601041D01*
G01*
X245316457Y-82944858D01*
G75*
G02*
X245316457Y-81742776I601041J601041D01*
G01*
X245316457Y-81742776D01*
G75*
G02*
X246518539Y-81742776I601041J-601041D01*
G01*
G37*
G36*
X249509600Y-77549633D02*
G01*
X250711682Y-78751715D01*
X249509600Y-79953797D01*
X248307518Y-78751715D01*
X249509600Y-77549633D01*
G37*
G04 #@! TD*
G04 #@! TO.C,D74*
G36*
G01*
X264886660Y-93731576D02*
X264886660Y-93731576D01*
G75*
G02*
X264886660Y-94933658I-601041J-601041D01*
G01*
X264886660Y-94933658D01*
G75*
G02*
X263684578Y-94933658I-601041J601041D01*
G01*
X263684578Y-94933658D01*
G75*
G02*
X263684578Y-93731576I601041J601041D01*
G01*
X263684578Y-93731576D01*
G75*
G02*
X264886660Y-93731576I601041J-601041D01*
G01*
G37*
G36*
X267877721Y-89538433D02*
G01*
X269079803Y-90740515D01*
X267877721Y-91942597D01*
X266675639Y-90740515D01*
X267877721Y-89538433D01*
G37*
G04 #@! TD*
G04 #@! TO.C,D73*
G36*
G01*
X290100258Y-86517977D02*
X290100258Y-86517977D01*
G75*
G02*
X290100258Y-87720059I-601041J-601041D01*
G01*
X290100258Y-87720059D01*
G75*
G02*
X288898176Y-87720059I-601041J601041D01*
G01*
X288898176Y-87720059D01*
G75*
G02*
X288898176Y-86517977I601041J601041D01*
G01*
X288898176Y-86517977D01*
G75*
G02*
X290100258Y-86517977I601041J-601041D01*
G01*
G37*
G36*
X293091319Y-82324834D02*
G01*
X294293401Y-83526916D01*
X293091319Y-84728998D01*
X291889237Y-83526916D01*
X293091319Y-82324834D01*
G37*
G04 #@! TD*
G04 #@! TO.C,D72*
G36*
G01*
X206091339Y-97692076D02*
X206091339Y-97692076D01*
G75*
G02*
X206091339Y-98894158I-601041J-601041D01*
G01*
X206091339Y-98894158D01*
G75*
G02*
X204889257Y-98894158I-601041J601041D01*
G01*
X204889257Y-98894158D01*
G75*
G02*
X204889257Y-97692076I601041J601041D01*
G01*
X204889257Y-97692076D01*
G75*
G02*
X206091339Y-97692076I601041J-601041D01*
G01*
G37*
G36*
X209082400Y-93498933D02*
G01*
X210284482Y-94701015D01*
X209082400Y-95903097D01*
X207880318Y-94701015D01*
X209082400Y-93498933D01*
G37*
G04 #@! TD*
G04 #@! TO.C,D71*
G36*
G01*
X226091340Y-96169977D02*
X226091340Y-96169977D01*
G75*
G02*
X226091340Y-97372059I-601041J-601041D01*
G01*
X226091340Y-97372059D01*
G75*
G02*
X224889258Y-97372059I-601041J601041D01*
G01*
X224889258Y-97372059D01*
G75*
G02*
X224889258Y-96169977I601041J601041D01*
G01*
X224889258Y-96169977D01*
G75*
G02*
X226091340Y-96169977I601041J-601041D01*
G01*
G37*
G36*
X229082401Y-91976834D02*
G01*
X230284483Y-93178916D01*
X229082401Y-94380998D01*
X227880319Y-93178916D01*
X229082401Y-91976834D01*
G37*
G04 #@! TD*
G04 #@! TO.C,D70*
G36*
X258304920Y-75111233D02*
G01*
X259507002Y-76313315D01*
X258304920Y-77515397D01*
X257102838Y-76313315D01*
X258304920Y-75111233D01*
G37*
G36*
G01*
X255313859Y-79304376D02*
X255313859Y-79304376D01*
G75*
G02*
X255313859Y-80506458I-601041J-601041D01*
G01*
X255313859Y-80506458D01*
G75*
G02*
X254111777Y-80506458I-601041J601041D01*
G01*
X254111777Y-80506458D01*
G75*
G02*
X254111777Y-79304376I601041J601041D01*
G01*
X254111777Y-79304376D01*
G75*
G02*
X255313859Y-79304376I601041J-601041D01*
G01*
G37*
G04 #@! TD*
G04 #@! TO.C,D69*
G36*
G01*
X272100261Y-86517978D02*
X272100261Y-86517978D01*
G75*
G02*
X272100261Y-87720060I-601041J-601041D01*
G01*
X272100261Y-87720060D01*
G75*
G02*
X270898179Y-87720060I-601041J601041D01*
G01*
X270898179Y-87720060D01*
G75*
G02*
X270898179Y-86517978I601041J601041D01*
G01*
X270898179Y-86517978D01*
G75*
G02*
X272100261Y-86517978I601041J-601041D01*
G01*
G37*
G36*
X275091322Y-82324835D02*
G01*
X276293404Y-83526917D01*
X275091322Y-84728999D01*
X273889240Y-83526917D01*
X275091322Y-82324835D01*
G37*
G04 #@! TD*
G04 #@! TO.C,D68*
G36*
G01*
X297313858Y-79304376D02*
X297313858Y-79304376D01*
G75*
G02*
X297313858Y-80506458I-601041J-601041D01*
G01*
X297313858Y-80506458D01*
G75*
G02*
X296111776Y-80506458I-601041J601041D01*
G01*
X296111776Y-80506458D01*
G75*
G02*
X296111776Y-79304376I601041J601041D01*
G01*
X296111776Y-79304376D01*
G75*
G02*
X297313858Y-79304376I601041J-601041D01*
G01*
G37*
G36*
X300304919Y-75111233D02*
G01*
X301507001Y-76313315D01*
X300304919Y-77515397D01*
X299102837Y-76313315D01*
X300304919Y-75111233D01*
G37*
G04 #@! TD*
G04 #@! TO.C,D67*
G36*
G01*
X302100258Y-86517975D02*
X302100258Y-86517975D01*
G75*
G02*
X302100258Y-87720057I-601041J-601041D01*
G01*
X302100258Y-87720057D01*
G75*
G02*
X300898176Y-87720057I-601041J601041D01*
G01*
X300898176Y-87720057D01*
G75*
G02*
X300898176Y-86517975I601041J601041D01*
G01*
X300898176Y-86517975D01*
G75*
G02*
X302100258Y-86517975I601041J-601041D01*
G01*
G37*
G36*
X305091319Y-82324832D02*
G01*
X306293401Y-83526914D01*
X305091319Y-84728996D01*
X303889237Y-83526914D01*
X305091319Y-82324832D01*
G37*
G04 #@! TD*
G04 #@! TO.C,D66*
G36*
G01*
X213304940Y-90478475D02*
X213304940Y-90478475D01*
G75*
G02*
X213304940Y-91680557I-601041J-601041D01*
G01*
X213304940Y-91680557D01*
G75*
G02*
X212102858Y-91680557I-601041J601041D01*
G01*
X212102858Y-91680557D01*
G75*
G02*
X212102858Y-90478475I601041J601041D01*
G01*
X212102858Y-90478475D01*
G75*
G02*
X213304940Y-90478475I601041J-601041D01*
G01*
G37*
G36*
X216296001Y-86285332D02*
G01*
X217498083Y-87487414D01*
X216296001Y-88689496D01*
X215093919Y-87487414D01*
X216296001Y-86285332D01*
G37*
G04 #@! TD*
G04 #@! TO.C,D65*
G36*
G01*
X233304938Y-88956376D02*
X233304938Y-88956376D01*
G75*
G02*
X233304938Y-90158458I-601041J-601041D01*
G01*
X233304938Y-90158458D01*
G75*
G02*
X232102856Y-90158458I-601041J601041D01*
G01*
X232102856Y-90158458D01*
G75*
G02*
X232102856Y-88956376I601041J601041D01*
G01*
X232102856Y-88956376D01*
G75*
G02*
X233304938Y-88956376I601041J-601041D01*
G01*
G37*
G36*
X236295999Y-84763233D02*
G01*
X237498081Y-85965315D01*
X236295999Y-87167397D01*
X235093917Y-85965315D01*
X236295999Y-84763233D01*
G37*
G04 #@! TD*
G04 #@! TO.C,D64*
G36*
G01*
X248100259Y-86517976D02*
X248100259Y-86517976D01*
G75*
G02*
X248100259Y-87720058I-601041J-601041D01*
G01*
X248100259Y-87720058D01*
G75*
G02*
X246898177Y-87720058I-601041J601041D01*
G01*
X246898177Y-87720058D01*
G75*
G02*
X246898177Y-86517976I601041J601041D01*
G01*
X246898177Y-86517976D01*
G75*
G02*
X248100259Y-86517976I601041J-601041D01*
G01*
G37*
G36*
X251091320Y-82324833D02*
G01*
X252293402Y-83526915D01*
X251091320Y-84728997D01*
X249889238Y-83526915D01*
X251091320Y-82324833D01*
G37*
G04 #@! TD*
G04 #@! TO.C,D63*
G36*
G01*
X279313859Y-79304376D02*
X279313859Y-79304376D01*
G75*
G02*
X279313859Y-80506458I-601041J-601041D01*
G01*
X279313859Y-80506458D01*
G75*
G02*
X278111777Y-80506458I-601041J601041D01*
G01*
X278111777Y-80506458D01*
G75*
G02*
X278111777Y-79304376I601041J601041D01*
G01*
X278111777Y-79304376D01*
G75*
G02*
X279313859Y-79304376I601041J-601041D01*
G01*
G37*
G36*
X282304920Y-75111233D02*
G01*
X283507002Y-76313315D01*
X282304920Y-77515397D01*
X281102838Y-76313315D01*
X282304920Y-75111233D01*
G37*
G04 #@! TD*
G04 #@! TO.C,D62*
G36*
G01*
X276886660Y-93731579D02*
X276886660Y-93731579D01*
G75*
G02*
X276886660Y-94933661I-601041J-601041D01*
G01*
X276886660Y-94933661D01*
G75*
G02*
X275684578Y-94933661I-601041J601041D01*
G01*
X275684578Y-94933661D01*
G75*
G02*
X275684578Y-93731579I601041J601041D01*
G01*
X275684578Y-93731579D01*
G75*
G02*
X276886660Y-93731579I601041J-601041D01*
G01*
G37*
G36*
X279877721Y-89538436D02*
G01*
X281079803Y-90740518D01*
X279877721Y-91942600D01*
X278675639Y-90740518D01*
X279877721Y-89538436D01*
G37*
G04 #@! TD*
G04 #@! TO.C,D61*
G36*
G01*
X294886661Y-93731576D02*
X294886661Y-93731576D01*
G75*
G02*
X294886661Y-94933658I-601041J-601041D01*
G01*
X294886661Y-94933658D01*
G75*
G02*
X293684579Y-94933658I-601041J601041D01*
G01*
X293684579Y-94933658D01*
G75*
G02*
X293684579Y-93731576I601041J601041D01*
G01*
X293684579Y-93731576D01*
G75*
G02*
X294886661Y-93731576I601041J-601041D01*
G01*
G37*
G36*
X297877722Y-89538433D02*
G01*
X299079804Y-90740515D01*
X297877722Y-91942597D01*
X296675640Y-90740515D01*
X297877722Y-89538433D01*
G37*
G04 #@! TD*
G04 #@! TO.C,D60*
G36*
G01*
X240518538Y-81742776D02*
X240518538Y-81742776D01*
G75*
G02*
X240518538Y-82944858I-601041J-601041D01*
G01*
X240518538Y-82944858D01*
G75*
G02*
X239316456Y-82944858I-601041J601041D01*
G01*
X239316456Y-82944858D01*
G75*
G02*
X239316456Y-81742776I601041J601041D01*
G01*
X239316456Y-81742776D01*
G75*
G02*
X240518538Y-81742776I601041J-601041D01*
G01*
G37*
G36*
X243509599Y-77549633D02*
G01*
X244711681Y-78751715D01*
X243509599Y-79953797D01*
X242307517Y-78751715D01*
X243509599Y-77549633D01*
G37*
G04 #@! TD*
G04 #@! TO.C,D59*
G36*
G01*
X240886659Y-93731577D02*
X240886659Y-93731577D01*
G75*
G02*
X240886659Y-94933659I-601041J-601041D01*
G01*
X240886659Y-94933659D01*
G75*
G02*
X239684577Y-94933659I-601041J601041D01*
G01*
X239684577Y-94933659D01*
G75*
G02*
X239684577Y-93731577I601041J601041D01*
G01*
X239684577Y-93731577D01*
G75*
G02*
X240886659Y-93731577I601041J-601041D01*
G01*
G37*
G36*
X243877720Y-89538434D02*
G01*
X245079802Y-90740516D01*
X243877720Y-91942598D01*
X242675638Y-90740516D01*
X243877720Y-89538434D01*
G37*
G04 #@! TD*
G04 #@! TO.C,D58*
G36*
G01*
X258886658Y-93731576D02*
X258886658Y-93731576D01*
G75*
G02*
X258886658Y-94933658I-601041J-601041D01*
G01*
X258886658Y-94933658D01*
G75*
G02*
X257684576Y-94933658I-601041J601041D01*
G01*
X257684576Y-94933658D01*
G75*
G02*
X257684576Y-93731576I601041J601041D01*
G01*
X257684576Y-93731576D01*
G75*
G02*
X258886658Y-93731576I601041J-601041D01*
G01*
G37*
G36*
X261877719Y-89538433D02*
G01*
X263079801Y-90740515D01*
X261877719Y-91942597D01*
X260675637Y-90740515D01*
X261877719Y-89538433D01*
G37*
G04 #@! TD*
G04 #@! TO.C,D57*
G36*
G01*
X284100260Y-86517975D02*
X284100260Y-86517975D01*
G75*
G02*
X284100260Y-87720057I-601041J-601041D01*
G01*
X284100260Y-87720057D01*
G75*
G02*
X282898178Y-87720057I-601041J601041D01*
G01*
X282898178Y-87720057D01*
G75*
G02*
X282898178Y-86517975I601041J601041D01*
G01*
X282898178Y-86517975D01*
G75*
G02*
X284100260Y-86517975I601041J-601041D01*
G01*
G37*
G36*
X287091321Y-82324832D02*
G01*
X288293403Y-83526914D01*
X287091321Y-84728996D01*
X285889239Y-83526914D01*
X287091321Y-82324832D01*
G37*
G04 #@! TD*
G04 #@! TO.C,D56*
G36*
G01*
X288886659Y-93731576D02*
X288886659Y-93731576D01*
G75*
G02*
X288886659Y-94933658I-601041J-601041D01*
G01*
X288886659Y-94933658D01*
G75*
G02*
X287684577Y-94933658I-601041J601041D01*
G01*
X287684577Y-94933658D01*
G75*
G02*
X287684577Y-93731576I601041J601041D01*
G01*
X287684577Y-93731576D01*
G75*
G02*
X288886659Y-93731576I601041J-601041D01*
G01*
G37*
G36*
X291877720Y-89538433D02*
G01*
X293079802Y-90740515D01*
X291877720Y-91942597D01*
X290675638Y-90740515D01*
X291877720Y-89538433D01*
G37*
G04 #@! TD*
G04 #@! TO.C,D55*
G36*
G01*
X220518539Y-83264875D02*
X220518539Y-83264875D01*
G75*
G02*
X220518539Y-84466957I-601041J-601041D01*
G01*
X220518539Y-84466957D01*
G75*
G02*
X219316457Y-84466957I-601041J601041D01*
G01*
X219316457Y-84466957D01*
G75*
G02*
X219316457Y-83264875I601041J601041D01*
G01*
X219316457Y-83264875D01*
G75*
G02*
X220518539Y-83264875I601041J-601041D01*
G01*
G37*
G36*
X223509600Y-79071732D02*
G01*
X224711682Y-80273814D01*
X223509600Y-81475896D01*
X222307518Y-80273814D01*
X223509600Y-79071732D01*
G37*
G04 #@! TD*
G04 #@! TO.C,D54*
G36*
G01*
X218091339Y-97692078D02*
X218091339Y-97692078D01*
G75*
G02*
X218091339Y-98894160I-601041J-601041D01*
G01*
X218091339Y-98894160D01*
G75*
G02*
X216889257Y-98894160I-601041J601041D01*
G01*
X216889257Y-98894160D01*
G75*
G02*
X216889257Y-97692078I601041J601041D01*
G01*
X216889257Y-97692078D01*
G75*
G02*
X218091339Y-97692078I601041J-601041D01*
G01*
G37*
G36*
X221082400Y-93498935D02*
G01*
X222284482Y-94701017D01*
X221082400Y-95903099D01*
X219880318Y-94701017D01*
X221082400Y-93498935D01*
G37*
G04 #@! TD*
G04 #@! TO.C,D53*
G36*
G01*
X261313860Y-79304379D02*
X261313860Y-79304379D01*
G75*
G02*
X261313860Y-80506461I-601041J-601041D01*
G01*
X261313860Y-80506461D01*
G75*
G02*
X260111778Y-80506461I-601041J601041D01*
G01*
X260111778Y-80506461D01*
G75*
G02*
X260111778Y-79304379I601041J601041D01*
G01*
X260111778Y-79304379D01*
G75*
G02*
X261313860Y-79304379I601041J-601041D01*
G01*
G37*
G36*
X264304921Y-75111236D02*
G01*
X265507003Y-76313318D01*
X264304921Y-77515400D01*
X263102839Y-76313318D01*
X264304921Y-75111236D01*
G37*
G04 #@! TD*
G04 #@! TO.C,D52*
G36*
G01*
X266100259Y-86517977D02*
X266100259Y-86517977D01*
G75*
G02*
X266100259Y-87720059I-601041J-601041D01*
G01*
X266100259Y-87720059D01*
G75*
G02*
X264898177Y-87720059I-601041J601041D01*
G01*
X264898177Y-87720059D01*
G75*
G02*
X264898177Y-86517977I601041J601041D01*
G01*
X264898177Y-86517977D01*
G75*
G02*
X266100259Y-86517977I601041J-601041D01*
G01*
G37*
G36*
X269091320Y-82324834D02*
G01*
X270293402Y-83526916D01*
X269091320Y-84728998D01*
X267889238Y-83526916D01*
X269091320Y-82324834D01*
G37*
G04 #@! TD*
G04 #@! TO.C,D51*
G36*
G01*
X291313859Y-79304376D02*
X291313859Y-79304376D01*
G75*
G02*
X291313859Y-80506458I-601041J-601041D01*
G01*
X291313859Y-80506458D01*
G75*
G02*
X290111777Y-80506458I-601041J601041D01*
G01*
X290111777Y-80506458D01*
G75*
G02*
X290111777Y-79304376I601041J601041D01*
G01*
X290111777Y-79304376D01*
G75*
G02*
X291313859Y-79304376I601041J-601041D01*
G01*
G37*
G36*
X294304920Y-75111233D02*
G01*
X295507002Y-76313315D01*
X294304920Y-77515397D01*
X293102838Y-76313315D01*
X294304920Y-75111233D01*
G37*
G04 #@! TD*
G04 #@! TO.C,D50*
G36*
G01*
X296100258Y-86517976D02*
X296100258Y-86517976D01*
G75*
G02*
X296100258Y-87720058I-601041J-601041D01*
G01*
X296100258Y-87720058D01*
G75*
G02*
X294898176Y-87720058I-601041J601041D01*
G01*
X294898176Y-87720058D01*
G75*
G02*
X294898176Y-86517976I601041J601041D01*
G01*
X294898176Y-86517976D01*
G75*
G02*
X296100258Y-86517976I601041J-601041D01*
G01*
G37*
G36*
X299091319Y-82324833D02*
G01*
X300293401Y-83526915D01*
X299091319Y-84728997D01*
X297889237Y-83526915D01*
X299091319Y-82324833D01*
G37*
G04 #@! TD*
G04 #@! TO.C,D49*
G36*
G01*
X225304940Y-90478476D02*
X225304940Y-90478476D01*
G75*
G02*
X225304940Y-91680558I-601041J-601041D01*
G01*
X225304940Y-91680558D01*
G75*
G02*
X224102858Y-91680558I-601041J601041D01*
G01*
X224102858Y-91680558D01*
G75*
G02*
X224102858Y-90478476I601041J601041D01*
G01*
X224102858Y-90478476D01*
G75*
G02*
X225304940Y-90478476I601041J-601041D01*
G01*
G37*
G36*
X228296001Y-86285333D02*
G01*
X229498083Y-87487415D01*
X228296001Y-88689497D01*
X227093919Y-87487415D01*
X228296001Y-86285333D01*
G37*
G04 #@! TD*
G04 #@! TO.C,D48*
G36*
G01*
X254100259Y-86517976D02*
X254100259Y-86517976D01*
G75*
G02*
X254100259Y-87720058I-601041J-601041D01*
G01*
X254100259Y-87720058D01*
G75*
G02*
X252898177Y-87720058I-601041J601041D01*
G01*
X252898177Y-87720058D01*
G75*
G02*
X252898177Y-86517976I601041J601041D01*
G01*
X252898177Y-86517976D01*
G75*
G02*
X254100259Y-86517976I601041J-601041D01*
G01*
G37*
G36*
X257091320Y-82324833D02*
G01*
X258293402Y-83526915D01*
X257091320Y-84728997D01*
X255889238Y-83526915D01*
X257091320Y-82324833D01*
G37*
G04 #@! TD*
G04 #@! TO.C,D47*
G36*
G01*
X273313861Y-79304376D02*
X273313861Y-79304376D01*
G75*
G02*
X273313861Y-80506458I-601041J-601041D01*
G01*
X273313861Y-80506458D01*
G75*
G02*
X272111779Y-80506458I-601041J601041D01*
G01*
X272111779Y-80506458D01*
G75*
G02*
X272111779Y-79304376I601041J601041D01*
G01*
X272111779Y-79304376D01*
G75*
G02*
X273313861Y-79304376I601041J-601041D01*
G01*
G37*
G36*
X276304922Y-75111233D02*
G01*
X277507004Y-76313315D01*
X276304922Y-77515397D01*
X275102840Y-76313315D01*
X276304922Y-75111233D01*
G37*
G04 #@! TD*
G04 #@! TO.C,D46*
G36*
G01*
X270886658Y-93731576D02*
X270886658Y-93731576D01*
G75*
G02*
X270886658Y-94933658I-601041J-601041D01*
G01*
X270886658Y-94933658D01*
G75*
G02*
X269684576Y-94933658I-601041J601041D01*
G01*
X269684576Y-94933658D01*
G75*
G02*
X269684576Y-93731576I601041J601041D01*
G01*
X269684576Y-93731576D01*
G75*
G02*
X270886658Y-93731576I601041J-601041D01*
G01*
G37*
G36*
X273877719Y-89538433D02*
G01*
X275079801Y-90740515D01*
X273877719Y-91942597D01*
X272675637Y-90740515D01*
X273877719Y-89538433D01*
G37*
G04 #@! TD*
G04 #@! TO.C,D45*
G36*
G01*
X282886658Y-93731578D02*
X282886658Y-93731578D01*
G75*
G02*
X282886658Y-94933660I-601041J-601041D01*
G01*
X282886658Y-94933660D01*
G75*
G02*
X281684576Y-94933660I-601041J601041D01*
G01*
X281684576Y-94933660D01*
G75*
G02*
X281684576Y-93731578I601041J601041D01*
G01*
X281684576Y-93731578D01*
G75*
G02*
X282886658Y-93731578I601041J-601041D01*
G01*
G37*
G36*
X285877719Y-89538435D02*
G01*
X287079801Y-90740517D01*
X285877719Y-91942599D01*
X284675637Y-90740517D01*
X285877719Y-89538435D01*
G37*
G04 #@! TD*
G04 #@! TO.C,D44*
G36*
G01*
X207304938Y-90478477D02*
X207304938Y-90478477D01*
G75*
G02*
X207304938Y-91680559I-601041J-601041D01*
G01*
X207304938Y-91680559D01*
G75*
G02*
X206102856Y-91680559I-601041J601041D01*
G01*
X206102856Y-91680559D01*
G75*
G02*
X206102856Y-90478477I601041J601041D01*
G01*
X206102856Y-90478477D01*
G75*
G02*
X207304938Y-90478477I601041J-601041D01*
G01*
G37*
G36*
X210295999Y-86285334D02*
G01*
X211498081Y-87487416D01*
X210295999Y-88689498D01*
X209093917Y-87487416D01*
X210295999Y-86285334D01*
G37*
G04 #@! TD*
G04 #@! TO.C,D43*
G36*
G01*
X232518539Y-83264876D02*
X232518539Y-83264876D01*
G75*
G02*
X232518539Y-84466958I-601041J-601041D01*
G01*
X232518539Y-84466958D01*
G75*
G02*
X231316457Y-84466958I-601041J601041D01*
G01*
X231316457Y-84466958D01*
G75*
G02*
X231316457Y-83264876I601041J601041D01*
G01*
X231316457Y-83264876D01*
G75*
G02*
X232518539Y-83264876I601041J-601041D01*
G01*
G37*
G36*
X235509600Y-79071733D02*
G01*
X236711682Y-80273815D01*
X235509600Y-81475897D01*
X234307518Y-80273815D01*
X235509600Y-79071733D01*
G37*
G04 #@! TD*
G04 #@! TO.C,D42*
G36*
G01*
X246886659Y-93731576D02*
X246886659Y-93731576D01*
G75*
G02*
X246886659Y-94933658I-601041J-601041D01*
G01*
X246886659Y-94933658D01*
G75*
G02*
X245684577Y-94933658I-601041J601041D01*
G01*
X245684577Y-94933658D01*
G75*
G02*
X245684577Y-93731576I601041J601041D01*
G01*
X245684577Y-93731576D01*
G75*
G02*
X246886659Y-93731576I601041J-601041D01*
G01*
G37*
G36*
X249877720Y-89538433D02*
G01*
X251079802Y-90740515D01*
X249877720Y-91942597D01*
X248675638Y-90740515D01*
X249877720Y-89538433D01*
G37*
G04 #@! TD*
G04 #@! TO.C,D41*
G36*
G01*
X252886659Y-93731577D02*
X252886659Y-93731577D01*
G75*
G02*
X252886659Y-94933659I-601041J-601041D01*
G01*
X252886659Y-94933659D01*
G75*
G02*
X251684577Y-94933659I-601041J601041D01*
G01*
X251684577Y-94933659D01*
G75*
G02*
X251684577Y-93731577I601041J601041D01*
G01*
X251684577Y-93731577D01*
G75*
G02*
X252886659Y-93731577I601041J-601041D01*
G01*
G37*
G36*
X255877720Y-89538434D02*
G01*
X257079802Y-90740516D01*
X255877720Y-91942598D01*
X254675638Y-90740516D01*
X255877720Y-89538434D01*
G37*
G04 #@! TD*
G04 #@! TO.C,D40*
G36*
G01*
X278100260Y-86517977D02*
X278100260Y-86517977D01*
G75*
G02*
X278100260Y-87720059I-601041J-601041D01*
G01*
X278100260Y-87720059D01*
G75*
G02*
X276898178Y-87720059I-601041J601041D01*
G01*
X276898178Y-87720059D01*
G75*
G02*
X276898178Y-86517977I601041J601041D01*
G01*
X276898178Y-86517977D01*
G75*
G02*
X278100260Y-86517977I601041J-601041D01*
G01*
G37*
G36*
X281091321Y-82324834D02*
G01*
X282293403Y-83526916D01*
X281091321Y-84728998D01*
X279889239Y-83526916D01*
X281091321Y-82324834D01*
G37*
G04 #@! TD*
G04 #@! TO.C,D39*
G36*
G01*
X303313859Y-79304377D02*
X303313859Y-79304377D01*
G75*
G02*
X303313859Y-80506459I-601041J-601041D01*
G01*
X303313859Y-80506459D01*
G75*
G02*
X302111777Y-80506459I-601041J601041D01*
G01*
X302111777Y-80506459D01*
G75*
G02*
X302111777Y-79304377I601041J601041D01*
G01*
X302111777Y-79304377D01*
G75*
G02*
X303313859Y-79304377I601041J-601041D01*
G01*
G37*
G36*
X306304920Y-75111234D02*
G01*
X307507002Y-76313316D01*
X306304920Y-77515398D01*
X305102838Y-76313316D01*
X306304920Y-75111234D01*
G37*
G04 #@! TD*
G04 #@! TO.C,D38*
G36*
G01*
X212091337Y-97692075D02*
X212091337Y-97692075D01*
G75*
G02*
X212091337Y-98894157I-601041J-601041D01*
G01*
X212091337Y-98894157D01*
G75*
G02*
X210889255Y-98894157I-601041J601041D01*
G01*
X210889255Y-98894157D01*
G75*
G02*
X210889255Y-97692075I601041J601041D01*
G01*
X210889255Y-97692075D01*
G75*
G02*
X212091337Y-97692075I601041J-601041D01*
G01*
G37*
G36*
X215082398Y-93498932D02*
G01*
X216284480Y-94701014D01*
X215082398Y-95903096D01*
X213880316Y-94701014D01*
X215082398Y-93498932D01*
G37*
G04 #@! TD*
G04 #@! TO.C,D37*
G36*
G01*
X267313861Y-79304377D02*
X267313861Y-79304377D01*
G75*
G02*
X267313861Y-80506459I-601041J-601041D01*
G01*
X267313861Y-80506459D01*
G75*
G02*
X266111779Y-80506459I-601041J601041D01*
G01*
X266111779Y-80506459D01*
G75*
G02*
X266111779Y-79304377I601041J601041D01*
G01*
X266111779Y-79304377D01*
G75*
G02*
X267313861Y-79304377I601041J-601041D01*
G01*
G37*
G36*
X270304922Y-75111234D02*
G01*
X271507004Y-76313316D01*
X270304922Y-77515398D01*
X269102840Y-76313316D01*
X270304922Y-75111234D01*
G37*
G04 #@! TD*
G04 #@! TO.C,D36*
G36*
G01*
X260100258Y-86517975D02*
X260100258Y-86517975D01*
G75*
G02*
X260100258Y-87720057I-601041J-601041D01*
G01*
X260100258Y-87720057D01*
G75*
G02*
X258898176Y-87720057I-601041J601041D01*
G01*
X258898176Y-87720057D01*
G75*
G02*
X258898176Y-86517975I601041J601041D01*
G01*
X258898176Y-86517975D01*
G75*
G02*
X260100258Y-86517975I601041J-601041D01*
G01*
G37*
G36*
X263091319Y-82324832D02*
G01*
X264293401Y-83526914D01*
X263091319Y-84728996D01*
X261889237Y-83526914D01*
X263091319Y-82324832D01*
G37*
G04 #@! TD*
G04 #@! TO.C,D35*
G36*
G01*
X71592852Y-86517975D02*
X71592852Y-86517975D01*
G75*
G02*
X72794934Y-86517975I601041J-601041D01*
G01*
X72794934Y-86517975D01*
G75*
G02*
X72794934Y-87720057I-601041J-601041D01*
G01*
X72794934Y-87720057D01*
G75*
G02*
X71592852Y-87720057I-601041J601041D01*
G01*
X71592852Y-87720057D01*
G75*
G02*
X71592852Y-86517975I601041J601041D01*
G01*
G37*
G36*
X67399709Y-83526914D02*
G01*
X68601791Y-82324832D01*
X69803873Y-83526914D01*
X68601791Y-84728996D01*
X67399709Y-83526914D01*
G37*
G04 #@! TD*
G04 #@! TO.C,D34*
G36*
G01*
X46379252Y-79304376D02*
X46379252Y-79304376D01*
G75*
G02*
X47581334Y-79304376I601041J-601041D01*
G01*
X47581334Y-79304376D01*
G75*
G02*
X47581334Y-80506458I-601041J-601041D01*
G01*
X47581334Y-80506458D01*
G75*
G02*
X46379252Y-80506458I-601041J601041D01*
G01*
X46379252Y-80506458D01*
G75*
G02*
X46379252Y-79304376I601041J601041D01*
G01*
G37*
G36*
X42186109Y-76313315D02*
G01*
X43388191Y-75111233D01*
X44590273Y-76313315D01*
X43388191Y-77515397D01*
X42186109Y-76313315D01*
G37*
G04 #@! TD*
G04 #@! TO.C,D33*
G36*
G01*
X128324855Y-96169977D02*
X128324855Y-96169977D01*
G75*
G02*
X129526937Y-96169977I601041J-601041D01*
G01*
X129526937Y-96169977D01*
G75*
G02*
X129526937Y-97372059I-601041J-601041D01*
G01*
X129526937Y-97372059D01*
G75*
G02*
X128324855Y-97372059I-601041J601041D01*
G01*
X128324855Y-97372059D01*
G75*
G02*
X128324855Y-96169977I601041J601041D01*
G01*
G37*
G36*
X124131712Y-93178916D02*
G01*
X125333794Y-91976834D01*
X126535876Y-93178916D01*
X125333794Y-94380998D01*
X124131712Y-93178916D01*
G37*
G04 #@! TD*
G04 #@! TO.C,D32*
G36*
G01*
X107592853Y-86517976D02*
X107592853Y-86517976D01*
G75*
G02*
X108794935Y-86517976I601041J-601041D01*
G01*
X108794935Y-86517976D01*
G75*
G02*
X108794935Y-87720058I-601041J-601041D01*
G01*
X108794935Y-87720058D01*
G75*
G02*
X107592853Y-87720058I-601041J601041D01*
G01*
X107592853Y-87720058D01*
G75*
G02*
X107592853Y-86517976I601041J601041D01*
G01*
G37*
G36*
X103399710Y-83526915D02*
G01*
X104601792Y-82324833D01*
X105803874Y-83526915D01*
X104601792Y-84728997D01*
X103399710Y-83526915D01*
G37*
G04 #@! TD*
G04 #@! TO.C,D31*
G36*
G01*
X95592854Y-86517976D02*
X95592854Y-86517976D01*
G75*
G02*
X96794936Y-86517976I601041J-601041D01*
G01*
X96794936Y-86517976D01*
G75*
G02*
X96794936Y-87720058I-601041J-601041D01*
G01*
X96794936Y-87720058D01*
G75*
G02*
X95592854Y-87720058I-601041J601041D01*
G01*
X95592854Y-87720058D01*
G75*
G02*
X95592854Y-86517976I601041J601041D01*
G01*
G37*
G36*
X91399711Y-83526915D02*
G01*
X92601793Y-82324833D01*
X93803875Y-83526915D01*
X92601793Y-84728997D01*
X91399711Y-83526915D01*
G37*
G04 #@! TD*
G04 #@! TO.C,D30*
G36*
G01*
X83592854Y-86517977D02*
X83592854Y-86517977D01*
G75*
G02*
X84794936Y-86517977I601041J-601041D01*
G01*
X84794936Y-86517977D01*
G75*
G02*
X84794936Y-87720059I-601041J-601041D01*
G01*
X84794936Y-87720059D01*
G75*
G02*
X83592854Y-87720059I-601041J601041D01*
G01*
X83592854Y-87720059D01*
G75*
G02*
X83592854Y-86517977I601041J601041D01*
G01*
G37*
G36*
X79399711Y-83526916D02*
G01*
X80601793Y-82324834D01*
X81803875Y-83526916D01*
X80601793Y-84728998D01*
X79399711Y-83526916D01*
G37*
G04 #@! TD*
G04 #@! TO.C,D29*
G36*
G01*
X78806452Y-93731577D02*
X78806452Y-93731577D01*
G75*
G02*
X80008534Y-93731577I601041J-601041D01*
G01*
X80008534Y-93731577D01*
G75*
G02*
X80008534Y-94933659I-601041J-601041D01*
G01*
X80008534Y-94933659D01*
G75*
G02*
X78806452Y-94933659I-601041J601041D01*
G01*
X78806452Y-94933659D01*
G75*
G02*
X78806452Y-93731577I601041J601041D01*
G01*
G37*
G36*
X74613309Y-90740516D02*
G01*
X75815391Y-89538434D01*
X77017473Y-90740516D01*
X75815391Y-91942598D01*
X74613309Y-90740516D01*
G37*
G04 #@! TD*
G04 #@! TO.C,D28*
G36*
G01*
X53592853Y-86517976D02*
X53592853Y-86517976D01*
G75*
G02*
X54794935Y-86517976I601041J-601041D01*
G01*
X54794935Y-86517976D01*
G75*
G02*
X54794935Y-87720058I-601041J-601041D01*
G01*
X54794935Y-87720058D01*
G75*
G02*
X53592853Y-87720058I-601041J601041D01*
G01*
X53592853Y-87720058D01*
G75*
G02*
X53592853Y-86517976I601041J601041D01*
G01*
G37*
G36*
X49399710Y-83526915D02*
G01*
X50601792Y-82324833D01*
X51803874Y-83526915D01*
X50601792Y-84728997D01*
X49399710Y-83526915D01*
G37*
G04 #@! TD*
G04 #@! TO.C,D27*
G36*
G01*
X106379253Y-79304376D02*
X106379253Y-79304376D01*
G75*
G02*
X107581335Y-79304376I601041J-601041D01*
G01*
X107581335Y-79304376D01*
G75*
G02*
X107581335Y-80506458I-601041J-601041D01*
G01*
X107581335Y-80506458D01*
G75*
G02*
X106379253Y-80506458I-601041J601041D01*
G01*
X106379253Y-80506458D01*
G75*
G02*
X106379253Y-79304376I601041J601041D01*
G01*
G37*
G36*
X102186110Y-76313315D02*
G01*
X103388192Y-75111233D01*
X104590274Y-76313315D01*
X103388192Y-77515397D01*
X102186110Y-76313315D01*
G37*
G04 #@! TD*
G04 #@! TO.C,D26*
G36*
G01*
X114806453Y-93731578D02*
X114806453Y-93731578D01*
G75*
G02*
X116008535Y-93731578I601041J-601041D01*
G01*
X116008535Y-93731578D01*
G75*
G02*
X116008535Y-94933660I-601041J-601041D01*
G01*
X116008535Y-94933660D01*
G75*
G02*
X114806453Y-94933660I-601041J601041D01*
G01*
X114806453Y-94933660D01*
G75*
G02*
X114806453Y-93731578I601041J601041D01*
G01*
G37*
G36*
X110613310Y-90740517D02*
G01*
X111815392Y-89538435D01*
X113017474Y-90740517D01*
X111815392Y-91942599D01*
X110613310Y-90740517D01*
G37*
G04 #@! TD*
G04 #@! TO.C,D25*
G36*
G01*
X102806453Y-93731577D02*
X102806453Y-93731577D01*
G75*
G02*
X104008535Y-93731577I601041J-601041D01*
G01*
X104008535Y-93731577D01*
G75*
G02*
X104008535Y-94933659I-601041J-601041D01*
G01*
X104008535Y-94933659D01*
G75*
G02*
X102806453Y-94933659I-601041J601041D01*
G01*
X102806453Y-94933659D01*
G75*
G02*
X102806453Y-93731577I601041J601041D01*
G01*
G37*
G36*
X98613310Y-90740516D02*
G01*
X99815392Y-89538434D01*
X101017474Y-90740516D01*
X99815392Y-91942598D01*
X98613310Y-90740516D01*
G37*
G04 #@! TD*
G04 #@! TO.C,D24*
G36*
G01*
X90806453Y-93731575D02*
X90806453Y-93731575D01*
G75*
G02*
X92008535Y-93731575I601041J-601041D01*
G01*
X92008535Y-93731575D01*
G75*
G02*
X92008535Y-94933657I-601041J-601041D01*
G01*
X92008535Y-94933657D01*
G75*
G02*
X90806453Y-94933657I-601041J601041D01*
G01*
X90806453Y-94933657D01*
G75*
G02*
X90806453Y-93731575I601041J601041D01*
G01*
G37*
G36*
X86613310Y-90740514D02*
G01*
X87815392Y-89538432D01*
X89017474Y-90740514D01*
X87815392Y-91942596D01*
X86613310Y-90740514D01*
G37*
G04 #@! TD*
G04 #@! TO.C,D23*
G36*
G01*
X58379253Y-79304377D02*
X58379253Y-79304377D01*
G75*
G02*
X59581335Y-79304377I601041J-601041D01*
G01*
X59581335Y-79304377D01*
G75*
G02*
X59581335Y-80506459I-601041J-601041D01*
G01*
X59581335Y-80506459D01*
G75*
G02*
X58379253Y-80506459I-601041J601041D01*
G01*
X58379253Y-80506459D01*
G75*
G02*
X58379253Y-79304377I601041J601041D01*
G01*
G37*
G36*
X54186110Y-76313316D02*
G01*
X55388192Y-75111234D01*
X56590274Y-76313316D01*
X55388192Y-77515398D01*
X54186110Y-76313316D01*
G37*
G04 #@! TD*
G04 #@! TO.C,D22*
G36*
G01*
X66806452Y-93731577D02*
X66806452Y-93731577D01*
G75*
G02*
X68008534Y-93731577I601041J-601041D01*
G01*
X68008534Y-93731577D01*
G75*
G02*
X68008534Y-94933659I-601041J-601041D01*
G01*
X68008534Y-94933659D01*
G75*
G02*
X66806452Y-94933659I-601041J601041D01*
G01*
X66806452Y-94933659D01*
G75*
G02*
X66806452Y-93731577I601041J601041D01*
G01*
G37*
G36*
X62613309Y-90740516D02*
G01*
X63815391Y-89538434D01*
X65017473Y-90740516D01*
X63815391Y-91942598D01*
X62613309Y-90740516D01*
G37*
G04 #@! TD*
G04 #@! TO.C,D21*
G36*
G01*
X94379253Y-79304375D02*
X94379253Y-79304375D01*
G75*
G02*
X95581335Y-79304375I601041J-601041D01*
G01*
X95581335Y-79304375D01*
G75*
G02*
X95581335Y-80506457I-601041J-601041D01*
G01*
X95581335Y-80506457D01*
G75*
G02*
X94379253Y-80506457I-601041J601041D01*
G01*
X94379253Y-80506457D01*
G75*
G02*
X94379253Y-79304375I601041J601041D01*
G01*
G37*
G36*
X90186110Y-76313314D02*
G01*
X91388192Y-75111232D01*
X92590274Y-76313314D01*
X91388192Y-77515396D01*
X90186110Y-76313314D01*
G37*
G04 #@! TD*
G04 #@! TO.C,D20*
G36*
G01*
X82379252Y-79304378D02*
X82379252Y-79304378D01*
G75*
G02*
X83581334Y-79304378I601041J-601041D01*
G01*
X83581334Y-79304378D01*
G75*
G02*
X83581334Y-80506460I-601041J-601041D01*
G01*
X83581334Y-80506460D01*
G75*
G02*
X82379252Y-80506460I-601041J601041D01*
G01*
X82379252Y-80506460D01*
G75*
G02*
X82379252Y-79304378I601041J601041D01*
G01*
G37*
G36*
X78186109Y-76313317D02*
G01*
X79388191Y-75111235D01*
X80590273Y-76313317D01*
X79388191Y-77515399D01*
X78186109Y-76313317D01*
G37*
G04 #@! TD*
G04 #@! TO.C,D19*
G36*
G01*
X70379254Y-79304377D02*
X70379254Y-79304377D01*
G75*
G02*
X71581336Y-79304377I601041J-601041D01*
G01*
X71581336Y-79304377D01*
G75*
G02*
X71581336Y-80506459I-601041J-601041D01*
G01*
X71581336Y-80506459D01*
G75*
G02*
X70379254Y-80506459I-601041J601041D01*
G01*
X70379254Y-80506459D01*
G75*
G02*
X70379254Y-79304377I601041J601041D01*
G01*
G37*
G36*
X66186111Y-76313316D02*
G01*
X67388193Y-75111234D01*
X68590275Y-76313316D01*
X67388193Y-77515398D01*
X66186111Y-76313316D01*
G37*
G04 #@! TD*
G04 #@! TO.C,D18*
G36*
G01*
X65592852Y-86517975D02*
X65592852Y-86517975D01*
G75*
G02*
X66794934Y-86517975I601041J-601041D01*
G01*
X66794934Y-86517975D01*
G75*
G02*
X66794934Y-87720057I-601041J-601041D01*
G01*
X66794934Y-87720057D01*
G75*
G02*
X65592852Y-87720057I-601041J601041D01*
G01*
X65592852Y-87720057D01*
G75*
G02*
X65592852Y-86517975I601041J601041D01*
G01*
G37*
G36*
X61399709Y-83526914D02*
G01*
X62601791Y-82324832D01*
X63803873Y-83526914D01*
X62601791Y-84728996D01*
X61399709Y-83526914D01*
G37*
G04 #@! TD*
G04 #@! TO.C,D17*
G36*
G01*
X60806455Y-93731577D02*
X60806455Y-93731577D01*
G75*
G02*
X62008537Y-93731577I601041J-601041D01*
G01*
X62008537Y-93731577D01*
G75*
G02*
X62008537Y-94933659I-601041J-601041D01*
G01*
X62008537Y-94933659D01*
G75*
G02*
X60806455Y-94933659I-601041J601041D01*
G01*
X60806455Y-94933659D01*
G75*
G02*
X60806455Y-93731577I601041J601041D01*
G01*
G37*
G36*
X56613312Y-90740516D02*
G01*
X57815394Y-89538434D01*
X59017476Y-90740516D01*
X57815394Y-91942598D01*
X56613312Y-90740516D01*
G37*
G04 #@! TD*
G04 #@! TO.C,D16*
G36*
G01*
X113592854Y-86517979D02*
X113592854Y-86517979D01*
G75*
G02*
X114794936Y-86517979I601041J-601041D01*
G01*
X114794936Y-86517979D01*
G75*
G02*
X114794936Y-87720061I-601041J-601041D01*
G01*
X114794936Y-87720061D01*
G75*
G02*
X113592854Y-87720061I-601041J601041D01*
G01*
X113592854Y-87720061D01*
G75*
G02*
X113592854Y-86517979I601041J601041D01*
G01*
G37*
G36*
X109399711Y-83526918D02*
G01*
X110601793Y-82324836D01*
X111803875Y-83526918D01*
X110601793Y-84729000D01*
X109399711Y-83526918D01*
G37*
G04 #@! TD*
G04 #@! TO.C,D15*
G36*
G01*
X101592853Y-86517976D02*
X101592853Y-86517976D01*
G75*
G02*
X102794935Y-86517976I601041J-601041D01*
G01*
X102794935Y-86517976D01*
G75*
G02*
X102794935Y-87720058I-601041J-601041D01*
G01*
X102794935Y-87720058D01*
G75*
G02*
X101592853Y-87720058I-601041J601041D01*
G01*
X101592853Y-87720058D01*
G75*
G02*
X101592853Y-86517976I601041J601041D01*
G01*
G37*
G36*
X97399710Y-83526915D02*
G01*
X98601792Y-82324833D01*
X99803874Y-83526915D01*
X98601792Y-84728997D01*
X97399710Y-83526915D01*
G37*
G04 #@! TD*
G04 #@! TO.C,D14*
G36*
G01*
X89592855Y-86517975D02*
X89592855Y-86517975D01*
G75*
G02*
X90794937Y-86517975I601041J-601041D01*
G01*
X90794937Y-86517975D01*
G75*
G02*
X90794937Y-87720057I-601041J-601041D01*
G01*
X90794937Y-87720057D01*
G75*
G02*
X89592855Y-87720057I-601041J601041D01*
G01*
X89592855Y-87720057D01*
G75*
G02*
X89592855Y-86517975I601041J601041D01*
G01*
G37*
G36*
X85399712Y-83526914D02*
G01*
X86601794Y-82324832D01*
X87803876Y-83526914D01*
X86601794Y-84728996D01*
X85399712Y-83526914D01*
G37*
G04 #@! TD*
G04 #@! TO.C,D13*
G36*
G01*
X77592853Y-86517977D02*
X77592853Y-86517977D01*
G75*
G02*
X78794935Y-86517977I601041J-601041D01*
G01*
X78794935Y-86517977D01*
G75*
G02*
X78794935Y-87720059I-601041J-601041D01*
G01*
X78794935Y-87720059D01*
G75*
G02*
X77592853Y-87720059I-601041J601041D01*
G01*
X77592853Y-87720059D01*
G75*
G02*
X77592853Y-86517977I601041J601041D01*
G01*
G37*
G36*
X73399710Y-83526916D02*
G01*
X74601792Y-82324834D01*
X75803874Y-83526916D01*
X74601792Y-84728998D01*
X73399710Y-83526916D01*
G37*
G04 #@! TD*
G04 #@! TO.C,D12*
G36*
G01*
X72806453Y-93731578D02*
X72806453Y-93731578D01*
G75*
G02*
X74008535Y-93731578I601041J-601041D01*
G01*
X74008535Y-93731578D01*
G75*
G02*
X74008535Y-94933660I-601041J-601041D01*
G01*
X74008535Y-94933660D01*
G75*
G02*
X72806453Y-94933660I-601041J601041D01*
G01*
X72806453Y-94933660D01*
G75*
G02*
X72806453Y-93731578I601041J601041D01*
G01*
G37*
G36*
X68613310Y-90740517D02*
G01*
X69815392Y-89538435D01*
X71017474Y-90740517D01*
X69815392Y-91942599D01*
X68613310Y-90740517D01*
G37*
G04 #@! TD*
G04 #@! TO.C,D11*
G36*
G01*
X40379253Y-79304378D02*
X40379253Y-79304378D01*
G75*
G02*
X41581335Y-79304378I601041J-601041D01*
G01*
X41581335Y-79304378D01*
G75*
G02*
X41581335Y-80506460I-601041J-601041D01*
G01*
X41581335Y-80506460D01*
G75*
G02*
X40379253Y-80506460I-601041J601041D01*
G01*
X40379253Y-80506460D01*
G75*
G02*
X40379253Y-79304378I601041J601041D01*
G01*
G37*
G36*
X36186110Y-76313317D02*
G01*
X37388192Y-75111235D01*
X38590274Y-76313317D01*
X37388192Y-77515399D01*
X36186110Y-76313317D01*
G37*
G04 #@! TD*
G04 #@! TO.C,D10*
G36*
G01*
X120806455Y-93731576D02*
X120806455Y-93731576D01*
G75*
G02*
X122008537Y-93731576I601041J-601041D01*
G01*
X122008537Y-93731576D01*
G75*
G02*
X122008537Y-94933658I-601041J-601041D01*
G01*
X122008537Y-94933658D01*
G75*
G02*
X120806455Y-94933658I-601041J601041D01*
G01*
X120806455Y-94933658D01*
G75*
G02*
X120806455Y-93731576I601041J601041D01*
G01*
G37*
G36*
X116613312Y-90740515D02*
G01*
X117815394Y-89538433D01*
X119017476Y-90740515D01*
X117815394Y-91942597D01*
X116613312Y-90740515D01*
G37*
G04 #@! TD*
G04 #@! TO.C,D9*
G36*
X104613310Y-90740517D02*
G01*
X105815392Y-89538435D01*
X107017474Y-90740517D01*
X105815392Y-91942599D01*
X104613310Y-90740517D01*
G37*
G36*
G01*
X108806453Y-93731578D02*
X108806453Y-93731578D01*
G75*
G02*
X110008535Y-93731578I601041J-601041D01*
G01*
X110008535Y-93731578D01*
G75*
G02*
X110008535Y-94933660I-601041J-601041D01*
G01*
X110008535Y-94933660D01*
G75*
G02*
X108806453Y-94933660I-601041J601041D01*
G01*
X108806453Y-94933660D01*
G75*
G02*
X108806453Y-93731578I601041J601041D01*
G01*
G37*
G04 #@! TD*
G04 #@! TO.C,D8*
G36*
X92613309Y-90740515D02*
G01*
X93815391Y-89538433D01*
X95017473Y-90740515D01*
X93815391Y-91942597D01*
X92613309Y-90740515D01*
G37*
G36*
G01*
X96806452Y-93731576D02*
X96806452Y-93731576D01*
G75*
G02*
X98008534Y-93731576I601041J-601041D01*
G01*
X98008534Y-93731576D01*
G75*
G02*
X98008534Y-94933658I-601041J-601041D01*
G01*
X98008534Y-94933658D01*
G75*
G02*
X96806452Y-94933658I-601041J601041D01*
G01*
X96806452Y-94933658D01*
G75*
G02*
X96806452Y-93731576I601041J601041D01*
G01*
G37*
G04 #@! TD*
G04 #@! TO.C,D7*
G36*
X80613309Y-90740515D02*
G01*
X81815391Y-89538433D01*
X83017473Y-90740515D01*
X81815391Y-91942597D01*
X80613309Y-90740515D01*
G37*
G36*
G01*
X84806452Y-93731576D02*
X84806452Y-93731576D01*
G75*
G02*
X86008534Y-93731576I601041J-601041D01*
G01*
X86008534Y-93731576D01*
G75*
G02*
X86008534Y-94933658I-601041J-601041D01*
G01*
X86008534Y-94933658D01*
G75*
G02*
X84806452Y-94933658I-601041J601041D01*
G01*
X84806452Y-94933658D01*
G75*
G02*
X84806452Y-93731576I601041J601041D01*
G01*
G37*
G04 #@! TD*
G04 #@! TO.C,D6*
G36*
G01*
X52379253Y-79304375D02*
X52379253Y-79304375D01*
G75*
G02*
X53581335Y-79304375I601041J-601041D01*
G01*
X53581335Y-79304375D01*
G75*
G02*
X53581335Y-80506457I-601041J-601041D01*
G01*
X53581335Y-80506457D01*
G75*
G02*
X52379253Y-80506457I-601041J601041D01*
G01*
X52379253Y-80506457D01*
G75*
G02*
X52379253Y-79304375I601041J601041D01*
G01*
G37*
G36*
X48186110Y-76313314D02*
G01*
X49388192Y-75111232D01*
X50590274Y-76313314D01*
X49388192Y-77515396D01*
X48186110Y-76313314D01*
G37*
G04 #@! TD*
G04 #@! TO.C,D5*
G36*
G01*
X47592854Y-86517975D02*
X47592854Y-86517975D01*
G75*
G02*
X48794936Y-86517975I601041J-601041D01*
G01*
X48794936Y-86517975D01*
G75*
G02*
X48794936Y-87720057I-601041J-601041D01*
G01*
X48794936Y-87720057D01*
G75*
G02*
X47592854Y-87720057I-601041J601041D01*
G01*
X47592854Y-87720057D01*
G75*
G02*
X47592854Y-86517975I601041J601041D01*
G01*
G37*
G36*
X43399711Y-83526914D02*
G01*
X44601793Y-82324832D01*
X45803875Y-83526914D01*
X44601793Y-84728996D01*
X43399711Y-83526914D01*
G37*
G04 #@! TD*
G04 #@! TO.C,D4*
G36*
X96186112Y-76313315D02*
G01*
X97388194Y-75111233D01*
X98590276Y-76313315D01*
X97388194Y-77515397D01*
X96186112Y-76313315D01*
G37*
G36*
G01*
X100379255Y-79304376D02*
X100379255Y-79304376D01*
G75*
G02*
X101581337Y-79304376I601041J-601041D01*
G01*
X101581337Y-79304376D01*
G75*
G02*
X101581337Y-80506458I-601041J-601041D01*
G01*
X101581337Y-80506458D01*
G75*
G02*
X100379255Y-80506458I-601041J601041D01*
G01*
X100379255Y-80506458D01*
G75*
G02*
X100379255Y-79304376I601041J601041D01*
G01*
G37*
G04 #@! TD*
G04 #@! TO.C,D3*
G36*
G01*
X88379252Y-79304377D02*
X88379252Y-79304377D01*
G75*
G02*
X89581334Y-79304377I601041J-601041D01*
G01*
X89581334Y-79304377D01*
G75*
G02*
X89581334Y-80506459I-601041J-601041D01*
G01*
X89581334Y-80506459D01*
G75*
G02*
X88379252Y-80506459I-601041J601041D01*
G01*
X88379252Y-80506459D01*
G75*
G02*
X88379252Y-79304377I601041J601041D01*
G01*
G37*
G36*
X84186109Y-76313316D02*
G01*
X85388191Y-75111234D01*
X86590273Y-76313316D01*
X85388191Y-77515398D01*
X84186109Y-76313316D01*
G37*
G04 #@! TD*
G04 #@! TO.C,D2*
G36*
G01*
X76379254Y-79304377D02*
X76379254Y-79304377D01*
G75*
G02*
X77581336Y-79304377I601041J-601041D01*
G01*
X77581336Y-79304377D01*
G75*
G02*
X77581336Y-80506459I-601041J-601041D01*
G01*
X77581336Y-80506459D01*
G75*
G02*
X76379254Y-80506459I-601041J601041D01*
G01*
X76379254Y-80506459D01*
G75*
G02*
X76379254Y-79304377I601041J601041D01*
G01*
G37*
G36*
X72186111Y-76313316D02*
G01*
X73388193Y-75111234D01*
X74590275Y-76313316D01*
X73388193Y-77515398D01*
X72186111Y-76313316D01*
G37*
G04 #@! TD*
G04 #@! TO.C,D1*
G36*
G01*
X64379253Y-79304376D02*
X64379253Y-79304376D01*
G75*
G02*
X65581335Y-79304376I601041J-601041D01*
G01*
X65581335Y-79304376D01*
G75*
G02*
X65581335Y-80506458I-601041J-601041D01*
G01*
X65581335Y-80506458D01*
G75*
G02*
X64379253Y-80506458I-601041J601041D01*
G01*
X64379253Y-80506458D01*
G75*
G02*
X64379253Y-79304376I601041J601041D01*
G01*
G37*
G36*
X60186110Y-76313315D02*
G01*
X61388192Y-75111233D01*
X62590274Y-76313315D01*
X61388192Y-77515397D01*
X60186110Y-76313315D01*
G37*
G04 #@! TD*
G04 #@! TO.C,D0*
G36*
G01*
X59592852Y-86517977D02*
X59592852Y-86517977D01*
G75*
G02*
X60794934Y-86517977I601041J-601041D01*
G01*
X60794934Y-86517977D01*
G75*
G02*
X60794934Y-87720059I-601041J-601041D01*
G01*
X60794934Y-87720059D01*
G75*
G02*
X59592852Y-87720059I-601041J601041D01*
G01*
X59592852Y-87720059D01*
G75*
G02*
X59592852Y-86517977I601041J601041D01*
G01*
G37*
G36*
X55399709Y-83526916D02*
G01*
X56601791Y-82324834D01*
X57803873Y-83526916D01*
X56601791Y-84728998D01*
X55399709Y-83526916D01*
G37*
G04 #@! TD*
D15*
G04 #@! TO.C,C5*
X173518726Y-81404610D03*
D14*
X178598726Y-81404610D03*
G04 #@! TD*
D26*
G04 #@! TO.C,C4*
X175422466Y-101993850D03*
X170422466Y-101993850D03*
G04 #@! TD*
D27*
G04 #@! TO.C,C3*
X139878966Y-83721090D03*
D28*
X139878966Y-82221090D03*
G04 #@! TD*
D26*
G04 #@! TO.C,C2*
X178037385Y-102356428D03*
X178037385Y-104856428D03*
G04 #@! TD*
G04 #@! TO.C,C1*
X192365527Y-102341189D03*
X192365527Y-104841189D03*
G04 #@! TD*
D22*
G04 #@! TO.C,BOOT1*
X198747418Y-75458471D03*
X198747418Y-79958471D03*
X192247418Y-75458471D03*
X192247418Y-79958471D03*
G04 #@! TD*
M02*
