M48
; DRILL file {KiCad (5.1.6)-1} date 07/28/20 10:39:03
; FORMAT={-:-/ absolute / inch / decimal}
; #@! TF.CreationDate,2020-07-28T10:39:03-05:00
; #@! TF.GenerationSoftware,Kicad,Pcbnew,(5.1.6)-1
; #@! TF.FileFunction,Plated,1,2,PTH
FMAT,2
INCH
T1C0.0157
T2C0.0236
T3C0.0276
T4C0.0315
T5C0.0400
T6C0.0433
T7C0.0579
%
G90
G05
T1
X3.2118Y-3.9325
X3.2118Y-3.9825
X3.2118Y-4.0825
X3.2118Y-4.0325
X3.5764Y-3.9028
X3.8735Y-4.5772
X3.9706Y-4.8303
X3.9706Y-4.8803
X3.9706Y-4.9303
X3.9706Y-4.7803
X4.1564Y-3.9325
X4.1564Y-3.9825
X4.1567Y-4.0325
X4.2042Y-4.7803
X4.2042Y-4.8803
X4.2042Y-4.8303
X4.2042Y-4.9303
X5.0443Y-4.9543
X5.1804Y-4.3079
X5.1804Y-4.3472
X5.4166Y-4.3079
X5.4166Y-4.3472
X5.5897Y-4.2284
X5.9243Y-5.0321
X6.2044Y-5.0321
X6.3536Y-5.3947
X6.3653Y-4.077
X6.434Y-3.6833
X6.4478Y-5.4344
X6.4929Y-5.1329
X6.5556Y-5.5422
X6.6743Y-6.0788
X6.7136Y-5.5213
X6.7276Y-3.463
X6.7276Y-3.513
X6.7276Y-3.5605
X6.7276Y-3.363
X6.7276Y-3.413
X6.9009Y-4.2749
X7.3396Y-6.3169
X7.3813Y-3.5205
X7.4813Y-3.5205
X7.5813Y-3.5205
X7.6813Y-3.5205
X7.7813Y-3.5205
X7.7828Y-5.9664
X7.8388Y-6.4696
X7.8813Y-3.5205
X7.8984Y-5.5589
X8.1731Y-4.4912
X8.3842Y-4.2634
X9.1491Y-3.128
X9.3536Y-4.3371
X9.3536Y-4.4152
X9.3935Y-3.082
X9.9536Y-3.0603
X10.6884Y-3.0775
X11.1647Y-3.0713
X11.4877Y-2.9442
X11.8916Y-3.2424
X12.1632Y-7.1973
X12.8749Y-7.1426
X4.9979Y-3.1729
X4.9981Y-3.2251
X5.0314Y-3.1729
X5.0316Y-3.2251
X5.0648Y-3.1729
X5.065Y-3.2251
X5.0983Y-3.1729
X5.0985Y-3.2251
X5.1318Y-3.1729
X5.132Y-3.2251
X5.1652Y-3.1729
X5.1654Y-3.2251
X5.1987Y-3.1729
X5.1989Y-3.2251
X5.2324Y-3.1729
X5.2324Y-3.2251
T2
X5.507Y-3.2371
X5.507Y-3.2961
T3
X4.6199Y-3.351
X4.832Y-3.5631
X5.867Y-2.9511
X5.867Y-3.2511
X5.1359Y-3.664
X5.348Y-3.8761
X4.7939Y-2.9891
X4.7939Y-3.1899
X4.8229Y-3.351
X5.035Y-3.5631
X5.3949Y-3.664
X5.607Y-3.8761
X5.5849Y-3.664
X5.797Y-3.8761
T4
X11.3976Y-3.4299
X11.539Y-3.2885
X7.0093Y-4.0298
X7.0093Y-4.1282
X4.3544Y-3.2885
X4.4958Y-3.4299
X3.8342Y-3.0045
X3.9756Y-3.1459
X4.166Y-3.5725
X4.3074Y-3.7139
X3.4573Y-3.5725
X3.5987Y-3.7139
X4.0704Y-3.0045
X4.2118Y-3.1459
X12.154Y-3.1459
X12.2955Y-3.0045
X4.1182Y-3.2885
X4.2596Y-3.4299
X8.3264Y-3.8698
X8.4678Y-3.7284
X11.6338Y-3.4299
X11.7752Y-3.2885
X11.586Y-3.7139
X11.7275Y-3.5725
X7.1958Y-4.0797
X7.3879Y-4.0797
X8.6104Y-3.5858
X8.7518Y-3.4444
X11.6816Y-3.1459
X11.823Y-3.0045
X8.8776Y-3.8099
X9.019Y-3.6685
X9.4456Y-3.2419
X9.587Y-3.1005
X2.4169Y-3.0045
X2.5583Y-3.1459
X2.6531Y-3.0045
X2.7945Y-3.1459
X1.472Y-3.0045
X1.6134Y-3.1459
X2.5124Y-3.5725
X2.6538Y-3.7139
X3.9297Y-3.5725
X4.0712Y-3.7139
X9.1306Y-3.3018
X9.272Y-3.1604
X4.9344Y-3.6685
X5.0758Y-3.8099
X8.5626Y-3.8698
X8.704Y-3.7284
X9.9803Y-3.4299
X10.1217Y-3.2885
X10.8774Y-3.7139
X11.0188Y-3.5725
X9.6818Y-3.2419
X9.8232Y-3.1005
X3.2211Y-3.5725
X3.3625Y-3.7139
X3.6935Y-3.5725
X3.8349Y-3.7139
X3.4095Y-3.2885
X3.5509Y-3.4299
X3.6457Y-3.2885
X3.7872Y-3.4299
X11.9178Y-3.1459
X12.0592Y-3.0045
X1.7082Y-3.0045
X1.8496Y-3.1459
X9.9325Y-3.7139
X10.0739Y-3.5725
X11.4454Y-3.1459
X11.5868Y-3.0045
X10.9729Y-3.1459
X11.1144Y-3.0045
X8.3742Y-3.5858
X8.5156Y-3.4444
X10.4049Y-3.7139
X10.5464Y-3.5725
X5.3424Y-3.4215
X5.4838Y-3.5629
X2.2284Y-3.2885
X2.3698Y-3.4299
X2.9371Y-3.2885
X3.0785Y-3.4299
X3.1255Y-3.0045
X3.2669Y-3.1459
X7.5734Y-4.0292
X7.5734Y-4.1276
X2.9849Y-3.5725
X3.1263Y-3.7139
X5.9813Y-3.313
X5.9813Y-3.913
X6.0813Y-3.313
X6.0813Y-3.913
X6.1813Y-3.313
X6.1813Y-3.913
X6.2813Y-3.313
X6.2813Y-3.913
X6.3813Y-3.313
X6.3813Y-3.913
X6.4813Y-3.313
X6.4813Y-3.913
X6.5813Y-3.313
X6.5813Y-3.913
X6.6813Y-3.313
X6.6813Y-3.913
X6.7813Y-3.313
X6.7813Y-3.913
X6.8813Y-3.313
X6.8813Y-3.913
X6.9813Y-3.313
X6.9813Y-3.913
X7.0813Y-3.313
X7.0813Y-3.913
X7.1813Y-3.313
X7.1813Y-3.913
X7.2813Y-3.313
X7.2813Y-3.913
X7.3813Y-3.313
X7.3813Y-3.913
X7.4813Y-3.313
X7.4813Y-3.913
X7.5813Y-3.313
X7.5813Y-3.913
X7.6813Y-3.313
X7.6813Y-3.913
X7.7813Y-3.313
X7.7813Y-3.913
X7.8813Y-3.313
X7.8813Y-3.913
X10.2643Y-3.1459
X10.4057Y-3.0045
X2.7009Y-3.2885
X2.8423Y-3.4299
X8.1379Y-3.5858
X8.2794Y-3.4444
X10.4527Y-3.4299
X10.5941Y-3.2885
X8.0902Y-3.8698
X8.2316Y-3.7284
X10.6889Y-3.4299
X10.8304Y-3.2885
X5.1524Y-3.4215
X5.2938Y-3.5629
X3.598Y-3.0045
X3.7394Y-3.1459
X2.8893Y-3.0045
X3.0307Y-3.1459
X1.9922Y-3.2885
X2.1336Y-3.4299
X11.3498Y-3.7139
X11.4912Y-3.5725
X10.2165Y-3.4299
X10.3579Y-3.2885
X11.1136Y-3.7139
X11.255Y-3.5725
X8.6582Y-3.3018
X8.7996Y-3.1604
X8.8944Y-3.3018
X9.0358Y-3.1604
X12.3903Y-3.1459
X12.5317Y-3.0045
X9.1616Y-3.5259
X9.303Y-3.3845
X2.4646Y-3.2885
X2.6061Y-3.4299
X1.9444Y-3.0045
X2.0858Y-3.1459
X2.7486Y-3.5725
X2.8901Y-3.7139
X2.2762Y-3.5725
X2.4176Y-3.7139
X1.756Y-3.2885
X1.8974Y-3.4299
X2.1806Y-3.0045
X2.3221Y-3.1459
X9.6963Y-3.7139
X9.8377Y-3.5725
X10.5005Y-3.1459
X10.6419Y-3.0045
X10.6412Y-3.7139
X10.7826Y-3.5725
X6.8405Y-3.2047
X7.0374Y-3.2047
X10.1687Y-3.7139
X10.3101Y-3.5725
X9.7441Y-3.4299
X9.8855Y-3.2885
X11.2092Y-3.1459
X11.3506Y-3.0045
X3.882Y-3.2885
X4.0234Y-3.4299
X11.1614Y-3.4299
X11.3028Y-3.2885
X4.6384Y-3.5725
X4.7798Y-3.7139
X6.7095Y-4.0155
X6.9064Y-4.0155
X3.3617Y-3.0045
X3.5032Y-3.1459
X4.4022Y-3.5725
X4.5436Y-3.7139
X3.1733Y-3.2885
X3.3147Y-3.4299
X10.9252Y-3.4299
X11.0666Y-3.2885
X8.8466Y-3.5858
X8.988Y-3.4444
X10.7367Y-3.1459
X10.8781Y-3.0045
X9.4601Y-3.7139
X9.6015Y-3.5725
X9.1138Y-3.8099
X9.2552Y-3.6685
X11.87Y-3.4299
X12.0115Y-3.2885
X10.0281Y-3.1459
X10.1695Y-3.0045
X9.3978Y-3.5259
X9.5392Y-3.3845
T5
X5.5074Y-2.9738
X5.5074Y-3.0738
X5.6074Y-2.9738
X5.6074Y-3.0738
X5.7074Y-2.9738
X5.7074Y-3.0738
T6
X7.5688Y-2.9708
X7.5688Y-3.148
X7.8247Y-2.9708
X7.8247Y-3.148
X6.0402Y-2.9708
X6.0402Y-3.148
X6.2961Y-2.9708
X6.2961Y-3.148
T7
X7.4006Y-8.0264
X7.6244Y-7.8767
X2.0772Y-4.2801
X2.3272Y-4.1801
X9.6013Y-7.5575
X9.825Y-7.4078
X10.5268Y-5.1184
X10.7768Y-5.0184
X4.3264Y-4.2801
X4.5764Y-4.1801
X10.461Y-7.4534
X10.711Y-7.3534
X3.9655Y-7.5207
X4.2309Y-7.4748
X9.6841Y-5.2409
X9.9079Y-5.0911
X3.7273Y-5.9364
X3.9927Y-5.8906
X7.2723Y-6.5201
X7.496Y-6.3704
X8.8676Y-7.7135
X9.0914Y-7.5637
X11.8161Y-5.9534
X12.0661Y-5.8534
X7.4833Y-5.7087
X7.707Y-5.5589
X2.8272Y-4.2801
X3.0772Y-4.1801
X3.5764Y-4.2801
X3.8264Y-4.1801
X13.4261Y-8.3563
X13.6761Y-8.2563
X5.2221Y-7.0211
X5.4874Y-6.9753
X2.8964Y-5.9534
X3.1464Y-5.8534
X11.211Y-7.4534
X11.461Y-7.3534
X9.7681Y-8.3426
X9.9919Y-8.1928
X5.1946Y-6.2483
X5.4599Y-6.2025
X8.1342Y-7.8705
X8.358Y-7.7207
X2.6854Y-5.2034
X2.9354Y-5.1034
X6.1664Y-7.9885
X6.4317Y-7.9426
X8.2169Y-5.5528
X8.4407Y-5.403
X1.9354Y-5.2034
X2.1854Y-5.1034
X8.3842Y-4.565
X8.608Y-4.4152
X10.6029Y-4.2801
X10.8529Y-4.1801
X7.6506Y-4.7209
X7.8744Y-4.5711
X14.1761Y-8.3563
X14.4261Y-8.2563
X3.1346Y-7.4534
X3.3846Y-7.3534
X12.7539Y-5.9534
X13.0039Y-5.8534
X5.9282Y-6.4042
X6.1935Y-6.3584
X13.8686Y-5.1978
X14.1186Y-5.0978
X5.7174Y-5.5928
X5.9827Y-5.5469
X11.422Y-6.7034
X11.672Y-6.6034
X6.286Y-4.6583
X6.5513Y-4.6125
X9.8529Y-4.2801
X10.1029Y-4.1801
X6.3687Y-8.7982
X6.634Y-8.7524
X12.7771Y-5.2034
X13.0271Y-5.1034
X9.7759Y-6.7548
X9.9996Y-6.605
X2.3154Y-8.2034
X2.5654Y-8.1034
X10.316Y-5.9108
X10.566Y-5.8108
X5.175Y-8.5447
X5.4403Y-8.4989
X8.3087Y-7.0667
X8.5324Y-6.9169
X6.4509Y-5.7486
X6.7162Y-5.7028
X12.4021Y-5.2034
X12.6521Y-5.1034
X12.1029Y-4.2801
X12.3529Y-4.1801
X5.5524Y-4.5023
X5.8177Y-4.4565
X7.575Y-7.2226
X7.7988Y-7.0728
X1.705Y-6.7034
X1.955Y-6.6034
X1.3779Y-8.2034
X1.6279Y-8.1034
X3.7934Y-8.2831
X4.0587Y-8.2373
X3.7549Y-6.7093
X4.0202Y-6.6634
X11.2771Y-5.2034
X11.5271Y-5.1034
X14.0076Y-5.949
X14.2576Y-5.849
X8.1984Y-8.6235
X8.4222Y-8.4737
X1.959Y-5.9534
X2.209Y-5.8534
X4.2502Y-5.2809
X4.5155Y-5.2351
X8.9505Y-5.3969
X9.1743Y-5.2471
X4.6991Y-7.6766
X4.9645Y-7.6308
X11.3529Y-4.2801
X11.6029Y-4.1801
X1.8925Y-6.7034
X2.1425Y-6.6034
X5.0848Y-8.5253
X5.3501Y-8.4795
X4.461Y-6.0924
X4.7263Y-6.0465
X6.2775Y-8.7789
X6.5429Y-8.733
X1.9161Y-7.4534
X2.1661Y-7.3534
X10.672Y-6.7034
X10.922Y-6.6034
X12.2423Y-7.4534
X12.4923Y-7.3534
X9.4731Y-6.0523
X9.6969Y-5.9026
X12.6405Y-6.7034
X12.8905Y-6.6034
X12.6761Y-8.3563
X12.9261Y-8.2563
X4.9838Y-5.4368
X5.2491Y-5.391
X2.9239Y-6.7034
X3.1739Y-6.6034
X11.0661Y-5.9534
X11.3161Y-5.8534
X8.7395Y-6.2083
X8.9632Y-6.0585
X4.4885Y-6.8652
X4.7538Y-6.8194
X11.5867Y-8.2033
X11.8367Y-8.1033
X5.9557Y-7.1771
X6.2211Y-7.1312
X13.3239Y-4.2801
X13.5739Y-4.1801
X12.0271Y-5.2034
X12.2771Y-5.1034
X5.4328Y-7.8325
X5.6981Y-7.7867
X8.0059Y-6.3642
X8.2296Y-6.2144
X13.4261Y-7.6063
X13.6761Y-7.5063
X3.4353Y-5.1436
X3.6853Y-5.0436
X9.0423Y-6.9108
X9.266Y-6.761
X14.1761Y-6.7034
X14.4261Y-6.6034
T2
G00X4.945Y-3.0692
M15
G01X4.945Y-3.0377
M16
G05
G00X4.945Y-3.216
M15
G01X4.945Y-3.157
M16
G05
G00X5.2855Y-3.0692
M15
G01X5.2855Y-3.0377
M16
G05
G00X5.2855Y-3.216
M15
G01X5.2855Y-3.157
M16
G05
T0
M30
