M48
; DRILL file {KiCad (5.1.6)-1} date 07/28/20 10:39:03
; FORMAT={-:-/ absolute / inch / decimal}
; #@! TF.CreationDate,2020-07-28T10:39:03-05:00
; #@! TF.GenerationSoftware,Kicad,Pcbnew,(5.1.6)-1
; #@! TF.FileFunction,NonPlated,1,2,NPTH
FMAT,2
INCH
T1C0.0689
T2C0.0866
T3C0.1200
T4C0.1570
%
G90
G05
T1
X7.3725Y-8.1347
X7.7638Y-8.0515
X2.0272Y-4.3801
X2.4272Y-4.3801
X9.5731Y-7.6658
X9.9644Y-7.5826
X10.4768Y-5.2184
X10.8768Y-5.2184
X4.2764Y-4.3801
X4.6764Y-4.3801
X10.411Y-7.5534
X10.811Y-7.5534
X3.8958Y-7.6081
X4.2871Y-7.6913
X9.656Y-5.3491
X10.0473Y-5.266
X3.6576Y-6.0238
X4.0489Y-6.107
X7.2442Y-6.6284
X7.6354Y-6.5452
X8.8395Y-7.8217
X9.2308Y-7.7385
X11.7661Y-6.0534
X12.1661Y-6.0534
X7.4552Y-5.8169
X7.8464Y-5.7338
X2.7772Y-4.3801
X3.1772Y-4.3801
X3.5264Y-4.3801
X3.9264Y-4.3801
X13.3761Y-8.4563
X13.7761Y-8.4563
X5.1524Y-7.1085
X5.5437Y-7.1917
X2.8464Y-6.0534
X3.2464Y-6.0534
X11.161Y-7.5534
X11.561Y-7.5534
X9.74Y-8.4508
X10.1313Y-8.3676
X5.1249Y-6.3357
X5.5161Y-6.4189
X8.1061Y-7.9787
X8.4974Y-7.8956
X2.6354Y-5.3034
X3.0354Y-5.3034
X6.0967Y-8.0759
X6.4879Y-8.1591
X8.1888Y-5.661
X8.5801Y-5.5778
X1.8854Y-5.3034
X2.2854Y-5.3034
X8.3561Y-4.6732
X8.7474Y-4.59
X10.5529Y-4.3801
X10.9529Y-4.3801
X7.6225Y-4.8291
X8.0138Y-4.7459
X14.1261Y-8.4563
X14.5261Y-8.4563
X3.0846Y-7.5534
X3.4846Y-7.5534
X12.7039Y-6.0534
X13.1039Y-6.0534
X5.8585Y-6.4916
X6.2497Y-6.5748
X13.8186Y-5.2978
X14.2186Y-5.2978
X5.6477Y-5.6802
X6.039Y-5.7634
X11.372Y-6.8034
X11.772Y-6.8034
X6.2163Y-4.7457
X6.6076Y-4.8289
X9.8029Y-4.3801
X10.2029Y-4.3801
X6.299Y-8.8857
X6.6902Y-8.9688
X12.7271Y-5.3034
X13.1271Y-5.3034
X9.7478Y-6.863
X10.139Y-6.7799
X2.2654Y-8.3034
X2.6654Y-8.3034
X10.266Y-6.0108
X10.666Y-6.0108
X5.1053Y-8.6321
X5.4965Y-8.7153
X8.2805Y-7.1749
X8.6718Y-7.0917
X6.3812Y-5.836
X6.7725Y-5.9192
X12.3521Y-5.3034
X12.7521Y-5.3034
X12.0529Y-4.3801
X12.4529Y-4.3801
X5.4827Y-4.5897
X5.874Y-4.6729
X7.5469Y-7.3308
X7.9382Y-7.2477
X1.655Y-6.8034
X2.055Y-6.8034
X1.3279Y-8.3034
X1.7279Y-8.3034
X3.7237Y-8.3705
X4.115Y-8.4537
X3.6852Y-6.7967
X4.0765Y-6.8798
X11.2271Y-5.3034
X11.6271Y-5.3034
X13.9576Y-6.049
X14.3576Y-6.049
X8.1703Y-8.7317
X8.5616Y-8.6485
X1.909Y-6.0534
X2.309Y-6.0534
X4.1805Y-5.3683
X4.5717Y-5.4515
X8.9224Y-5.5051
X9.3137Y-5.4219
X4.6294Y-7.764
X5.0207Y-7.8472
X11.3029Y-4.3801
X11.7029Y-4.3801
X1.8425Y-6.8034
X2.2425Y-6.8034
X5.0151Y-8.6127
X5.4063Y-8.6959
X4.3913Y-6.1798
X4.7825Y-6.2629
X6.2078Y-8.8663
X6.5991Y-8.9494
X1.8661Y-7.5534
X2.2661Y-7.5534
X10.622Y-6.8034
X11.022Y-6.8034
X12.1923Y-7.5534
X12.5923Y-7.5534
X9.445Y-6.1606
X9.8362Y-6.0774
X12.5905Y-6.8034
X12.9905Y-6.8034
X12.6261Y-8.4563
X13.0261Y-8.4563
X4.9141Y-5.5243
X5.3053Y-5.6074
X2.8739Y-6.8034
X3.2739Y-6.8034
X11.0161Y-6.0534
X11.4161Y-6.0534
X8.7114Y-6.3165
X9.1026Y-6.2333
X4.4188Y-6.9526
X4.8101Y-7.0358
X11.5367Y-8.3033
X11.9367Y-8.3033
X5.886Y-7.2645
X6.2773Y-7.3476
X13.2739Y-4.3801
X13.6739Y-4.3801
X11.9771Y-5.3034
X12.3771Y-5.3034
X5.3631Y-7.92
X5.7543Y-8.0031
X7.9778Y-6.4724
X8.369Y-6.3893
X13.3761Y-7.7063
X13.7761Y-7.7063
X3.3853Y-5.2436
X3.7853Y-5.2436
X9.0141Y-7.019
X9.4054Y-6.9358
X14.1261Y-6.8034
X14.5261Y-6.8034
T2
X10.9068Y-8.3163
X14.539Y-4.3399
X1.2319Y-3.7493
X6.9093Y-3.021
X3.1519Y-8.3163
X14.539Y-3.08
X14.539Y-3.7493
X1.2319Y-4.3399
X7.2993Y-4.9814
X7.1254Y-9.0249
X1.2319Y-3.08
X14.539Y-7.6663
T3
X4.7852Y-8.8452
X5.7022Y-9.0401
X12.0833Y-5.0284
X13.0208Y-5.0284
X7.9646Y-9.0566
X8.8816Y-8.8616
X4.695Y-8.8259
X5.612Y-9.0208
X1.5973Y-7.2784
X2.5348Y-7.2784
X12.3217Y-6.5284
X13.2592Y-6.5284
T4
X6.2923Y-8.1175
X8.3844Y-5.6194
X2.0854Y-5.3034
X8.5517Y-4.6316
X10.7529Y-4.3801
X7.8181Y-4.7875
X14.3261Y-8.4563
X3.2846Y-7.5534
X12.9039Y-6.0534
X6.0541Y-6.5332
X14.0186Y-5.2978
X5.8433Y-5.7218
X11.572Y-6.8034
X6.4119Y-4.7873
X10.0029Y-4.3801
X6.4946Y-8.9272
X12.9271Y-5.3034
X9.9434Y-6.8215
X2.4654Y-8.3034
X10.466Y-6.0108
X4.91Y-8.2583
X5.3009Y-8.6737
X5.827Y-8.4533
X8.4762Y-7.1333
X6.5768Y-5.8776
X12.0833Y-5.6284
X12.5521Y-5.3034
X13.0208Y-5.6284
X12.2529Y-4.3801
X5.6783Y-4.6313
X7.7426Y-7.2893
X1.855Y-6.8034
X1.5279Y-8.3034
X3.9193Y-8.4121
X3.8808Y-6.8383
X11.4271Y-5.3034
X14.1576Y-6.049
X7.8399Y-8.4697
X8.3659Y-8.6901
X8.7569Y-8.2747
X2.109Y-6.0534
X4.3761Y-5.4099
X9.118Y-5.4635
X4.8251Y-7.8056
X11.5029Y-4.3801
X2.0425Y-6.8034
X4.8198Y-8.239
X5.2107Y-8.6543
X5.7368Y-8.4339
X4.5869Y-6.2214
X6.4035Y-8.9079
X1.5973Y-7.8784
X2.0661Y-7.5534
X2.5348Y-7.8784
X10.822Y-6.8034
X12.3923Y-7.5534
X9.6406Y-6.119
X12.3217Y-7.1284
X12.7905Y-6.8034
X13.2592Y-7.1284
X12.8261Y-8.4563
X5.1097Y-5.5658
X3.0739Y-6.8034
X11.2161Y-6.0534
X8.907Y-6.2749
X4.6144Y-6.9942
X11.7367Y-8.3033
X6.0817Y-7.3061
X13.4739Y-4.3801
X12.1771Y-5.3034
X5.5587Y-7.9615
X8.1734Y-6.4308
X13.5761Y-7.7063
X3.5853Y-5.2436
X9.2098Y-6.9774
X14.3261Y-6.8034
X7.5681Y-8.0931
X2.2272Y-4.3801
X9.7688Y-7.6242
X10.6768Y-5.2184
X4.4764Y-4.3801
X10.611Y-7.5534
X4.0915Y-7.6497
X9.8516Y-5.3076
X3.8533Y-6.0654
X7.4398Y-6.5868
X9.0352Y-7.7801
X11.9661Y-6.0534
X7.6508Y-5.7754
X2.9772Y-4.3801
X3.7264Y-4.3801
X13.5761Y-8.4563
X5.3481Y-7.1501
X3.0464Y-6.0534
X11.361Y-7.5534
X9.9356Y-8.4092
X5.3205Y-6.3773
X8.3017Y-7.9371
X2.8354Y-5.3034
T0
M30
