G04 #@! TF.GenerationSoftware,KiCad,Pcbnew,(5.1.6)-1*
G04 #@! TF.CreationDate,2020-07-26T17:31:49-05:00*
G04 #@! TF.ProjectId,Bonsai Plate,426f6e73-6169-4205-906c-6174652e6b69,rev?*
G04 #@! TF.SameCoordinates,Original*
G04 #@! TF.FileFunction,Profile,NP*
%FSLAX46Y46*%
G04 Gerber Fmt 4.6, Leading zero omitted, Abs format (unit mm)*
G04 Created by KiCad (PCBNEW (5.1.6)-1) date 2020-07-26 17:31:49*
%MOMM*%
%LPD*%
G01*
G04 APERTURE LIST*
G04 #@! TA.AperFunction,Profile*
%ADD10C,0.150000*%
G04 #@! TD*
G04 #@! TA.AperFunction,Profile*
%ADD11C,0.050000*%
G04 #@! TD*
G04 #@! TA.AperFunction,Profile*
%ADD12C,0.200000*%
G04 #@! TD*
G04 APERTURE END LIST*
D10*
X157728979Y-205222475D02*
X173738009Y-208630491D01*
X176650530Y-194933713D02*
X160639314Y-191530424D01*
X160639314Y-191530424D02*
X157728979Y-205222475D01*
X173738445Y-208630584D02*
X176650530Y-194933713D01*
X62265111Y-153381913D02*
X62265112Y-139379537D01*
X43502131Y-153379375D02*
X62265111Y-153381913D01*
X43502337Y-139379536D02*
X43502131Y-153379375D01*
X62265112Y-139379537D02*
X43502337Y-139379536D01*
X330659082Y-115281914D02*
X313783084Y-115281915D01*
X330659082Y-101279533D02*
X313783721Y-101279533D01*
X338732338Y-115281915D02*
X337659719Y-115281914D01*
X338732338Y-101279537D02*
X338732338Y-115281915D01*
X337659718Y-101279533D02*
X338732338Y-101279537D01*
X306783086Y-115281915D02*
X306783087Y-116791180D01*
X305682338Y-115279533D02*
X306783086Y-115281915D01*
X305682337Y-101279532D02*
X305682338Y-115279533D01*
X306783717Y-101279532D02*
X306783717Y-99791497D01*
X305682337Y-101279532D02*
X306783717Y-101279532D01*
D11*
X175772505Y-212565942D02*
X191963058Y-212565944D01*
X34102838Y-198927312D02*
G75*
G02*
X29299700Y-194129252I-2539J4800599D01*
G01*
X111608400Y-198927313D02*
X175772506Y-212565754D01*
X34102839Y-198927314D02*
X111608400Y-198927313D01*
X247887143Y-75627363D02*
G75*
G02*
X248245160Y-75259794I358016J9429D01*
G01*
X124918589Y-75257255D02*
G75*
G02*
X126657900Y-76952022I22272J-1717039D01*
G01*
X34100388Y-75257080D02*
G75*
G03*
X29302331Y-80055141I2J-4798059D01*
G01*
X126657900Y-76952022D02*
X126657831Y-76968627D01*
X126657831Y-76968627D02*
X175028379Y-87250549D01*
X34100387Y-75257082D02*
X124918588Y-75257253D01*
X372969593Y-75259620D02*
X248245160Y-75259794D01*
X193206772Y-87250548D02*
X247888704Y-75627323D01*
X175028379Y-87250549D02*
X193206772Y-87250548D01*
D10*
X313783721Y-101279533D02*
X313783722Y-99791497D01*
X337159715Y-99291493D02*
G75*
G02*
X337659723Y-99791497I2J-500006D01*
G01*
X337659718Y-101279533D02*
X337659723Y-99791497D01*
X313283716Y-99291491D02*
G75*
G02*
X313783722Y-99791497I0J-500006D01*
G01*
X313283718Y-99291498D02*
X307283718Y-99291496D01*
X337159721Y-99291496D02*
X331159721Y-99291495D01*
X330659716Y-99791496D02*
G75*
G02*
X331159721Y-99291495I500003J-2D01*
G01*
X330659082Y-101279533D02*
X330659720Y-99791495D01*
X306783717Y-99791497D02*
G75*
G02*
X307283718Y-99291496I500001J0D01*
G01*
D12*
X319823046Y-154877082D02*
X319823841Y-137876253D01*
X343199836Y-137376256D02*
G75*
G02*
X343699841Y-137876257I2J-500003D01*
G01*
X343699043Y-154877082D02*
X343699841Y-137876257D01*
X319323832Y-137376254D02*
G75*
G02*
X319823841Y-137876253I5J-500004D01*
G01*
X319323841Y-137376257D02*
X313323838Y-137376255D01*
X343199839Y-137376257D02*
X337199841Y-137376257D01*
X336699840Y-137876256D02*
G75*
G02*
X337199841Y-137376257I500000J-1D01*
G01*
X336699042Y-154877081D02*
X336699841Y-137876256D01*
X312823044Y-154877081D02*
X312823838Y-137876254D01*
X312823837Y-137876256D02*
G75*
G02*
X313323838Y-137376255I500001J0D01*
G01*
X313323043Y-155377082D02*
G75*
G02*
X312823044Y-154877081I1J500000D01*
G01*
X337199043Y-155377086D02*
G75*
G02*
X336699042Y-154877081I2J500003D01*
G01*
X337199046Y-155377084D02*
X343199046Y-155377082D01*
X313323045Y-155377082D02*
X319323045Y-155377082D01*
X319823047Y-154877082D02*
G75*
G02*
X319323045Y-155377082I-500001J1D01*
G01*
X343699044Y-154877080D02*
G75*
G02*
X343199046Y-155377082I-500000J-2D01*
G01*
X222363022Y-184225738D02*
X225896073Y-200854879D01*
X203134849Y-206204093D02*
G75*
G02*
X202541821Y-205818975I-103955J489073D01*
G01*
X199631057Y-192124910D02*
X202541821Y-205818975D01*
X226489108Y-201239996D02*
G75*
G02*
X225896073Y-200854879I-103959J489076D01*
G01*
X226489101Y-201239997D02*
X232357988Y-199992524D01*
X203134848Y-206204095D02*
X209003736Y-204956625D01*
X209388858Y-204363595D02*
G75*
G02*
X209003736Y-204956625I-489076J-103954D01*
G01*
X206478092Y-190669529D02*
X209388855Y-204363594D01*
X229210061Y-182770354D02*
X232743107Y-199399493D01*
X232743107Y-199399493D02*
G75*
G02*
X232357988Y-199992524I-489075J-103956D01*
G01*
X148461983Y-205309391D02*
X150751166Y-205793744D01*
X125107731Y-200345288D02*
X127396915Y-200829645D01*
X127989943Y-200444529D02*
G75*
G02*
X127396915Y-200829645I-489072J103956D01*
G01*
X128300461Y-198979769D02*
X127989947Y-200444527D01*
X154254960Y-191714562D02*
X151344196Y-205408629D01*
X151344195Y-205408627D02*
G75*
G02*
X150751166Y-205793744I-489073J103956D01*
G01*
X47413283Y-173915780D02*
X47416441Y-156916485D01*
X70792440Y-156416483D02*
G75*
G02*
X71292441Y-156916486I-1J-500002D01*
G01*
X71289284Y-173915779D02*
X71292441Y-156916486D01*
X46916438Y-156416482D02*
G75*
G02*
X47416441Y-156916485I0J-500003D01*
G01*
X46916441Y-156416484D02*
X40916438Y-156416484D01*
X70792442Y-156416486D02*
X64792444Y-156416483D01*
X64292442Y-156916483D02*
G75*
G02*
X64792444Y-156416483I500001J-1D01*
G01*
X64289283Y-173915780D02*
X64292443Y-156916483D01*
X40413283Y-173915781D02*
X40416438Y-156916484D01*
X40416438Y-156916486D02*
G75*
G02*
X40916438Y-156416484I500001J1D01*
G01*
X142520171Y-201997607D02*
X142207980Y-203468891D01*
X119238848Y-199097816D02*
G75*
G02*
X118853726Y-198504792I103951J489073D01*
G01*
X121764489Y-184810723D02*
X118853726Y-198504792D01*
X142593094Y-204061917D02*
G75*
G02*
X142207980Y-203468891I103956J489070D01*
G01*
X142593099Y-204061921D02*
X148461983Y-205309391D01*
X119238847Y-199097818D02*
X125107731Y-200345288D01*
X206478092Y-190669529D02*
X205855808Y-187734451D01*
X228617026Y-182385233D02*
G75*
G02*
X229210061Y-182770354I103957J-489078D01*
G01*
X205262769Y-187349330D02*
G75*
G02*
X205855808Y-187734451I103959J-489080D01*
G01*
X205262776Y-187349336D02*
X199393889Y-188596805D01*
X228617029Y-182385236D02*
X222748142Y-183632706D01*
X222363024Y-184225736D02*
G75*
G02*
X222748142Y-183632706I489074J103956D01*
G01*
X199631057Y-192124910D02*
X199008771Y-189187298D01*
X199008769Y-189189835D02*
G75*
G02*
X199393889Y-188596805I489075J103955D01*
G01*
X143489589Y-187895598D02*
X131210687Y-185288232D01*
X125269193Y-181975241D02*
X122985731Y-181492640D01*
X152208870Y-187704214D02*
X146339984Y-186456742D01*
X145746950Y-186841862D02*
G75*
G02*
X146339984Y-186456742I489077J-103957D01*
G01*
X145435519Y-188306412D02*
X145746956Y-186841860D01*
X121764489Y-184810723D02*
X122392701Y-181877761D01*
X122392697Y-181877762D02*
G75*
G02*
X122985731Y-181492640I489078J-103956D01*
G01*
X140862486Y-201647852D02*
X128300461Y-198979769D01*
X131210687Y-185288232D02*
X131523195Y-183815745D01*
X145435519Y-188306412D02*
X143489589Y-187895598D01*
X154492330Y-188186815D02*
G75*
G02*
X154877446Y-188779845I-103957J-489073D01*
G01*
X154254960Y-191714562D02*
X154877446Y-188779845D01*
X131138077Y-183222713D02*
G75*
G02*
X131523195Y-183815745I-103957J-489075D01*
G01*
X131138077Y-183222716D02*
X125269193Y-181975241D01*
X154492329Y-188186814D02*
X152208870Y-187704214D01*
X142520171Y-201997607D02*
X140862486Y-201647852D01*
D10*
X330659082Y-115281914D02*
X330659084Y-116791180D01*
X307283083Y-117291176D02*
G75*
G02*
X306783087Y-116791180I0J499996D01*
G01*
X331159087Y-117291181D02*
G75*
G02*
X330659084Y-116791180I-1J500002D01*
G01*
X331159083Y-117291177D02*
X337159086Y-117291179D01*
X307283083Y-117291180D02*
X313283086Y-117291182D01*
X313783086Y-116791176D02*
G75*
G02*
X313283086Y-117291182I-500003J-3D01*
G01*
X313783084Y-115281915D02*
X313783084Y-116791181D01*
X337659719Y-115281914D02*
X337659083Y-116791182D01*
X337659087Y-116791176D02*
G75*
G02*
X337159086Y-117291179I-500002J-1D01*
G01*
D12*
X40913286Y-174415784D02*
G75*
G02*
X40413283Y-173915781I0J500003D01*
G01*
X64789287Y-174415786D02*
G75*
G02*
X64289283Y-173915780I1J500005D01*
G01*
X64789284Y-174415780D02*
X70789283Y-174415780D01*
X40913284Y-174415779D02*
X46913285Y-174415781D01*
X47413283Y-173915779D02*
G75*
G02*
X46913285Y-174415781I-500000J-2D01*
G01*
X71289285Y-173915782D02*
G75*
G02*
X70789283Y-174415780I-500000J2D01*
G01*
D11*
X377764932Y-194140228D02*
G75*
G02*
X372956712Y-198928126I-4798059J10161D01*
G01*
X372969596Y-75259619D02*
G75*
G02*
X377767651Y-80057680I-3J-4798058D01*
G01*
X191963058Y-212565944D02*
X256133025Y-198926193D01*
X29302331Y-80055141D02*
X29299700Y-194129252D01*
X377764933Y-194140230D02*
X377767651Y-80057680D01*
X372956712Y-198928126D02*
X256133116Y-198927005D01*
D10*
G04 #@! TO.C,SW_LSHFT1*
X48862337Y-158429535D02*
X48862337Y-172429535D01*
X48862337Y-172429535D02*
X62862337Y-172429535D01*
X62862337Y-172429535D02*
X62862337Y-158429535D01*
X62862337Y-158429535D02*
X48862337Y-158429535D01*
G04 #@! TO.C,SW_RCTRL1*
X308497517Y-177478216D02*
X294497517Y-177478216D01*
X308497517Y-191478216D02*
X308497517Y-177478216D01*
X294497517Y-191478216D02*
X308497517Y-191478216D01*
X294497517Y-177478216D02*
X294497517Y-191478216D01*
G04 #@! TO.C,SW_LALT1*
X111237970Y-181850085D02*
X97543904Y-178939321D01*
X108327206Y-195544151D02*
X111237970Y-181850085D01*
X94633140Y-192633387D02*
X108327206Y-195544151D01*
X97543904Y-178939321D02*
X94633140Y-192633387D01*
G04 #@! TO.C,SW_P1*
X276221738Y-119248716D02*
X262221738Y-119248716D01*
X276221738Y-133248716D02*
X276221738Y-119248716D01*
X262221738Y-133248716D02*
X276221738Y-133248716D01*
X262221738Y-119248716D02*
X262221738Y-133248716D01*
G04 #@! TO.C,SW_10*
X259007532Y-100083822D02*
X245313466Y-102994586D01*
X261918296Y-113777888D02*
X259007532Y-100083822D01*
X248224230Y-116688652D02*
X261918296Y-113777888D01*
X245313466Y-102994586D02*
X248224230Y-116688652D01*
G04 #@! TO.C,SW_ENT1*
X335262338Y-139379535D02*
X321262338Y-139379535D01*
X335262338Y-153379535D02*
X335262338Y-139379535D01*
X321262338Y-153379535D02*
X335262338Y-153379535D01*
X321262338Y-139379535D02*
X321262338Y-153379535D01*
G04 #@! TO.C,SW_|1*
X338142339Y-120329536D02*
X324142339Y-120329536D01*
X338142339Y-134329536D02*
X338142339Y-120329536D01*
X324142339Y-134329536D02*
X338142339Y-134329536D01*
X324142339Y-120329536D02*
X324142339Y-134329536D01*
G04 #@! TO.C,SW_Z1*
X93812338Y-158429534D02*
X79812338Y-158429534D01*
X93812338Y-172429534D02*
X93812338Y-158429534D01*
X79812338Y-172429534D02*
X93812338Y-172429534D01*
X79812338Y-158429534D02*
X79812338Y-172429534D01*
G04 #@! TO.C,SW_Y1*
X197746392Y-132575973D02*
X184052326Y-135486737D01*
X200657156Y-146270039D02*
X197746392Y-132575973D01*
X186963090Y-149180803D02*
X200657156Y-146270039D01*
X184052326Y-135486737D02*
X186963090Y-149180803D01*
G04 #@! TO.C,SW_X1*
X115609672Y-162484346D02*
X101915606Y-159573582D01*
X112698908Y-176178412D02*
X115609672Y-162484346D01*
X99004842Y-173267648D02*
X112698908Y-176178412D01*
X101915606Y-159573582D02*
X99004842Y-173267648D01*
G04 #@! TO.C,SW_WIN1*
X73006500Y-177480756D02*
X59006500Y-177480756D01*
X73006500Y-191480756D02*
X73006500Y-177480756D01*
X59006500Y-191480756D02*
X73006500Y-191480756D01*
X59006500Y-177480756D02*
X59006500Y-191480756D01*
G04 #@! TO.C,SW_W1*
X109559672Y-122244347D02*
X95865606Y-119333583D01*
X106648908Y-135938413D02*
X109559672Y-122244347D01*
X92954842Y-133027649D02*
X106648908Y-135938413D01*
X95865606Y-119333583D02*
X92954842Y-133027649D01*
G04 #@! TO.C,SW_V1*
X152877095Y-170405780D02*
X139183029Y-167495016D01*
X149966331Y-184099846D02*
X152877095Y-170405780D01*
X136272265Y-181189082D02*
X149966331Y-184099846D01*
X139183029Y-167495016D02*
X136272265Y-181189082D01*
G04 #@! TO.C,SW_UP1*
X355218276Y-162314416D02*
X341218276Y-162314416D01*
X355218276Y-176314416D02*
X355218276Y-162314416D01*
X341218276Y-176314416D02*
X355218276Y-176314416D01*
X341218276Y-162314416D02*
X341218276Y-176314416D01*
G04 #@! TO.C,SW_U1*
X216380104Y-128615259D02*
X202686038Y-131526023D01*
X219290868Y-142309325D02*
X216380104Y-128615259D01*
X205596802Y-145220089D02*
X219290868Y-142309325D01*
X202686038Y-131526023D02*
X205596802Y-145220089D01*
G04 #@! TO.C,SW_TAB1*
X63952338Y-120329536D02*
X49952338Y-120329536D01*
X63952338Y-134329536D02*
X63952338Y-120329536D01*
X49952338Y-134329536D02*
X63952338Y-134329536D01*
X49952338Y-120329536D02*
X49952338Y-134329536D01*
G04 #@! TO.C,SW_T1*
X165460808Y-134126500D02*
X151766742Y-131215736D01*
X162550044Y-147820566D02*
X165460808Y-134126500D01*
X148855978Y-144909802D02*
X162550044Y-147820566D01*
X151766742Y-131215736D02*
X148855978Y-144909802D01*
G04 #@! TO.C,SW_SLSH1*
X298952335Y-158429540D02*
X284952335Y-158429540D01*
X298952335Y-172429540D02*
X298952335Y-158429540D01*
X284952335Y-172429540D02*
X298952335Y-172429540D01*
X284952335Y-158429540D02*
X284952335Y-172429540D01*
G04 #@! TO.C,SW_SCLN1*
X285262338Y-139379538D02*
X271262338Y-139379538D01*
X285262338Y-153379538D02*
X285262338Y-139379538D01*
X271262338Y-153379538D02*
X285262338Y-153379538D01*
X271262338Y-139379538D02*
X271262338Y-153379538D01*
G04 #@! TO.C,SW_S1*
X110259672Y-141874344D02*
X96565606Y-138963580D01*
X107348908Y-155568410D02*
X110259672Y-141874344D01*
X93654842Y-152657646D02*
X107348908Y-155568410D01*
X96565606Y-138963580D02*
X93654842Y-152657646D01*
G04 #@! TO.C,SW_RSPC1*
X221270846Y-186000522D02*
X207576780Y-188911286D01*
X224181610Y-199694588D02*
X221270846Y-186000522D01*
X210487544Y-202605352D02*
X224181610Y-199694588D01*
X207576780Y-188911286D02*
X210487544Y-202605352D01*
G04 #@! TO.C,SW_RSHFT1*
X325147337Y-158429536D02*
X311147337Y-158429536D01*
X325147337Y-172429536D02*
X325147337Y-158429536D01*
X311147337Y-172429536D02*
X325147337Y-172429536D01*
X311147337Y-158429536D02*
X311147337Y-172429536D01*
G04 #@! TO.C,SW_RGHT1*
X374268274Y-181364415D02*
X360268274Y-181364415D01*
X374268274Y-195364415D02*
X374268274Y-181364415D01*
X360268274Y-195364415D02*
X374268274Y-195364415D01*
X360268274Y-181364415D02*
X360268274Y-195364415D01*
G04 #@! TO.C,SW_RALT1*
X261141232Y-178865663D02*
X247447166Y-181776427D01*
X264051996Y-192559729D02*
X261141232Y-178865663D01*
X250357930Y-195470493D02*
X264051996Y-192559729D01*
X247447166Y-181776427D02*
X250357930Y-195470493D01*
G04 #@! TO.C,SW_R1*
X146827094Y-130165779D02*
X133133028Y-127255015D01*
X143916330Y-143859845D02*
X146827094Y-130165779D01*
X130222264Y-140949081D02*
X143916330Y-143859845D01*
X133133028Y-127255015D02*
X130222264Y-140949081D01*
G04 #@! TO.C,SW_Q1*
X87762336Y-120329534D02*
X73762336Y-120329534D01*
X87762336Y-134329534D02*
X87762336Y-120329534D01*
X73762336Y-134329534D02*
X87762336Y-134329534D01*
X73762336Y-120329534D02*
X73762336Y-134329534D01*
G04 #@! TO.C,SW_PRD1*
X279902335Y-158429535D02*
X265902335Y-158429535D01*
X279902335Y-172429535D02*
X279902335Y-158429535D01*
X265902335Y-172429535D02*
X279902335Y-172429535D01*
X265902335Y-158429535D02*
X265902335Y-172429535D01*
G04 #@! TO.C,SW_PLUS1*
X300632338Y-101279537D02*
X286632338Y-101279537D01*
X300632338Y-115279537D02*
X300632338Y-101279537D01*
X286632338Y-115279537D02*
X300632338Y-115279537D01*
X286632338Y-101279537D02*
X286632338Y-115279537D01*
G04 #@! TO.C,SW_O1*
X253647527Y-120693822D02*
X239953461Y-123604586D01*
X256558291Y-134387888D02*
X253647527Y-120693822D01*
X242864225Y-137298652D02*
X256558291Y-134387888D01*
X239953461Y-123604586D02*
X242864225Y-137298652D01*
G04 #@! TO.C,SW_N1*
X219640104Y-166875258D02*
X205946038Y-169786022D01*
X222550868Y-180569324D02*
X219640104Y-166875258D01*
X208856802Y-183480088D02*
X222550868Y-180569324D01*
X205946038Y-169786022D02*
X208856802Y-183480088D01*
G04 #@! TO.C,SW_M4*
X374268275Y-139379539D02*
X360268275Y-139379539D01*
X374268275Y-153379539D02*
X374268275Y-139379539D01*
X360268275Y-153379539D02*
X374268275Y-153379539D01*
X360268275Y-139379539D02*
X360268275Y-153379539D01*
G04 #@! TO.C,SW_M5*
X238268735Y-162886597D02*
X224574669Y-165797361D01*
X241179499Y-176580663D02*
X238268735Y-162886597D01*
X227485433Y-179491427D02*
X241179499Y-176580663D01*
X224574669Y-165797361D02*
X227485433Y-179491427D01*
G04 #@! TO.C,SW_M3*
X369988379Y-120218996D02*
X355988379Y-120218996D01*
X369988379Y-134218996D02*
X369988379Y-120218996D01*
X355988379Y-134218996D02*
X369988379Y-134218996D01*
X355988379Y-120218996D02*
X355988379Y-134218996D01*
G04 #@! TO.C,SW_M2*
X366457774Y-101138516D02*
X352457774Y-101138516D01*
X366457774Y-115138516D02*
X366457774Y-101138516D01*
X352457774Y-115138516D02*
X366457774Y-115138516D01*
X352457774Y-101138516D02*
X352457774Y-115138516D01*
G04 #@! TO.C,SW_M1*
X352622398Y-77828938D02*
X338622398Y-77828938D01*
X352622398Y-91828938D02*
X352622398Y-77828938D01*
X338622398Y-91828938D02*
X352622398Y-91828938D01*
X338622398Y-77828938D02*
X338622398Y-91828938D01*
G04 #@! TO.C,SW_LEFT1*
X336168277Y-181364415D02*
X322168277Y-181364415D01*
X336168277Y-195364415D02*
X336168277Y-181364415D01*
X322168277Y-195364415D02*
X336168277Y-195364415D01*
X322168277Y-181364415D02*
X322168277Y-195364415D01*
G04 #@! TO.C,SW_LCTRL1*
X49193997Y-177480755D02*
X35193997Y-177480755D01*
X49193997Y-191480755D02*
X49193997Y-177480755D01*
X35193997Y-191480755D02*
X49193997Y-191480755D01*
X35193997Y-177480755D02*
X35193997Y-191480755D01*
G04 #@! TO.C,SW_L1*
X261337886Y-138536863D02*
X247643820Y-141447627D01*
X264248650Y-152230929D02*
X261337886Y-138536863D01*
X250554584Y-155141693D02*
X264248650Y-152230929D01*
X247643820Y-141447627D02*
X250554584Y-155141693D01*
G04 #@! TO.C,SW_K1*
X242704176Y-142497578D02*
X229010110Y-145408342D01*
X245614940Y-156191644D02*
X242704176Y-142497578D01*
X231920874Y-159102408D02*
X245614940Y-156191644D01*
X229010110Y-145408342D02*
X231920874Y-159102408D01*
G04 #@! TO.C,SW_J1*
X224070467Y-146458297D02*
X210376401Y-149369061D01*
X226981231Y-160152363D02*
X224070467Y-146458297D01*
X213287165Y-163063127D02*
X226981231Y-160152363D01*
X210376401Y-149369061D02*
X213287165Y-163063127D01*
G04 #@! TO.C,SW_I1*
X235013818Y-124654536D02*
X221319752Y-127565300D01*
X237924582Y-138348602D02*
X235013818Y-124654536D01*
X224230516Y-141259366D02*
X237924582Y-138348602D01*
X221319752Y-127565300D02*
X224230516Y-141259366D01*
G04 #@! TO.C,SW_H1*
X205436754Y-150419013D02*
X191742688Y-153329777D01*
X208347518Y-164113079D02*
X205436754Y-150419013D01*
X194653452Y-167023843D02*
X208347518Y-164113079D01*
X191742688Y-153329777D02*
X194653452Y-167023843D01*
G04 #@! TO.C,SW_G1*
X166160806Y-153756495D02*
X152466740Y-150845731D01*
X163250042Y-167450561D02*
X166160806Y-153756495D01*
X149555976Y-164539797D02*
X163250042Y-167450561D01*
X152466740Y-150845731D02*
X149555976Y-164539797D01*
G04 #@! TO.C,SW_F13*
X147527093Y-149795783D02*
X133833027Y-146885019D01*
X144616329Y-163489849D02*
X147527093Y-149795783D01*
X130922263Y-160579085D02*
X144616329Y-163489849D01*
X133833027Y-146885019D02*
X130922263Y-160579085D01*
G04 #@! TO.C,SW_F12*
X321608998Y-77828938D02*
X307608998Y-77828938D01*
X321608998Y-91828938D02*
X321608998Y-77828938D01*
X307608998Y-91828938D02*
X321608998Y-91828938D01*
X307608998Y-77828938D02*
X307608998Y-91828938D01*
G04 #@! TO.C,SW_F11*
X302558997Y-77828936D02*
X288558997Y-77828936D01*
X302558997Y-91828936D02*
X302558997Y-77828936D01*
X288558997Y-91828936D02*
X302558997Y-91828936D01*
X288558997Y-77828936D02*
X288558997Y-91828936D01*
G04 #@! TO.C,SW_F10*
X283509000Y-77828938D02*
X269509000Y-77828938D01*
X283509000Y-91828938D02*
X283509000Y-77828938D01*
X269509000Y-91828938D02*
X283509000Y-91828938D01*
X269509000Y-77828938D02*
X269509000Y-91828938D01*
G04 #@! TO.C,SW_F9*
X264458998Y-77828935D02*
X250458998Y-77828935D01*
X264458998Y-91828935D02*
X264458998Y-77828935D01*
X250458998Y-91828935D02*
X264458998Y-91828935D01*
X250458998Y-77828935D02*
X250458998Y-91828935D01*
G04 #@! TO.C,SW_F8*
X225990173Y-82914624D02*
X212296107Y-85825388D01*
X228900937Y-96608690D02*
X225990173Y-82914624D01*
X215206871Y-99519454D02*
X228900937Y-96608690D01*
X212296107Y-85825388D02*
X215206871Y-99519454D01*
G04 #@! TO.C,SW_F7*
X193662662Y-89785246D02*
X196573426Y-103479312D01*
X196573426Y-103479312D02*
X210267492Y-100568548D01*
X210267492Y-100568548D02*
X207356728Y-86874482D01*
X207356728Y-86874482D02*
X193662662Y-89785246D01*
G04 #@! TO.C,SW_F6*
X160855949Y-86869402D02*
X157945185Y-100563468D01*
X157945185Y-100563468D02*
X171639251Y-103474232D01*
X171639251Y-103474232D02*
X174550015Y-89780166D01*
X174550015Y-89780166D02*
X160855949Y-86869402D01*
G04 #@! TO.C,SW_F5*
X142222509Y-82907000D02*
X139311745Y-96601066D01*
X139311745Y-96601066D02*
X153005811Y-99511830D01*
X153005811Y-99511830D02*
X155916575Y-85817764D01*
X155916575Y-85817764D02*
X142222509Y-82907000D01*
G04 #@! TO.C,SW_F4*
X110085895Y-77828935D02*
X110085895Y-91828935D01*
X110085895Y-91828935D02*
X124085895Y-91828935D01*
X124085895Y-91828935D02*
X124085895Y-77828935D01*
X124085895Y-77828935D02*
X110085895Y-77828935D01*
G04 #@! TO.C,SW_F3*
X91035897Y-77828934D02*
X91035897Y-91828934D01*
X91035897Y-91828934D02*
X105035897Y-91828934D01*
X105035897Y-91828934D02*
X105035897Y-77828934D01*
X105035897Y-77828934D02*
X91035897Y-77828934D01*
G04 #@! TO.C,SW_F2*
X72006217Y-77828936D02*
X72006217Y-91828936D01*
X72006217Y-91828936D02*
X86006217Y-91828936D01*
X86006217Y-91828936D02*
X86006217Y-77828936D01*
X86006217Y-77828936D02*
X72006217Y-77828936D01*
G04 #@! TO.C,SW_F1*
X52956221Y-77828936D02*
X52956221Y-91828936D01*
X52956221Y-91828936D02*
X66956221Y-91828936D01*
X66956221Y-91828936D02*
X66956221Y-77828936D01*
X66956221Y-77828936D02*
X52956221Y-77828936D01*
G04 #@! TO.C,SW_ESC1*
X49352336Y-101279535D02*
X49352336Y-115279535D01*
X49352336Y-115279535D02*
X63352336Y-115279535D01*
X63352336Y-115279535D02*
X63352336Y-101279535D01*
X63352336Y-101279535D02*
X49352336Y-101279535D01*
G04 #@! TO.C,SW_E1*
X114499313Y-123294300D02*
X111588549Y-136988366D01*
X111588549Y-136988366D02*
X125282615Y-139899130D01*
X125282615Y-139899130D02*
X128193379Y-126205064D01*
X128193379Y-126205064D02*
X114499313Y-123294300D01*
G04 #@! TO.C,SW_DOWN1*
X341218278Y-181364415D02*
X341218278Y-195364415D01*
X341218278Y-195364415D02*
X355218278Y-195364415D01*
X355218278Y-195364415D02*
X355218278Y-181364415D01*
X355218278Y-181364415D02*
X341218278Y-181364415D01*
G04 #@! TO.C,SW_DASH1*
X267576057Y-99121756D02*
X267576057Y-113121756D01*
X267576057Y-113121756D02*
X281576057Y-113121756D01*
X281576057Y-113121756D02*
X281576057Y-99121756D01*
X281576057Y-99121756D02*
X267576057Y-99121756D01*
G04 #@! TO.C,SW_D1*
X115199315Y-142924300D02*
X112288551Y-156618366D01*
X112288551Y-156618366D02*
X125982617Y-159529130D01*
X125982617Y-159529130D02*
X128893381Y-145835064D01*
X128893381Y-145835064D02*
X115199315Y-142924300D01*
G04 #@! TO.C,SW_COMMA1*
X243208383Y-161836647D02*
X246119147Y-175530713D01*
X246119147Y-175530713D02*
X259813213Y-172619949D01*
X259813213Y-172619949D02*
X256902449Y-158925883D01*
X256902449Y-158925883D02*
X243208383Y-161836647D01*
G04 #@! TO.C,SW_C1*
X120549315Y-163534295D02*
X117638551Y-177228361D01*
X117638551Y-177228361D02*
X131332617Y-180139125D01*
X131332617Y-180139125D02*
X134243381Y-166445059D01*
X134243381Y-166445059D02*
X120549315Y-163534295D01*
G04 #@! TO.C,SW_B_RIGHT1*
X187312326Y-173746739D02*
X190223090Y-187440805D01*
X190223090Y-187440805D02*
X203917156Y-184530041D01*
X203917156Y-184530041D02*
X201006392Y-170835975D01*
X201006392Y-170835975D02*
X187312326Y-173746739D01*
G04 #@! TO.C,SW_B_LEFT1*
X157816741Y-171455735D02*
X154905977Y-185149801D01*
X154905977Y-185149801D02*
X168600043Y-188060565D01*
X168600043Y-188060565D02*
X171510807Y-174366499D01*
X171510807Y-174366499D02*
X157816741Y-171455735D01*
G04 #@! TO.C,SW_APST1*
X290312338Y-139379537D02*
X290312338Y-153379537D01*
X290312338Y-153379537D02*
X304312338Y-153379537D01*
X304312338Y-153379537D02*
X304312338Y-139379537D01*
X304312338Y-139379537D02*
X290312338Y-139379537D01*
G04 #@! TO.C,SW_A1*
X74462339Y-139379536D02*
X74462339Y-153379536D01*
X74462339Y-153379536D02*
X88462339Y-153379536D01*
X88462339Y-153379536D02*
X88462339Y-139379536D01*
X88462339Y-139379536D02*
X74462339Y-139379536D01*
G04 #@! TO.C,SW_]1*
X300322335Y-120329534D02*
X300322335Y-134329534D01*
X300322335Y-134329534D02*
X314322335Y-134329534D01*
X314322335Y-134329534D02*
X314322335Y-120329534D01*
X314322335Y-120329534D02*
X300322335Y-120329534D01*
G04 #@! TO.C,SW_[1*
X281272337Y-120329533D02*
X281272337Y-134329533D01*
X281272337Y-134329533D02*
X295272337Y-134329533D01*
X295272337Y-134329533D02*
X295272337Y-120329533D01*
X295272337Y-120329533D02*
X281272337Y-120329533D01*
G04 #@! TO.C,SW_9*
X226679751Y-106955303D02*
X229590515Y-120649369D01*
X229590515Y-120649369D02*
X243284581Y-117738605D01*
X243284581Y-117738605D02*
X240373817Y-104044539D01*
X240373817Y-104044539D02*
X226679751Y-106955303D01*
G04 #@! TO.C,SW_8*
X208046037Y-110916019D02*
X210956801Y-124610085D01*
X210956801Y-124610085D02*
X224650867Y-121699321D01*
X224650867Y-121699321D02*
X221740103Y-108005255D01*
X221740103Y-108005255D02*
X208046037Y-110916019D01*
G04 #@! TO.C,SW_7*
X189412327Y-114876736D02*
X192323091Y-128570802D01*
X192323091Y-128570802D02*
X206017157Y-125660038D01*
X206017157Y-125660038D02*
X203106393Y-111965972D01*
X203106393Y-111965972D02*
X189412327Y-114876736D01*
G04 #@! TO.C,SW_6*
X165044409Y-114563019D02*
X162133645Y-128257085D01*
X162133645Y-128257085D02*
X175827711Y-131167849D01*
X175827711Y-131167849D02*
X178738475Y-117473783D01*
X178738475Y-117473783D02*
X165044409Y-114563019D01*
G04 #@! TO.C,SW_5*
X146413028Y-110605017D02*
X143502264Y-124299083D01*
X143502264Y-124299083D02*
X157196330Y-127209847D01*
X157196330Y-127209847D02*
X160107094Y-113515781D01*
X160107094Y-113515781D02*
X146413028Y-110605017D01*
G04 #@! TO.C,SW_4*
X127779317Y-106644300D02*
X124868553Y-120338366D01*
X124868553Y-120338366D02*
X138562619Y-123249130D01*
X138562619Y-123249130D02*
X141473383Y-109555064D01*
X141473383Y-109555064D02*
X127779317Y-106644300D01*
G04 #@! TO.C,SW_3*
X109145609Y-102683584D02*
X106234845Y-116377650D01*
X106234845Y-116377650D02*
X119928911Y-119288414D01*
X119928911Y-119288414D02*
X122839675Y-105594348D01*
X122839675Y-105594348D02*
X109145609Y-102683584D01*
G04 #@! TO.C,SW_2*
X87451958Y-99761838D02*
X87451958Y-113761838D01*
X87451958Y-113761838D02*
X101451958Y-113761838D01*
X101451958Y-113761838D02*
X101451958Y-99761838D01*
X101451958Y-99761838D02*
X87451958Y-99761838D01*
G04 #@! TO.C,SW_1*
X68402337Y-101279534D02*
X68402337Y-115279534D01*
X68402337Y-115279534D02*
X82402337Y-115279534D01*
X82402337Y-115279534D02*
X82402337Y-101279534D01*
X82402337Y-101279534D02*
X68402337Y-101279534D01*
G04 #@! TD*
M02*
