<?xml version="1.0" encoding="utf-8"?>
<!-- Generator: Adobe Illustrator 24.2.1, SVG Export Plug-In . SVG Version: 6.00 Build 0)  -->
<svg version="1.1" id="Layer_1" xmlns:svg="http://www.w3.org/2000/svg"
	 xmlns="http://www.w3.org/2000/svg" xmlns:xlink="http://www.w3.org/1999/xlink" x="0px" y="0px" viewBox="0 0 1190.5 841.9"
	 style="enable-background:new 0 0 1190.5 841.9;" xml:space="preserve">
<style type="text/css">
	.st0{fill:#231F20;fill-opacity:0;stroke:#231F20;stroke-linecap:round;stroke-linejoin:round;stroke-miterlimit:10;}
	.st1{opacity:0;fill:#231F20;}
	.st2{fill:none;stroke:#231F20;stroke-linecap:round;stroke-linejoin:round;stroke-miterlimit:10;}
	.st3{stroke:#000000;stroke-width:0.4252;stroke-linecap:round;stroke-linejoin:round;stroke-miterlimit:10;}
</style>
<desc>Picture generated by PCBNEW</desc>
<g transform="translate(0 0) scale(1 1)">
</g>
<g>
	<path class="st0" d="M1075.5,617c7.5,0,13.6-6.1,13.6-13.6l0,0"/>
	<path class="st0" d="M1089.2,199.7c-0.1-7.5-6.2-13.6-13.7-13.5"/>
	<path class="st0" d="M101.4,591.9c0,7.5,6.1,13.6,13.6,13.6c0,0,0,0,0,0"/>
	<path class="st0" d="M115,186.2c-7.5,0-13.6,6.1-13.6,13.6"/>
	<path class="st0" d="M562.5,655.7L744.4,617"/>
	<path class="st0" d="M516.6,655.7h45.9"/>
	<path class="st0" d="M280.6,605.5l235.9,50.2"/>
	<path class="st0" d="M115,605.5l165.6,0"/>
	<path class="st0" d="M101.4,199.8l0,392.1"/>
	<path class="st0" d="M1075.4,186.2H115"/>
	<path class="st0" d="M1089.1,603.5l0-403.8"/>
	<path class="st0" d="M1075.5,617l-331.2,0"/>
</g>
<path class="st0" d="M1092.1,635.6c7.8,0,14.1-6.6,14.1-14.9v0"/>
<path class="st0" d="M1106.2,178.7c-0.1-8.2-6.4-14.8-14.2-14.8"/>
<path class="st0" d="M84.4,608.1c0,8.2,6.3,14.9,14.1,14.9c0,0,0,0,0,0"/>
<path class="st0" d="M98.4,164c-7.8,0-14.1,6.7-14.1,14.9"/>
<g>
	<path class="st1" d="M269.8,623L500,674.8c7.6,1.7,20.2,3.1,28,3.1h19.1c7.8,0,20.4-1.4,28-3.1l174.3-39.2"/>
	<path class="st2" d="M269.8,623L500,674.8c7.6,1.7,20.2,3.1,28,3.1h19.1c7.8,0,20.4-1.4,28-3.1l174.3-39.2"/>
</g>
<path class="st0" d="M98.4,623l171.3,0"/>
<path class="st0" d="M84.4,178.8l0,429.3"/>
<path class="st0" d="M1092,164H98.4"/>
<path class="st0" d="M1106.2,620.8l0-442"/>
<path class="st0" d="M1092.1,635.6l-342.6,0"/>
<rect x="335.5" y="157.9" class="st3" width="7.9" height="28.3"/>
</svg>
